<?xml version="1.0" encoding="UTF-8"?>
<svg version="1.1" xmlns="http://www.w3.org/2000/svg" width="408" height="104">
<path d="M0 0 C6.86897336 -0.33537483 11.88425246 -0.2377487 18 3 C19.134375 3.556875 20.26875 4.11375 21.4375 4.6875 C22.283125 5.120625 23.12875 5.55375 24 6 C24 6.66 24 7.32 24 8 C24.64960693 7.98952637 25.29921387 7.97905273 25.96850586 7.96826172 C28.95813001 7.92627038 31.94769179 7.90053833 34.9375 7.875 C35.95908203 7.85824219 36.98066406 7.84148438 38.03320312 7.82421875 C46.23508877 7.77181053 53.5865831 8.56503957 61.0625 12.125 C62.19365234 12.65480469 62.19365234 12.65480469 63.34765625 13.1953125 C63.89292969 13.46085938 64.43820313 13.72640625 65 14 C65 14.66 65 15.32 65 16 C66.98 16.495 66.98 16.495 69 17 C69 17.66 69 18.32 69 19 C69.5775 19.2475 70.155 19.495 70.75 19.75 C73.32939979 21.18299988 75.06121592 22.78424676 77 25 C77 25.66 77 26.32 77 27 C78.485 27.495 78.485 27.495 80 28 C80 28.99 80 29.98 80 31 C80.66 31 81.32 31 82 31 C82.81832722 32.89332534 83.62942268 34.78977733 84.4375 36.6875 C84.88996094 37.74324219 85.34242187 38.79898438 85.80859375 39.88671875 C86.85447455 42.61972529 87.53520748 45.12042337 88 48 C88.495 47.01 88.495 47.01 89 46 C92.375 45.875 92.375 45.875 96 46 C96.66 46.66 97.32 47.32 98 48 C98.99 47.34 99.98 46.68 101 46 C106.79394424 44.60765681 111.44521557 44.99082265 117 47 C117 47.66 117 48.32 117 49 C117.5775 49.020625 118.155 49.04125 118.75 49.0625 C122.28802952 50.53667897 123.38541594 53.72334411 125 57 C125.54140625 57.94359375 125.54140625 57.94359375 126.09375 58.90625 C128.21254078 63.80138732 127.74653956 69.74090636 126.1015625 74.71875 C125.14366629 76.86552448 124.1374577 78.94343585 123 81 C122.34 81 121.68 81 121 81 C121 81.99 121 82.98 121 84 C119.68 84.33 118.36 84.66 117 85 C117 85.66 117 86.32 117 87 C113.91493912 88.02835363 111.7305728 88.13368434 108.5 88.125 C107.5409375 88.12757812 106.581875 88.13015625 105.59375 88.1328125 C103 88 103 88 100 87 C100 86.34 100 85.68 100 85 C99.34 85 98.68 85 98 85 C98 91.27 98 97.54 98 104 C94.7 104 91.4 104 88 104 C87.67 92.78 87.34 81.56 87 70 C86.505 71.98 86.505 71.98 86 74 C85.34 74 84.68 74 84 74 C83.9175 74.845625 83.835 75.69125 83.75 76.5625 C82.16201673 83.84075666 78.75758329 87.53493541 73 92 C72.175 92.86625 71.35 93.7325 70.5 94.625 C67.52246348 97.45365969 64.25879752 100 60 100 C60 100.66 60 101.32 60 102 C53.31881864 104.44195225 46.80687451 104.36728757 39.75 104.375 C38.58597656 104.39949219 37.42195313 104.42398438 36.22265625 104.44921875 C26.73915855 104.4810782 19.38032949 102.29642829 11 98 C11 97.34 11 96.68 11 96 C10.443125 95.773125 9.88625 95.54625 9.3125 95.3125 C5.03688123 92.88579746 1.86083181 89.56749627 0 85 C-0.66 85 -1.32 85 -2 85 C-3.4606285 82.35261084 -4 81.10551666 -4 78 C-4.66 78 -5.32 78 -6 78 C-8.6630339 70.98311704 -8.29439268 63.92097645 -8.25 56.5 C-8.25773438 55.20707031 -8.26546875 53.91414063 -8.2734375 52.58203125 C-8.26067155 46.37139896 -8.21631594 40.83981659 -6 35 C-5.34 35 -4.68 35 -4 35 C-3.84917969 34.13181641 -3.84917969 34.13181641 -3.6953125 33.24609375 C-2.87738641 30.60391676 -1.66094067 29.15994195 0.125 27.0625 C2.59367847 24.03652849 2.59367847 24.03652849 2.9375 20.25 C2.628125 19.5075 2.31875 18.765 2 18 C0.852485 14.30054866 0.68714522 10.60166917 0.4375 6.75 C0.35371094 5.48671875 0.26992187 4.2234375 0.18359375 2.921875 C0.12300781 1.95765625 0.06242188 0.9934375 0 0 Z M88 51 C88 54.96 88 58.92 88 63 C88.33 63 88.66 63 89 63 C89 59.04 89 55.08 89 51 C88.67 51 88.34 51 88 51 Z M100.375 56.375 C97.62692455 59.62272553 97.86504699 62.93917242 97.875 67 C97.87242188 68.051875 97.86984375 69.10375 97.8671875 70.1875 C98.01818688 73.38513387 98.35916851 75.30790199 100.5625 77.6875 C104.0394787 79.5597193 107.13205731 79.73069965 111 79 C113.96858157 76.79259319 114.82865791 75.51402627 116 72 C116.52311798 67.09469698 116.62321656 62.44904316 114.4375 57.9375 C112.21870461 54.69734555 112.21870461 54.69734555 108.4375 54 C105.01470675 54 103.0181317 54.13850394 100.375 56.375 Z " fill="#F9FCF6" transform="translate(8,0)"/>
<path d="M0 0 C18.92856156 -0.92787066 18.92856156 -0.92787066 28 5 C29.093125 5.474375 30.18625 5.94875 31.3125 6.4375 C34.79481089 8.46209936 36.52329039 10.8353155 39 14 C39.99 14.495 39.99 14.495 41 15 C41.495 16.485 41.495 16.485 42 18 C42.66 18.33 43.32 18.66 44 19 C49.64620705 28.95785607 50.30693486 39.81194625 49 51 C47.37519202 56.83576866 45.31608216 61.68391784 41 66 C41 57.42 41 48.84 41 40 C40.34 40 39.68 40 39 40 C38.01 37.03 38.01 37.03 37 34 C29.29065524 32.28681228 20.70934476 32.28681228 13 34 C13 34.99 13 35.98 13 37 C13.66 37 14.32 37 15 37 C15.33 37.99 15.66 38.98 16 40 C19.29075996 39.62095792 19.29075996 39.62095792 22 38 C24.67058851 37.85884839 27.32432238 37.95752893 30 38 C30 38.66 30 39.32 30 40 C31.98 40.495 31.98 40.495 34 41 C34 43.31 34 45.62 34 48 C32.90300781 48.02578125 31.80601563 48.0515625 30.67578125 48.078125 C29.22131552 48.1344269 27.76688997 48.19177377 26.3125 48.25 C25.59126953 48.26417969 24.87003906 48.27835938 24.12695312 48.29296875 C19.23837023 48.51619171 16.52058398 49.31112807 13 53 C11.50915168 57.47254497 11.50915168 61.52745503 13 66 C13.99 66.495 13.99 66.495 15 67 C15 67.99 15 68.98 15 70 C17.08268593 70.08126087 19.16628658 70.13930839 21.25 70.1875 C22.41015625 70.22230469 23.5703125 70.25710937 24.765625 70.29296875 C28.2739617 69.97518463 29.41212617 69.26142185 32 67 C32.66 67 33.32 67 34 67 C34.33 67.99 34.66 68.98 35 70 C35.66 70.66 36.32 71.32 37 72 C36.34 72 35.68 72 35 72 C34.505 73.485 34.505 73.485 34 75 C33.01 75 32.02 75 31 75 C30.505 76.485 30.505 76.485 30 78 C29.01 78 28.02 78 27 78 C27 78.66 27 79.32 27 80 C17.54018117 85.71158873 6.61493059 84.38088352 -4 84 C-4 83.34 -4 82.68 -4 82 C-4.67546875 81.90203125 -5.3509375 81.8040625 -6.046875 81.703125 C-14.55466865 80.27696306 -14.55466865 80.27696306 -18 76 C-19.81579327 74.49224309 -21.65797528 73.02326573 -23.51171875 71.5625 C-25.23982278 69.74821755 -25.60509044 68.44317384 -26 66 C-26.66 66 -27.32 66 -28 66 C-28.103125 65.360625 -28.20625 64.72125 -28.3125 64.0625 C-28.6528125 63.0415625 -28.6528125 63.0415625 -29 62 C-29.99 61.67 -30.98 61.34 -32 61 C-32.74259349 58.68970915 -33.411438 56.354248 -34 54 C-34.33 53.67 -34.66 53.34 -35 53 C-35.15540479 49.98753783 -35.23187153 47.0138577 -35.25 44 C-35.270625 43.17371094 -35.29125 42.34742188 -35.3125 41.49609375 C-35.3501448 35.48233771 -34.23221013 30.57547508 -32 25 C-31.34 25 -30.68 25 -30 25 C-29.938125 24.154375 -29.87625 23.30875 -29.8125 22.4375 C-28.82870735 18.27530032 -27.0806286 15.00940019 -24 12 C-23.01 12 -22.02 12 -21 12 C-21 12.66 -21 13.32 -21 14 C-19.68 14.66 -18.36 15.32 -17 16 C-17 16.66 -17 17.32 -17 18 C-10.23838701 20.78419359 -4.27330471 22.33879048 3 23 C3 18.71 3 14.42 3 10 C2.34 10 1.68 10 1 10 C0.67 6.7 0.34 3.4 0 0 Z " fill="#70BE06" transform="translate(40,15)"/>
<path d="M0 0 C1.04027344 -0.01417969 2.08054688 -0.02835938 3.15234375 -0.04296875 C6.01296613 0.18357718 7.63920151 0.71016381 10.0625 2.1875 C10.3925 1.5275 10.7225 0.8675 11.0625 0.1875 C17.21484375 0.08984375 17.21484375 0.08984375 19.0625 0.1875 C21.13693144 2.26193144 20.22661652 6.7111226 20.23046875 9.5703125 C20.23546135 10.84175613 20.23546135 10.84175613 20.24055481 12.1388855 C20.24563045 13.93959001 20.24796294 15.74030397 20.24780273 17.54101562 C20.24997432 20.28010945 20.26808153 23.01879083 20.28710938 25.7578125 C20.29004625 27.50781113 20.29202908 29.25781166 20.29296875 31.0078125 C20.30015427 31.82162384 20.30733978 32.63543518 20.31474304 33.47390747 C20.28348478 41.3686913 18.86000603 48.38999397 13.0625 54.1875 C12.0725 54.1875 11.0825 54.1875 10.0625 54.1875 C10.0625 54.8475 10.0625 55.5075 10.0625 56.1875 C6.23062489 57.4647917 2.61541683 57.33260286 -1.375 57.3125 C-2.13876953 57.31636719 -2.90253906 57.32023437 -3.68945312 57.32421875 C-4.43001953 57.32292969 -5.17058594 57.32164063 -5.93359375 57.3203125 C-6.60575928 57.31918457 -7.2779248 57.31805664 -7.97045898 57.31689453 C-10.05917459 57.17949609 -11.92580925 56.75280559 -13.9375 56.1875 C-13.9375 55.5275 -13.9375 54.8675 -13.9375 54.1875 C-14.5975 54.1875 -15.2575 54.1875 -15.9375 54.1875 C-15.9375 53.1975 -15.9375 52.2075 -15.9375 51.1875 C-15.2775 51.1875 -14.6175 51.1875 -13.9375 51.1875 C-13.9375 49.8675 -13.9375 48.5475 -13.9375 47.1875 C-12.82375 47.435 -12.82375 47.435 -11.6875 47.6875 C-8.36360521 48.13068597 -5.16105308 48.38947319 -1.8125 48.5 C-0.79929688 48.53738281 0.21390625 48.57476562 1.2578125 48.61328125 C4.78589893 48.07768039 5.89598096 46.96366742 8.0625 44.1875 C8.85931318 41.54565459 8.85931318 41.54565459 9.0625 39.1875 C8.00482422 39.67863281 8.00482422 39.67863281 6.92578125 40.1796875 C3.82382833 41.27150722 1.52243947 41.39135396 -1.75 41.3125 C-2.72582031 41.29445312 -3.70164063 41.27640625 -4.70703125 41.2578125 C-5.81111328 41.22300781 -5.81111328 41.22300781 -6.9375 41.1875 C-6.9375 40.5275 -6.9375 39.8675 -6.9375 39.1875 C-7.72125 39.105 -8.505 39.0225 -9.3125 38.9375 C-11.9375 38.1875 -11.9375 38.1875 -13.25 36.125 C-13.476875 35.485625 -13.70375 34.84625 -13.9375 34.1875 C-14.5975 34.1875 -15.2575 34.1875 -15.9375 34.1875 C-17.74134963 29.54902953 -18.20768769 25.65367066 -18.1875 20.6875 C-18.19265625 19.4190625 -18.1978125 18.150625 -18.203125 16.84375 C-17.94448139 13.28359683 -17.22571239 10.50004615 -15.9375 7.1875 C-15.2775 7.1875 -14.6175 7.1875 -13.9375 7.1875 C-13.2775 5.8675 -12.6175 4.5475 -11.9375 3.1875 C-10.9475 3.1875 -9.9575 3.1875 -8.9375 3.1875 C-8.9375 2.5275 -8.9375 1.8675 -8.9375 1.1875 C-5.74593552 0.12364517 -3.35252524 0.02072018 0 0 Z M-6.4375 10 C-8.89188351 13.57930928 -9.07386985 16.45791718 -9.0625 20.6875 C-9.06507813 21.6465625 -9.06765625 22.605625 -9.0703125 23.59375 C-8.90735497 26.77621475 -8.23982192 28.74661387 -6.4375 31.375 C-3.22651649 33.70296305 -1.03040785 33.66567934 2.84375 33.71875 C5.98710411 32.96611592 7.13590236 31.76336953 9.0625 29.1875 C9.83442132 26.09957839 9.83442132 26.09957839 9.9375 22.75 C10.01742188 21.63753906 10.09734375 20.52507812 10.1796875 19.37890625 C10.03029102 15.31034217 9.1634769 12.64589548 6.71484375 9.40234375 C3.99409758 7.40198427 1.49222722 7.72179749 -1.77734375 7.828125 C-4.14968619 8.0577311 -4.14968619 8.0577311 -6.4375 10 Z " fill="#FEFEFE" transform="translate(251.9375,45.8125)"/>
<path d="M0 0 C5.32687643 4.1981331 8.51201726 9.0303404 9.7890625 15.71875 C9.80364811 20.11388103 9.41595407 24.37139323 8.7890625 28.71875 C8.1290625 28.71875 7.4690625 28.71875 6.7890625 28.71875 C6.7065625 29.46125 6.6240625 30.20375 6.5390625 30.96875 C5.34817419 35.33534047 2.83718949 37.01999867 -0.8359375 39.46875 C-5.3229794 41.13061737 -9.47796031 41.45467023 -14.2109375 40.71875 C-16.1909375 39.72875 -18.1709375 38.73875 -20.2109375 37.71875 C-19.8809375 43.98875 -19.5509375 50.25875 -19.2109375 56.71875 C-22.5109375 56.71875 -25.8109375 56.71875 -29.2109375 56.71875 C-29.2109375 37.57875 -29.2109375 18.43875 -29.2109375 -1.28125 C-26.5709375 -1.28125 -23.9309375 -1.28125 -21.2109375 -1.28125 C-20.8809375 -0.29125 -20.5509375 0.69875 -20.2109375 1.71875 C-19.5509375 1.71875 -18.8909375 1.71875 -18.2109375 1.71875 C-18.2109375 1.05875 -18.2109375 0.39875 -18.2109375 -0.28125 C-11.925366 -2.55475459 -6.03336956 -3.49636964 0 0 Z M-19.2109375 11.71875 C-21.19283918 15.82411777 -20.39566748 21.50199021 -20.0234375 25.96875 C-18.65735577 28.91107988 -16.9800664 30.06905619 -14.2109375 31.71875 C-10.7189166 32.3381923 -7.47273983 32.4758314 -4.3359375 30.59375 C-1.10453969 25.20808698 -0.83717774 20.42219837 -1.5390625 14.2890625 C-2.25268977 11.5590233 -2.88762066 10.40151003 -4.9609375 8.53125 C-11.41001686 4.93464805 -14.09427232 6.60208482 -19.2109375 11.71875 Z " fill="#FEFEFE" transform="translate(167.2109375,47.28125)"/>
<path d="M0 0 C3.19170615 2.86327201 5.08502126 6.17004253 7 10 C7 13.96 7 17.92 7 22 C-5.375 22.495 -5.375 22.495 -18 23 C-17.67 24.65 -17.34 26.3 -17 28 C-16.01 28.66 -15.02 29.32 -14 30 C-14 30.66 -14 31.32 -14 32 C-12.39504433 31.88557539 -10.79101881 31.75805306 -9.1875 31.625 C-7.84751953 31.52058594 -7.84751953 31.52058594 -6.48046875 31.4140625 C-3.75601501 31.13354964 -3.75601501 31.13354964 -1 29 C1.96076291 29.35888035 2.84658021 29.84658021 5 32 C5.125 34.625 5.125 34.625 5 37 C3.02 37.495 3.02 37.495 1 38 C1 38.66 1 39.32 1 40 C-2.5482775 41.09848394 -5.86210785 41.13341955 -9.5625 41.125 C-10.69816406 41.12757812 -11.83382813 41.13015625 -13.00390625 41.1328125 C-16 41 -16 41 -19 40 C-19 39.34 -19 38.68 -19 38 C-19.86625 37.9071875 -19.86625 37.9071875 -20.75 37.8125 C-24.59310761 36.42471114 -26.33615131 33.34429361 -28.09375 29.78515625 C-30.25211133 23.15191648 -30.32413759 13.80166233 -27.375 7.375 C-24.73997782 3.10123611 -21.41098438 -0.19633854 -16.5625 -1.8125 C-10.63653269 -2.24610736 -5.58016214 -2.27339939 0 0 Z M-16.4375 8.8125 C-18.2906191 10.95882896 -18.2906191 10.95882896 -18 14 C-13.05 14 -8.1 14 -3 14 C-4.54042748 9.19695965 -4.54042748 9.19695965 -7 7 C-11.00686356 6.55479294 -13.14702112 6.36573365 -16.4375 8.8125 Z " fill="#FEFEFE" transform="translate(365,47)"/>
<path d="M0 0 C0 0.66 0 1.32 0 2 C0.598125 2.226875 1.19625 2.45375 1.8125 2.6875 C4.66745945 4.40047567 5.50938076 6.03114893 7 9 C7.546875 12.078125 7.546875 12.078125 7.75 15.25 C7.82734375 16.30703125 7.9046875 17.3640625 7.984375 18.453125 C7.99210937 19.71382812 7.99210937 19.71382812 8 21 C6.28556781 22.71443219 3.99554759 22.23052967 1.65234375 22.31640625 C0.57275391 22.35830078 -0.50683594 22.40019531 -1.61914062 22.44335938 C-2.75544922 22.48267578 -3.89175781 22.52199219 -5.0625 22.5625 C-6.77276367 22.62727539 -6.77276367 22.62727539 -8.51757812 22.69335938 C-11.34492195 22.79982839 -14.17235738 22.90184207 -17 23 C-15.75082772 27.47745885 -15.75082772 27.47745885 -12.8125 30.9375 C-9.14083725 32.32457259 -6.77568821 31.9261122 -3 31 C-2.34 30.34 -1.68 29.68 -1 29 C2.29714793 29.32971479 3.6226839 29.6226839 6 32 C6.125 34.625 6.125 34.625 6 37 C-1.1021488 41.54537523 -7.6734876 42.09661527 -16 41 C-20.62070814 39.45739436 -23.84100013 36.82102049 -26.5 32.75 C-29.58025203 25.54441044 -29.24494053 15.62406482 -27.234375 8.15625 C-26.25 6 -26.25 6 -24 3 C-21.859375 2.3125 -21.859375 2.3125 -20 2 C-20 1.34 -20 0.68 -20 0 C-13.12474069 -2.2917531 -6.79022385 -3.39511192 0 0 Z M-15.4375 8.8125 C-17.2906191 10.95882896 -17.2906191 10.95882896 -17 14 C-12.05 14 -7.1 14 -2 14 C-2.33 12.68 -2.66 11.36 -3 10 C-3.66 10 -4.32 10 -5 10 C-5.33 9.01 -5.66 8.02 -6 7 C-11.06967866 6.54715856 -11.06967866 6.54715856 -15.4375 8.8125 Z " fill="#FEFEFE" transform="translate(326,47)"/>
<path d="M0 0 C0 0.66 0 1.32 0 2 C0.598125 2.20625 1.19625 2.4125 1.8125 2.625 C5.07517173 4.67582223 5.73608604 6.33464951 7 10 C7 13.96 7 17.92 7 22 C-1.58 22 -10.16 22 -19 22 C-19 22.66 -19 23.32 -19 24 C-18.34 24 -17.68 24 -17 24 C-16.566875 25.175625 -16.566875 25.175625 -16.125 26.375 C-15.15087746 29.09671632 -15.15087746 29.09671632 -13 31 C-10.89410923 31.31863689 -10.89410923 31.31863689 -8.5625 31.25 C-7.78003906 31.25515625 -6.99757812 31.2603125 -6.19140625 31.265625 C-3.70955893 31.13176831 -3.70955893 31.13176831 -1 29 C0.32 29 1.64 29 3 29 C3 29.99 3 30.98 3 32 C3.99 32.33 4.98 32.66 6 33 C5.67 34.32 5.34 35.64 5 37 C2.525 37.495 2.525 37.495 0 38 C0 38.66 0 39.32 0 40 C-5.76912355 41.92304118 -12.7178877 42.14719599 -18.4921875 40.12890625 C-23.15363469 37.44637532 -25.98714355 34.03488842 -28 29 C-28.53854785 25.99744909 -28.56164448 23.106196 -28.5 20.0625 C-28.51546875 19.30259766 -28.5309375 18.54269531 -28.546875 17.75976562 C-28.50986686 12.34269909 -27.50698288 7.29660285 -24 3 C-21.86132812 2.28149414 -21.86132812 2.28149414 -20 2 C-20 1.34 -20 0.68 -20 0 C-12.92073441 -2.18813664 -7.07733398 -2.35911133 0 0 Z M-17 11 C-17.33 12.32 -17.66 13.64 -18 15 C-12.72 15 -7.44 15 -2 15 C-3.66626572 10.16127988 -3.66626572 10.16127988 -7 7 C-11.88951024 6.27177507 -14.03325033 7.04433377 -17 11 Z " fill="#FEFEFE" transform="translate(222,47)"/>
<path d="M0 0 C0 0.66 0 1.32 0 2 C0.99 2.33 1.98 2.66 3 3 C4.21077701 6.63233102 4.12444164 9.95121987 4.09765625 13.73046875 C4.0962413 14.48088943 4.09482635 15.23131012 4.09336853 16.00447083 C4.0877756 18.3988546 4.07522444 20.79314453 4.0625 23.1875 C4.05748408 24.81184761 4.05292134 26.43619668 4.04882812 28.06054688 C4.03780848 32.04040069 4.02054873 36.02018444 4 40 C1.66705225 40.04241723 -0.66702567 40.04092937 -3 40 C-4.67997829 38.32002171 -4.20816826 36.20401077 -4.28125 33.8984375 C-4.31863281 32.85042969 -4.35601562 31.80242187 -4.39453125 30.72265625 C-4.44673828 29.06556641 -4.44673828 29.06556641 -4.5 27.375 C-4.80138383 17.64598357 -4.80138383 17.64598357 -6 8 C-7.45742463 7.91903197 -8.91612807 7.86082226 -10.375 7.8125 C-11.59316406 7.76029297 -11.59316406 7.76029297 -12.8359375 7.70703125 C-13.55007813 7.80371094 -14.26421875 7.90039062 -15 8 C-15.99 9.485 -15.99 9.485 -17 11 C-17.66 11 -18.32 11 -19 11 C-19 20.57 -19 30.14 -19 40 C-22.3 40 -25.6 40 -29 40 C-29 26.47 -29 12.94 -29 -1 C-26.03 -1 -23.06 -1 -20 -1 C-19.67 -0.34 -19.34 0.32 -19 1 C-18.34 0.34 -17.68 -0.32 -17 -1 C-11.46713031 -3.1280268 -5.21316997 -2.60658499 0 0 Z " fill="#FEFEFE" transform="translate(404,47)"/>
<path d="M0 0 C3.3 0 6.6 0 10 0 C10.02312916 7.28421548 10.04091801 14.5684231 10.05181217 21.85266781 C10.05703975 25.23471813 10.06413511 28.6167434 10.07543945 31.9987793 C10.08834267 35.88329777 10.09322924 39.76780597 10.09765625 43.65234375 C10.10281754 44.87211411 10.10797882 46.09188446 10.11329651 47.34861755 C10.11337204 48.46970413 10.11344757 49.59079071 10.11352539 50.74584961 C10.115746 51.73846298 10.11796661 52.73107635 10.12025452 53.75376892 C10 56 10 56 9 57 C6.03 57 3.06 57 0 57 C0 38.19 0 19.38 0 0 Z " fill="#FFFFFF" transform="translate(180,30)"/>
<path d="M0 0 C0.80967438 2.91482778 1.21845993 4.46113217 0.0625 7.3125 C-0.4634375 8.1478125 -0.4634375 8.1478125 -1 9 C-3.64 9 -6.28 9 -9 9 C-9.66 10.32 -10.32 11.64 -11 13 C-11.66 13 -12.32 13 -13 13 C-13 22.24 -13 31.48 -13 41 C-16.3 41 -19.6 41 -23 41 C-23 27.47 -23 13.94 -23 0 C-20.03 0 -17.06 0 -14 0 C-14 0.99 -14 1.98 -14 3 C-13.34 3 -12.68 3 -12 3 C-11.67 2.01 -11.34 1.02 -11 0 C-6.94952424 -1.35015859 -4.2079832 -0.62084998 0 0 Z " fill="#FEFEFE" transform="translate(298,46)"/>
<path d="M0 0 C5.50102837 0.41257713 9.76201664 2.54722675 14 6 C14 6.66 14 7.32 14 8 C14.9590625 8.1546875 14.9590625 8.1546875 15.9375 8.3125 C16.618125 8.539375 17.29875 8.76625 18 9 C18.33 9.99 18.66 10.98 19 12 C19.66 12.33 20.32 12.66 21 13 C22.0703125 15.58203125 22.0703125 15.58203125 23.125 18.8125 C23.65480469 20.39998047 23.65480469 20.39998047 24.1953125 22.01953125 C25 25 25 25 25 29 C20.35568123 28.55343089 17.5424092 28.05380103 14 25 C12.68163705 24.30419733 11.35208914 23.62775567 10 23 C10 22.34 10 21.68 10 21 C9.01 20.67 8.02 20.34 7 20 C5.54491838 17.68096367 4.25711995 15.41945705 3 13 C2.13375 11.515 2.13375 11.515 1.25 10 C-0.21648928 6.48042572 -0.22659502 3.7765836 0 0 Z " fill="#517723" transform="translate(15,6)"/>
<path d="M0 0 C0.680625 -0.00257812 1.36125 -0.00515625 2.0625 -0.0078125 C4 0.125 4 0.125 7 1.125 C6.81078536 9.17522286 6.81078536 9.17522286 3.8125 12.6875 C0.6055776 14.32659367 -1.44622262 14.45558394 -5 14.125 C-5 13.465 -5 12.805 -5 12.125 C-5.66 12.125 -6.32 12.125 -7 12.125 C-8.26026798 9.60446405 -7.91874445 8.2707902 -7.5625 5.5 C-7.46066406 4.68273437 -7.35882813 3.86546875 -7.25390625 3.0234375 C-7.17011719 2.39695312 -7.08632813 1.77046875 -7 1.125 C-4.32356043 0.23285348 -2.74615622 -0.01040211 0 0 Z " fill="#7DC31E" transform="translate(67,66.875)"/>
<path d="M0 0 C0.66 0 1.32 0 2 0 C2 4.29 2 8.58 2 13 C-4.34911318 13.29303599 -8.33974243 12.89034429 -14 10 C-13.34 9.67 -12.68 9.34 -12 9 C-11.01 9.33 -10.02 9.66 -9 10 C-8.67 9.34 -8.34 8.68 -8 8 C-5.69 8.66 -3.38 9.32 -1 10 C-0.67 6.7 -0.34 3.4 0 0 Z " fill="#D6EABC" transform="translate(41,25)"/>
<path d="M0 0 C0.66 0 1.32 0 2 0 C2 5.28 2 10.56 2 16 C2.66 16 3.32 16 4 16 C2.84826645 18.46800047 1.95216435 20.04783565 0 22 C0 14.74 0 7.48 0 0 Z " fill="#85C734" transform="translate(81,59)"/>
<path d="M0 0 C0.66 0 1.32 0 2 0 C2 2.31 2 4.62 2 7 C-1.96 7 -5.92 7 -10 7 C-10 6.34 -10 5.68 -10 5 C-6.7 5 -3.4 5 0 5 C0 3.35 0 1.7 0 0 Z " fill="#9AD054" transform="translate(72,56)"/>
</svg>
