<?xml version="1.0" encoding="UTF-8"?>
<svg version="1.1" xmlns="http://www.w3.org/2000/svg" width="674" height="182">
<path d="M0 0 C15.55336519 10.78596753 25.80712468 27.17403738 29.5625 45.6953125 C32.80399615 66.48559817 29.06924752 86.64061558 16.81640625 104.015625 C10.60974306 112.00378968 3.57142232 118.87357538 -5.18359375 124.015625 C-6.48103516 124.81226563 -6.48103516 124.81226563 -7.8046875 125.625 C-25.19531585 135.36954071 -46.25173277 136.22352447 -65.18359375 131.015625 C-74.66963792 127.83710707 -82.38499697 123.21484854 -90.18359375 117.015625 C-91.32441406 116.21705078 -91.32441406 116.21705078 -92.48828125 115.40234375 C-93.04773438 114.94472656 -93.6071875 114.48710937 -94.18359375 114.015625 C-94.18359375 113.355625 -94.18359375 112.695625 -94.18359375 112.015625 C-95.66859375 111.520625 -95.66859375 111.520625 -97.18359375 111.015625 C-113.1126658 92.68105773 -117.7912564 71.83041296 -116.18359375 48.015625 C-114.44068115 34.42621507 -106.84215535 19.65427204 -97.18359375 10.015625 C-94.9453125 8.75 -94.9453125 8.75 -93.18359375 8.015625 C-92.31734375 9.005625 -91.45109375 9.995625 -90.55859375 11.015625 C-80.47787705 21.07589399 -67.12652855 25.89119477 -53.18359375 27.015625 C-50.11636967 17.81395276 -53.10847222 5.64914605 -56.24609375 -3.15234375 C-57.21810031 -6.08861356 -57.74869101 -8.92646512 -58.18359375 -11.984375 C-37.92588074 -17.83425856 -17.09176575 -10.65351779 0 0 Z " fill="#80BA28" transform="translate(118.18359375,31.984375)"/>
<path d="M0 0 C2.85566912 1.71585269 5.19790398 3.71005464 7.375 6.25 C7.705 3.94 8.035 1.63 8.375 -0.75 C12.335 -0.75 16.295 -0.75 20.375 -0.75 C20.31174204 7.38755936 20.23604826 15.52472488 20.13928509 23.66194534 C20.0948194 27.44160015 20.05551323 31.22115305 20.02856445 35.00097656 C20.00229088 38.65814136 19.96172543 42.31490883 19.91181374 45.97182465 C19.89530566 47.35739903 19.88369255 48.74304188 19.87738609 50.12870026 C19.81804949 61.9828871 19.30192076 73.74892271 10.9140625 82.83203125 C3.25299706 90.22334087 -5.8479565 90.68026426 -15.99560547 90.6081543 C-23.52839767 90.39657682 -30.1298281 89.7451719 -35.625 84.25 C-34.635 81.61 -33.645 78.97 -32.625 76.25 C-31.94953125 76.45496094 -31.2740625 76.65992188 -30.578125 76.87109375 C-29.68609375 77.14050781 -28.7940625 77.40992188 -27.875 77.6875 C-26.99328125 77.95433594 -26.1115625 78.22117187 -25.203125 78.49609375 C-16.98983795 80.89785799 -9.38126529 81.48376926 -1.625 77.25 C2.42409895 73.99311606 4.33752489 71.34305962 5.375 66.25 C5.5221508 62.57630412 5.49267629 58.92411531 5.375 55.25 C4.1375 56.3946875 4.1375 56.3946875 2.875 57.5625 C-2.55121602 62.03563358 -8.31770207 63.82099854 -15.33203125 63.53125 C-22.74197068 62.62236475 -28.69457747 59.93043693 -33.625 54.25 C-40.09729914 44.67031055 -41.56615021 35.71596417 -40.625 24.25 C-38.38237645 14.08883452 -34.72104272 7.22691807 -25.94140625 1.546875 C-18.20968091 -2.78184812 -8.20410153 -3.92437249 0 0 Z M-23.42578125 13.56640625 C-28.16959006 21.16329339 -30.08345981 28.74055068 -28.09375 37.62109375 C-26.28908617 43.43721143 -24.10566511 48.43487919 -19.0625 52.125 C-12.91920367 54.13553334 -7.05093469 54.44091339 -1.1875 51.5625 C2.88251982 47.88955528 6.07850726 44.68293561 6.56787109 39.0168457 C6.65549939 36.19866672 6.70954106 33.3817526 6.75 30.5625 C6.78738281 29.59376953 6.82476562 28.62503906 6.86328125 27.62695312 C6.94473541 20.93413613 5.85965743 16.34914362 1.375 11.25 C-2.43184125 7.97274537 -6.50288338 6.5487873 -11.58203125 6.8828125 C-16.65175792 7.7940062 -20.21990464 9.44257799 -23.42578125 13.56640625 Z " fill="#5A7634" transform="translate(421.625,78.75)"/>
<path d="M0 0 C8.42865674 4.42234824 13.32845296 10.62843155 16.875 19.3125 C19.74140327 28.76344107 19.44722013 41.41911005 15.0625 50.3125 C10.6492973 57.40555446 5.50203506 62.58601414 -2.3125 65.625 C-9.9580362 67.07501549 -16.84508435 66.78105364 -23.9375 63.3125 C-25.5875 61.9925 -27.2375 60.6725 -28.9375 59.3125 C-29.2675 70.2025 -29.5975 81.0925 -29.9375 92.3125 C-34.2275 92.3125 -38.5175 92.3125 -42.9375 92.3125 C-42.9375 61.9525 -42.9375 31.5925 -42.9375 0.3125 C-38.9775 0.3125 -35.0175 0.3125 -30.9375 0.3125 C-30.6075 2.2925 -30.2775 4.2725 -29.9375 6.3125 C-29.49019531 5.90257813 -29.04289063 5.49265625 -28.58203125 5.0703125 C-27.97746094 4.53148438 -27.37289062 3.99265625 -26.75 3.4375 C-26.15832031 2.90382813 -25.56664062 2.37015625 -24.95703125 1.8203125 C-17.98030533 -3.38861633 -7.84007132 -3.28777184 0 0 Z M-26.25 15.6875 C-31.19147522 23.37423924 -31.13894878 33.11752974 -29.4375 41.890625 C-27.49948269 47.6606311 -23.8788297 51.0182802 -18.9375 54.3125 C-13.81751446 55.00373824 -9.30315455 54.91945758 -4.5625 52.8125 C0.54892887 47.94447251 3.73912949 42.66556454 4.265625 35.578125 C4.41467114 25.98948997 2.98962959 20.01560859 -3.33984375 12.7578125 C-6.85612831 9.57682157 -10.09946768 8.86346278 -14.84765625 8.99609375 C-19.59862804 9.71539976 -22.92772797 12.27543684 -26.25 15.6875 Z " fill="#5B7735" transform="translate(264.9375,77.6875)"/>
<path d="M0 0 C8.24691407 5.2582888 13.29770026 13.82444814 15.59765625 23.14453125 C17.40049624 33.84684501 15.68696209 44.04091584 10.28515625 53.45703125 C5.37032024 60.26647524 -0.58499686 63.6103946 -8.71484375 65.45703125 C-14.79764939 66.31058624 -20.30118211 65.40593637 -25.71484375 62.45703125 C-27.36484375 61.13703125 -29.01484375 59.81703125 -30.71484375 58.45703125 C-31.04484375 69.34703125 -31.37484375 80.23703125 -31.71484375 91.45703125 C-36.00484375 91.45703125 -40.29484375 91.45703125 -44.71484375 91.45703125 C-44.71484375 61.09703125 -44.71484375 30.73703125 -44.71484375 -0.54296875 C-41.08484375 -0.54296875 -37.45484375 -0.54296875 -33.71484375 -0.54296875 C-33.38484375 1.43703125 -33.05484375 3.41703125 -32.71484375 5.45703125 C-32.26753906 5.04710938 -31.82023438 4.6371875 -31.359375 4.21484375 C-30.75480469 3.67601563 -30.15023437 3.1371875 -29.52734375 2.58203125 C-28.63982422 1.78152344 -28.63982422 1.78152344 -27.734375 0.96484375 C-19.94019174 -4.85441106 -8.49360321 -3.90843855 0 0 Z M-26.71484375 12.45703125 C-32.21563612 18.97112748 -33.19971662 26.10550616 -33.0234375 34.390625 C-32.37305373 40.85329917 -30.21566727 46.3870734 -25.65234375 51.08203125 C-21.77704305 54.01559221 -18.11943207 54.19959843 -13.3671875 53.90625 C-8.71849889 53.11891688 -5.39383317 51.67001119 -2.4375 47.7734375 C2.14336381 40.19300451 2.05285704 32.05004579 1.28515625 23.45703125 C-0.26241009 18.22065377 -2.47963257 14.60802348 -6.46484375 10.89453125 C-13.86085711 7.62321765 -20.08680185 7.46721286 -26.71484375 12.45703125 Z " fill="#5C7738" transform="translate(197.71484375,78.54296875)"/>
<path d="M0 0 C7.46332864 -0.32562516 15.26846216 1.06078854 20.98828125 6.15234375 C20.98828125 6.81234375 20.98828125 7.47234375 20.98828125 8.15234375 C21.97828125 8.15234375 22.96828125 8.15234375 23.98828125 8.15234375 C24.64456974 9.35503056 25.2877563 10.56486929 25.92578125 11.77734375 C26.28542969 12.45023438 26.64507812 13.123125 27.015625 13.81640625 C29.37288182 19.47760937 29.16137281 25.53616128 29.19140625 31.56640625 C29.19710632 32.45846771 29.2028064 33.35052917 29.2086792 34.2696228 C29.21808868 36.14718452 29.22464698 38.02476244 29.22851562 39.90234375 C29.23827339 42.77502841 29.2693554 45.64701259 29.30078125 48.51953125 C29.30730718 50.34765202 29.31255926 52.17577788 29.31640625 54.00390625 C29.32875305 54.86126373 29.34109985 55.71862122 29.3538208 56.60195923 C29.33163641 62.52437395 29.33163641 62.52437395 27.59545898 65.69970703 C25.98828125 67.15234375 25.98828125 67.15234375 23.9453125 67.54296875 C21.95963542 67.41276042 19.97395833 67.28255208 17.98828125 67.15234375 C17.98828125 64.18234375 17.98828125 61.21234375 17.98828125 58.15234375 C17.32828125 58.15234375 16.66828125 58.15234375 15.98828125 58.15234375 C15.80265625 58.87421875 15.61703125 59.59609375 15.42578125 60.33984375 C13.0366654 65.01420085 8.89646373 67.51628292 3.98828125 69.15234375 C-3.74698546 69.99872335 -9.93497341 69.92417371 -16.19921875 64.97265625 C-21.0178561 60.13324892 -22.22869199 55.74336004 -22.38671875 48.96484375 C-22.33321532 44.8825322 -21.71059974 41.86949535 -20.01171875 38.15234375 C-19.35171875 38.15234375 -18.69171875 38.15234375 -18.01171875 38.15234375 C-17.68171875 36.83234375 -17.35171875 35.51234375 -17.01171875 34.15234375 C-16.35171875 34.15234375 -15.69171875 34.15234375 -15.01171875 34.15234375 C-15.01171875 33.49234375 -15.01171875 32.83234375 -15.01171875 32.15234375 C-8.24427159 28.46148299 -2.7192282 27.59808309 4.92578125 27.83984375 C6.34213867 27.8543457 6.34213867 27.8543457 7.78710938 27.86914062 C14.64778116 27.9820937 14.64778116 27.9820937 16.98828125 29.15234375 C16.78824951 21.24169323 16.78824951 21.24169323 13.4609375 14.3984375 C8.12250961 11.43992225 1.92336527 11.37281033 -4.01171875 12.15234375 C-6.45731873 12.98258433 -8.66733052 14.05191662 -11.01171875 15.15234375 C-13.19921875 15.15234375 -13.19921875 15.15234375 -15.01171875 14.15234375 C-17.32421875 11.77734375 -17.32421875 11.77734375 -19.01171875 9.15234375 C-18.01171875 6.15234375 -18.01171875 6.15234375 -15.9375 4.80078125 C-10.49676709 2.14954219 -6.05963241 0.45888478 0 0 Z " fill="#54712B" transform="translate(105.01171875,73.84765625)"/>
<path d="M0 0 C6.77629249 5.42103399 10.07671925 12.18828373 11.7578125 20.59375 C11.7578125 24.55375 11.7578125 28.51375 11.7578125 32.59375 C-2.4321875 32.59375 -16.6221875 32.59375 -31.2421875 32.59375 C-29.5169948 42.60516012 -29.5169948 42.60516012 -24.2421875 49.59375 C-19.32016868 52.33872204 -14.82655616 53.4036966 -9.2421875 52.59375 C-6.47705072 51.79493271 -3.87695965 50.74540947 -1.2421875 49.59375 C-0.2521875 49.201875 0.7378125 48.81 1.7578125 48.40625 C2.4178125 48.138125 3.0778125 47.87 3.7578125 47.59375 C5.4078125 49.57375 7.0578125 51.55375 8.7578125 53.59375 C7.00555815 58.05403381 4.17391221 60.38570015 -0.078125 62.51171875 C-7.89661339 65.60714259 -17.590743 66.12840025 -25.6171875 63.46875 C-35.47948377 58.89584767 -40.90122745 51.97818651 -44.6171875 41.84375 C-46.91258507 29.96028548 -45.60715468 17.03098971 -39.0546875 6.65625 C-29.54207829 -5.07402271 -12.84348022 -8.05514439 0 0 Z M-27.68359375 12.18359375 C-29.97282309 15.41707421 -29.97282309 15.41707421 -31.2421875 23.59375 C-21.3421875 23.59375 -11.4421875 23.59375 -1.2421875 23.59375 C-1.70135676 16.41361507 -1.70135676 16.41361507 -5.1796875 11.65625 C-5.70433594 11.09035156 -6.22898437 10.52445313 -6.76953125 9.94140625 C-10.1705463 6.82907152 -13.92107317 7.07664747 -18.33984375 7.12890625 C-22.43022221 7.78402743 -24.62782485 9.49629594 -27.68359375 12.18359375 Z " fill="#5B7735" transform="translate(533.2421875,79.40625)"/>
<path d="M0 0 C5.62699144 5.36500601 9.19212828 13.23917634 9.6875 21 C9.6875 24.3 9.6875 27.6 9.6875 31 C-4.5025 31 -18.6925 31 -33.3125 31 C-31.48262455 41.37347106 -31.48262455 41.37347106 -25.25 48.8125 C-20.81225653 51.53240729 -16.35190085 51.47295348 -11.3125 51 C-7.04026406 49.84574678 -3.26476629 47.97613314 0.6875 46 C2.6675 48.31 4.6475 50.62 6.6875 53 C3.17594914 58.26732628 -1.24097789 60.69469249 -7.15234375 62.58984375 C-16.43299782 64.35199326 -25.99094337 63.55994241 -34.3125 59 C-41.21766205 54.06025409 -45.52554837 46.22648592 -47.3125 38 C-48.09198124 25.22161906 -48.07779612 13.40993055 -39.625 3 C-29.20574539 -7.73027713 -11.91336972 -9.37334939 0 0 Z M-29.3125 10 C-31.99578664 14.10483974 -33.3125 17.0399578 -33.3125 22 C-23.4125 22 -13.5125 22 -3.3125 22 C-5.11214454 13.1569441 -5.11214454 13.1569441 -10.3125 7 C-16.45725991 3.92762005 -24.54369257 5.34750494 -29.3125 10 Z " fill="#5A7634" transform="translate(599.3125,81)"/>
<path d="M0 0 C7.543039 4.02388883 11.79369041 10.48836009 14.4140625 18.47265625 C15.55066744 23.77909496 15.56546633 29.10754132 15.0625 34.5 C14.0625 35.5 14.0625 35.5 10.09350586 35.61352539 C8.32144393 35.6133662 6.5493774 35.60766785 4.77734375 35.59765625 C3.84652481 35.5962413 2.91570587 35.59482635 1.9566803 35.59336853 C-1.02891191 35.58775172 -4.01443029 35.5751964 -7 35.5625 C-9.01887913 35.55748716 -11.03775943 35.55292388 -13.05664062 35.54882812 C-18.01695572 35.53777683 -22.97721532 35.52050095 -27.9375 35.5 C-27.45724648 37.10423111 -26.9767266 38.70838249 -26.49609375 40.3125 C-26.22853271 41.20582031 -25.96097168 42.09914062 -25.68530273 43.01953125 C-24.45665041 48.05855324 -24.45665041 48.05855324 -21.125 51.6875 C-20.403125 51.955625 -19.68125 52.22375 -18.9375 52.5 C-18.174375 52.87125 -17.41125 53.2425 -16.625 53.625 C-8.27835674 56.34251176 -0.60689415 52.71619755 7.0625 49.5 C8.7125 51.48 10.3625 53.46 12.0625 55.5 C10.01248367 60.3909019 6.63332635 62.13087206 2.0625 64.5 C-6.06061976 67.71859462 -14.83008132 67.52527124 -22.9453125 64.40625 C-30.68776277 60.88419419 -35.93537198 55.44062488 -39.3125 47.6875 C-42.68002315 37.42928872 -42.55498487 24.74120256 -38.19140625 14.828125 C-30.64415462 0.81515935 -15.6544716 -6.13741805 0 0 Z M-22.9375 13.5 C-25.73693718 17.52986826 -26.9375 20.56245738 -26.9375 25.5 C-17.3675 25.5 -7.7975 25.5 2.0625 25.5 C1.60505602 18.35385574 1.60505602 18.35385574 -1.8125 13.5625 C-2.32554687 12.99660156 -2.83859375 12.43070313 -3.3671875 11.84765625 C-6.43335672 9.21624237 -9.8994435 9.15134445 -13.8125 9.23046875 C-17.49486782 9.69753379 -20.19707005 11.00239296 -22.9375 13.5 Z " fill="#5E7A39" transform="translate(355.9375,77.5)"/>
<path d="M0 0 C5.09228439 4.93890233 8.00785783 11.47185282 8.16650391 18.52587891 C8.18967682 19.46339996 8.21284973 20.40092102 8.23672485 21.36685181 C8.2565744 22.37629852 8.27642395 23.38574524 8.296875 24.42578125 C8.32002777 25.46237885 8.34318054 26.49897644 8.36703491 27.56698608 C8.41465162 29.75749884 8.45988843 31.94806444 8.50292969 34.13867188 C8.57018644 37.50540846 8.64788329 40.87179444 8.7265625 44.23828125 C8.77146237 46.36326805 8.81575411 48.48826781 8.859375 50.61328125 C8.88327301 51.62677643 8.90717102 52.64027161 8.93179321 53.68447876 C8.9486618 54.6156955 8.9655304 55.54691223 8.98291016 56.50634766 C8.99987946 57.33002838 9.01684875 58.15370911 9.03433228 59.00234985 C8.9453125 60.88671875 8.9453125 60.88671875 7.9453125 61.88671875 C5.94731678 61.98545691 3.94574092 62.01643674 1.9453125 62.01171875 C0.8521875 62.01429688 -0.2409375 62.016875 -1.3671875 62.01953125 C-4.0546875 61.88671875 -4.0546875 61.88671875 -5.0546875 60.88671875 C-5.16109492 59.53742893 -5.200855 58.1827755 -5.21240234 56.8293457 C-5.22266449 55.9678743 -5.23292664 55.10640289 -5.24349976 54.21882629 C-5.25080109 53.28036362 -5.25810242 52.34190094 -5.265625 51.375 C-5.29370597 49.40038251 -5.3223705 47.42577325 -5.3515625 45.45117188 C-5.39275629 42.32853532 -5.42962969 39.20605033 -5.45605469 36.08325195 C-5.48372944 33.07600819 -5.52961713 30.06947037 -5.578125 27.0625 C-5.58137787 26.13415848 -5.58463074 25.20581696 -5.58798218 24.24934387 C-5.68604009 19.05695396 -6.15422447 15.37611956 -9.0546875 10.88671875 C-12.68559483 7.68297699 -16.1642424 7.36787624 -20.83984375 7.53125 C-25.12442903 8.21889949 -27.88637067 10.56761026 -30.69172668 13.73504639 C-32.27522382 16.23487395 -32.44673354 17.62767012 -32.48706055 20.56347656 C-32.50685471 21.48412903 -32.52664886 22.40478149 -32.54704285 23.35333252 C-32.55662773 24.83165558 -32.55662773 24.83165558 -32.56640625 26.33984375 C-32.58435745 27.35520203 -32.60230865 28.3705603 -32.62080383 29.41668701 C-32.67494457 32.65665547 -32.70881512 35.89647628 -32.7421875 39.13671875 C-32.77535719 41.33465598 -32.80984652 43.53257371 -32.84570312 45.73046875 C-32.93067347 51.11577896 -32.99746709 56.50104508 -33.0546875 61.88671875 C-37.3446875 61.88671875 -41.6346875 61.88671875 -46.0546875 61.88671875 C-46.0546875 40.43671875 -46.0546875 18.98671875 -46.0546875 -3.11328125 C-42.4246875 -3.11328125 -38.7946875 -3.11328125 -35.0546875 -3.11328125 C-34.7246875 -0.47328125 -34.3946875 2.16671875 -34.0546875 4.88671875 C-33.28125 3.77296875 -33.28125 3.77296875 -32.4921875 2.63671875 C-23.93360891 -7.0191135 -10.15270139 -7.51445461 0 0 Z " fill="#5B7635" transform="translate(663.0546875,80.11328125)"/>
<path d="M0 0 C3.3 0 6.6 0 10 0 C10 2.31 10 4.62 10 7 C12.31 7 14.62 7 17 7 C17.33 7.99 17.66 8.98 18 10 C17.34 10 16.68 10 16 10 C16 10.99 16 11.98 16 13 C15.34 13 14.68 13 14 13 C13.12038186 18.34155209 12.78652666 23.52698811 12.75 28.9375 C12.729375 29.69740234 12.70875 30.45730469 12.6875 31.24023438 C12.64929522 36.83245837 13.80357349 40.85836521 16 46 C16.33 46.99 16.66 47.98 17 49 C18.91666667 50.16666667 18.91666667 50.16666667 21 51 C21.66 51.33 22.32 51.66 23 52 C25.48921201 52.07210927 27.94954144 52.09292659 30.4375 52.0625 C31.11876953 52.05798828 31.80003906 52.05347656 32.50195312 52.04882812 C34.33466462 52.03626301 36.16733768 52.01838792 38 52 C38.99 52 39.98 52 41 52 C40.375 54.375 40.375 54.375 39 57 C35.875 58.3125 35.875 58.3125 33 59 C33 58.01 33 57.02 33 56 C31.741875 55.95875 30.48375 55.9175 29.1875 55.875 C28.12595703 55.84019531 28.12595703 55.84019531 27.04296875 55.8046875 C24.68640281 55.86745538 24.68640281 55.86745538 22 58 C20.0103005 58.39013716 18.00980131 58.73202649 16 59 C16 58.01 16 57.02 16 56 C14.35 56 12.7 56 11 56 C11 67.55 11 79.1 11 91 C7.37 91 3.74 91 0 91 C0 60.97 0 30.94 0 0 Z " fill="#55722D" transform="translate(223,79)"/>
<path d="M0 0 C14.34560808 2.39093468 25.81425756 9.965402 34.875 21.3125 C40.78207916 30.42014205 44.20992554 42.16020841 44 53 C30.38333309 50.7263914 17.47878033 42.54647617 9.1640625 31.578125 C2.98733741 21.73298957 -0.19595158 11.56114336 0 0 Z " fill="#5A7634" transform="translate(19,3)"/>
<path d="M0 0 C2.475 1.485 2.475 1.485 5 3 C3.68 6.63 2.36 10.26 1 14 C-0.010625 13.773125 -1.02125 13.54625 -2.0625 13.3125 C-6.75302583 12.94023605 -8.95599437 13.63463822 -13 16 C-17.53716186 21.19393698 -17.6007093 25.64113265 -17.609375 32.2109375 C-17.62591125 33.17907379 -17.64244751 34.14721008 -17.65948486 35.14468384 C-17.70787345 38.22152102 -17.7293158 41.29786426 -17.75 44.375 C-17.77816728 46.46747264 -17.80809576 48.55992237 -17.83984375 50.65234375 C-17.91363022 55.76818849 -17.96326088 60.8837605 -18 66 C-20.14576637 66.02685938 -22.29162645 66.04633088 -24.4375 66.0625 C-25.63246094 66.07410156 -26.82742188 66.08570313 -28.05859375 66.09765625 C-31 66 -31 66 -32 65 C-32.09925773 63.04175302 -32.12799414 61.07990103 -32.12939453 59.11914062 C-32.13254669 57.86113647 -32.13569885 56.60313232 -32.13894653 55.30700684 C-32.13715675 53.92342087 -32.1351058 52.53983522 -32.1328125 51.15625 C-32.13348559 49.74759911 -32.13445565 48.33894834 -32.13571167 46.93029785 C-32.13718842 43.97451677 -32.13503483 41.01876586 -32.13037109 38.06298828 C-32.12467381 34.26625416 -32.12795293 30.46959072 -32.13394356 26.67285919 C-32.13754979 23.76303572 -32.1364103 20.85322912 -32.13381577 17.94340515 C-32.13314667 16.543106 -32.13397432 15.14280533 -32.13629532 13.74250793 C-32.13882283 11.78862536 -32.13429033 9.83473745 -32.12939453 7.88085938 C-32.12859894 6.76690796 -32.12780334 5.65295654 -32.12698364 4.50524902 C-32 2 -32 2 -31 1 C-29.14712498 0.92773498 -27.29166122 0.9161878 -25.4375 0.9375 C-24.42558594 0.94652344 -23.41367187 0.95554687 -22.37109375 0.96484375 C-21.19740234 0.98224609 -21.19740234 0.98224609 -20 1 C-19.67 3.97 -19.34 6.94 -19 10 C-18.071875 8.515 -18.071875 8.515 -17.125 7 C-16.42375 6.01 -15.7225 5.02 -15 4 C-14.34 4 -13.68 4 -13 4 C-13 3.34 -13 2.68 -13 2 C-8.22262755 -0.91303198 -5.43251813 -1.3828228 0 0 Z " fill="#6F874E" transform="translate(482,76)"/>
<path d="M0 0 C3.96 0 7.92 0 12 0 C12 30.69 12 61.38 12 93 C8.04 93 4.08 93 0 93 C0 62.31 0 31.62 0 0 Z " fill="#55712D" transform="translate(293,49)"/>
<path d="M0 0 C2.97 0 5.94 0 9 0 C9.33 2.97 9.66 5.94 10 9 C8.68 9 7.36 9 6 9 C6 11.97 6 14.94 6 18 C7.32 18 8.64 18 10 18 C9.67 19.65 9.34 21.3 9 23 C9.66 23 10.32 23 11 23 C11 30.59 11 38.18 11 46 C9.68 46 8.36 46 7 46 C7 46.66 7 47.32 7 48 C8.65 48.33 10.3 48.66 12 49 C11.01 49.495 11.01 49.495 10 50 C10.33 50.66 10.66 51.32 11 52 C11.08698228 54.91699274 11.11551923 57.80982548 11.09765625 60.7265625 C11.0962413 61.58937836 11.09482635 62.45219421 11.09336853 63.34115601 C11.08776188 66.1024723 11.07520827 68.86370812 11.0625 71.625 C11.05748586 73.4947905 11.0529228 75.36458226 11.04882812 77.234375 C11.03779029 81.82294777 11.0205212 86.41146023 11 91 C9.35425434 91.02688151 7.70838587 91.04634123 6.0625 91.0625 C5.14597656 91.07410156 4.22945312 91.08570313 3.28515625 91.09765625 C1 91 1 91 0 90 C-0.09519368 87.2001028 -0.12553944 84.42493826 -0.11352539 81.62475586 C-0.11367142 80.74678848 -0.11381744 79.86882111 -0.1139679 78.96424866 C-0.11326844 76.04775565 -0.10547455 73.13132567 -0.09765625 70.21484375 C-0.09579218 68.19845108 -0.09436823 66.18205796 -0.09336853 64.16566467 C-0.08954244 58.84734862 -0.07971139 53.5290597 -0.06866455 48.21075439 C-0.05845238 42.78829312 -0.05387133 37.36582748 -0.04882812 31.94335938 C-0.0380892 21.29556097 -0.02101169 10.64778274 0 0 Z M7 22 C7 22.66 7 23.32 7 24 C7.66 23.67 8.32 23.34 9 23 C8.34 22.67 7.68 22.34 7 22 Z M11 51 C13 52 13 52 13 52 Z " fill="#53712B" transform="translate(154,79)"/>
<path d="M0 0 C0.33 2.64 0.66 5.28 1 8 C0.43410156 8.32871094 -0.13179687 8.65742187 -0.71484375 8.99609375 C-5.1698031 11.83652359 -5.1698031 11.83652359 -7.859375 16.2265625 C-8.40596694 20.11777654 -8.30992014 22.36668493 -6.5625 25.9375 C-6.046875 26.618125 -5.53125 27.29875 -5 28 C-5 28.66 -5 29.32 -5 30 C-4.14535156 30.04898438 -3.29070312 30.09796875 -2.41015625 30.1484375 C-1.30542969 30.22320312 -0.20070313 30.29796875 0.9375 30.375 C2.59072266 30.47941406 2.59072266 30.47941406 4.27734375 30.5859375 C5.17582031 30.72257812 6.07429688 30.85921875 7 31 C7.33 31.66 7.66 32.32 8 33 C7.01 33.495 7.01 33.495 6 34 C9.20031442 33.18168052 9.20031442 33.18168052 11.5625 30.4375 C12.366875 29.633125 13.17125 28.82875 14 28 C14.66 28 15.32 28 16 28 C16.66 27.34 17.32 26.68 18 26 C18 26.99 18 27.98 18 29 C18.66 29 19.32 29 20 29 C20.33 28.34 20.66 27.68 21 27 C21 28.32 21 29.64 21 31 C21.66 31 22.32 31 23 31 C23 29.35 23 27.7 23 26 C24.65 26 26.3 26 28 26 C30.48090108 32.42115573 30.48090108 32.42115573 29 36 C28.34 36.99 27.68 37.98 27 39 C25.0546875 39.29296875 25.0546875 39.29296875 22.875 39.1875 C21.59625 39.125625 20.3175 39.06375 19 39 C19 36.03 19 33.06 19 30 C18.34 30 17.68 30 17 30 C16.7215625 31.0828125 16.7215625 31.0828125 16.4375 32.1875 C14.04838415 36.8618571 9.90818248 39.36393917 5 41 C-2.73526671 41.8463796 -8.92325466 41.77182996 -15.1875 36.8203125 C-20.00613735 31.98090517 -21.21697324 27.59101629 -21.375 20.8125 C-21.32149657 16.73018845 -20.69888099 13.7171516 -19 10 C-18.34 10 -17.68 10 -17 10 C-16.67 8.68 -16.34 7.36 -16 6 C-15.34 6 -14.68 6 -14 6 C-14 5.34 -14 4.68 -14 4 C-4.58997722 -0.59225513 -4.58997722 -0.59225513 0 0 Z " fill="#55722C" transform="translate(104,102)"/>
<path d="M0 0 C0.28101563 0.57621094 0.56203125 1.15242188 0.8515625 1.74609375 C1.9529492 3.9076588 3.11937464 5.98711923 4.375 8.0625 C4.77460938 8.73410156 5.17421875 9.40570313 5.5859375 10.09765625 C7.88425399 13.18959031 9.7559182 14.81088473 13.62109375 15.3984375 C20.77985591 15.34534625 20.77985591 15.34534625 27 12 C29.55454058 11.17353099 31.27647055 11 34 11 C34.474375 11.515625 34.94875 12.03125 35.4375 12.5625 C36.2109375 13.2740625 36.2109375 13.2740625 37 14 C39.16299211 13.77242269 39.16299211 13.77242269 41 13 C41.495 13.99 41.495 13.99 42 15 C41.34 15 40.68 15 40 15 C39.95875 15.721875 39.9175 16.44375 39.875 17.1875 C38.66067971 21.09067235 36.38059414 22.93762496 33 25 C25.75391276 28.41232251 18.3950152 29.360493 10.75 26.75 C7.07442018 25.33631545 5.34650629 23.67720503 2 21 C1.67 31.89 1.34 42.78 1 54 C0.67 54 0.34 54 0 54 C-0.01458252 52.76846191 -0.02916504 51.53692383 -0.04418945 50.26806641 C-0.10205652 45.70933642 -0.17928932 41.15110643 -0.26245117 36.59277344 C-0.29575528 34.61792094 -0.32376997 32.642972 -0.34643555 30.66796875 C-0.37988122 27.83291423 -0.43219046 24.998748 -0.48828125 22.1640625 C-0.49467117 21.27756012 -0.5010611 20.39105774 -0.50764465 19.47769165 C-0.52743881 18.65699188 -0.54723297 17.83629211 -0.56762695 16.99072266 C-0.57873001 16.26680328 -0.58983307 15.54288391 -0.60127258 14.79702759 C-0.87490507 12.58351797 -0.87490507 12.58351797 -4 11 C-4 10.34 -4 9.68 -4 9 C-2.68 9 -1.36 9 0 9 C-0.185625 8.443125 -0.37125 7.88625 -0.5625 7.3125 C-1.07551165 4.600867 -0.6640724 2.65628961 0 0 Z " fill="#587331" transform="translate(165,116)"/>
<path d="M0 0 C-0.3298698 8.19726451 -1.64545432 13.15213878 -7.125 19.4375 C-11.33411394 21.72506193 -15.30320871 21.48560046 -20 21 C-23.54854426 19.81715191 -24.53151863 18.35341839 -26.2578125 15.1015625 C-27.61417072 11.26092711 -27.36304321 7.81081192 -26 4 C-19.90531107 -3.86531721 -8.45840166 -3.56143228 0 0 Z " fill="#80B729" transform="translate(122,112)"/>
<path d="M0 0 C1.98 0 3.96 0 6 0 C5.01 0.33 4.02 0.66 3 1 C3 19.81 3 38.62 3 58 C4.43356065 56.79690655 4.43356065 56.79690655 4.08178711 53.27807617 C4.0680119 51.6163317 4.0495098 49.95462248 4.02734375 48.29296875 C4.01469324 46.49153841 4.0023326 44.69010601 3.99023438 42.88867188 C3.96543259 40.03794016 3.93749782 37.18731384 3.90405273 34.33666992 C3.87383375 31.59292935 3.85606582 28.84932278 3.83984375 26.10546875 C3.82638412 25.25429977 3.8129245 24.4031308 3.79905701 23.52616882 C3.79567825 22.72886856 3.7922995 21.9315683 3.78881836 21.11010742 C3.77763222 20.06206184 3.77763222 20.06206184 3.76622009 18.99284363 C4.04868686 16.58497158 4.71138948 15.04996553 6 13 C9 11 9 11 12 11 C12 12.65 12 14.3 12 16 C11.01 16.33 10.02 16.66 9 17 C9 31.85 9 46.7 9 62 C5.37 62 1.74 62 -2 62 C-2 41.87 -2 21.74 -2 1 C-1.67 1 -1.34 1 -1 1 C-1 19.48 -1 37.96 -1 57 C-0.34 57 0.32 57 1 57 C0.67 38.19 0.34 19.38 0 0 Z " fill="#54712A" transform="translate(620,79)"/>
<path d="M0 0 C-3.6441774 2.4294516 -5.71241272 2.16179575 -10 2 C-10 2.99 -10 3.98 -10 5 C-4.72 5.66 0.56 6.32 6 7 C6.66 9.64 7.32 12.28 8 15 C8.66 15 9.32 15 10 15 C10 16.65 10 18.3 10 20 C9.236875 19.21625 8.47375 18.4325 7.6875 17.625 C3.99641382 14.01975303 1.84877418 12.67090863 -3.25 12.5 C-8.37068013 12.59495301 -11.09530095 13.64838851 -14.6953125 17.265625 C-16.51471365 19.68423012 -17.36965986 22.05841267 -18 25 C-18.99 24.01 -19.98 23.02 -21 22 C-21.66 22.66 -22.32 23.32 -23 24 C-24.65 22.68 -26.3 21.36 -28 20 C-28.33 20.99 -28.66 21.98 -29 23 C-29.96873032 24.35622245 -30.96434215 25.69417053 -32 27 C-31.30489435 18.65873222 -28.35519949 12.58017516 -22 7 C-21.278125 6.29875 -20.55625 5.5975 -19.8125 4.875 C-13.81835148 0.87890099 -7.11660869 -0.46412665 0 0 Z " fill="#617B3D" transform="translate(521,75)"/>
<path d="M0 0 C3.63 0 7.26 0 11 0 C11 1.32 11 2.64 11 4 C10.34 4 9.68 4 9 4 C9.3403125 5.051875 9.3403125 5.051875 9.6875 6.125 C10.09532639 9.87700275 8.86377293 11.79431057 7 15 C7.66 15 8.32 15 9 15 C8.83734146 15.57300842 8.67468292 16.14601685 8.50709534 16.73638916 C8.00324735 18.98550423 7.87937612 20.91786367 7.88647461 23.21777344 C7.88655014 24.03832214 7.88662567 24.85887085 7.88670349 25.70428467 C7.89186478 26.58046448 7.89702606 27.45664429 7.90234375 28.359375 C7.9037587 29.26375305 7.90517365 30.1681311 7.90663147 31.09991455 C7.91222089 33.98331027 7.92477147 36.86662782 7.9375 39.75 C7.94251637 41.70703013 7.94707904 43.66406147 7.95117188 45.62109375 C7.96218687 50.41409253 7.97944426 55.20703302 8 60 C7.34 60 6.68 60 6 60 C6 41.19 6 22.38 6 3 C5.34 3 4.68 3 4 3 C4 21.48 4 39.96 4 59 C3.34 59 2.68 59 2 59 C1.505 61.475 1.505 61.475 1 64 C4.63 64 8.26 64 12 64 C12 49.15 12 34.3 12 19 C12.33 19 12.66 19 13 19 C13 34.18 13 49.36 13 65 C8.71 65 4.42 65 0 65 C0 43.55 0 22.1 0 0 Z M9 14 C11 15 11 15 11 15 Z " fill="#657D44" transform="translate(617,77)"/>
<path d="M0 0 C1.74216797 0.02707031 1.74216797 0.02707031 3.51953125 0.0546875 C4.84017578 0.08949219 4.84017578 0.08949219 6.1875 0.125 C6.1875 1.115 6.1875 2.105 6.1875 3.125 C2.98369983 5.26086678 2.16810033 5.35632175 -1.5 5.25 C-2.30824219 5.23195313 -3.11648437 5.21390625 -3.94921875 5.1953125 C-4.87154297 5.16050781 -4.87154297 5.16050781 -5.8125 5.125 C-5.4825 6.445 -5.1525 7.765 -4.8125 9.125 C-3.513125 9.24875 -2.21375 9.3725 -0.875 9.5 C1.33984375 9.7109375 1.33984375 9.7109375 3.1875 10.125 C3.6825 11.115 3.6825 11.115 4.1875 12.125 C3.22650391 12.05539063 3.22650391 12.05539063 2.24609375 11.984375 C-4.09959453 11.71957728 -7.75267425 12.17833591 -12.8125 16.125 C-14.45362166 18.3991953 -15.58856045 20.57920573 -16.8125 23.125 C-17.4725 23.125 -18.1325 23.125 -18.8125 23.125 C-17.9375 18.375 -17.9375 18.375 -16.8125 16.125 C-16.1525 16.125 -15.4925 16.125 -14.8125 16.125 C-14.8125 14.475 -14.8125 12.825 -14.8125 11.125 C-17.7825 10.63 -17.7825 10.63 -20.8125 10.125 C-20.8125 7.815 -20.8125 5.505 -20.8125 3.125 C-24.1125 3.125 -27.4125 3.125 -30.8125 3.125 C-30.8125 33.155 -30.8125 63.185 -30.8125 94.125 C-31.1425 94.125 -31.4725 94.125 -31.8125 94.125 C-31.8125 63.765 -31.8125 33.405 -31.8125 2.125 C-27.8525 2.125 -23.8925 2.125 -19.8125 2.125 C-19.4825 4.105 -19.1525 6.085 -18.8125 8.125 C-18.36519531 7.71507813 -17.91789063 7.30515625 -17.45703125 6.8828125 C-16.85246094 6.34398438 -16.24789062 5.80515625 -15.625 5.25 C-15.03332031 4.71632813 -14.44164062 4.18265625 -13.83203125 3.6328125 C-9.34955248 0.28612622 -5.51465065 -0.11140708 0 0 Z " fill="#889D6C" transform="translate(253.8125,75.875)"/>
<path d="M0 0 C1.12730211 6.51330106 1.12730211 6.51330106 0.54711914 8.73144531 C-0.27379942 12.13527185 -0.23823921 15.56268322 -0.31640625 19.046875 C-0.33718735 19.81807678 -0.35796844 20.58927856 -0.37937927 21.3838501 C-0.44458572 23.83914572 -0.50362484 26.29454521 -0.5625 28.75 C-0.60571274 30.41797935 -0.6493279 32.08594832 -0.69335938 33.75390625 C-0.80023736 37.83583196 -0.90158566 41.91786182 -1 46 C-1.99 46.495 -1.99 46.495 -3 47 C-4.65 46.34 -6.3 45.68 -8 45 C-8 30.81 -8 16.62 -8 2 C-5 6 -5 6 -4 9 C-3.01879536 5.94736336 -3.01879536 4.05263664 -4 1 C-2 0 -2 0 0 0 Z " fill="#537129" transform="translate(463,91)"/>
<path d="M0 0 C2.07601508 1.52180537 3.36284316 3.17512411 4.78515625 5.30859375 C3.03699598 9.39054799 0.90601807 11.14380942 -2.83984375 13.40234375 C-7.00129429 14.99026567 -10.94586501 14.19213238 -15.21484375 13.30859375 C-15.21484375 12.64859375 -15.21484375 11.98859375 -15.21484375 11.30859375 C-15.70984375 11.80359375 -16.20484375 12.29859375 -16.71484375 12.80859375 C-20.44130218 15.04446881 -22.89396132 14.72010636 -27.21484375 14.30859375 C-29.21484375 12.80859375 -29.21484375 12.80859375 -30.21484375 11.30859375 C-29.55484375 10.97859375 -28.89484375 10.64859375 -28.21484375 10.30859375 C-28.21484375 9.64859375 -28.21484375 8.98859375 -28.21484375 8.30859375 C-24.74417802 6.97372231 -21.71147177 6.23749925 -18.02734375 6.05859375 C-12.79165739 5.62376556 -9.05597279 3.17817552 -4.6953125 0.390625 C-2.21484375 -0.69140625 -2.21484375 -0.69140625 0 0 Z " fill="#53712A" transform="translate(363.21484375,127.69140625)"/>
<path d="M0 0 C2.475 1.485 2.475 1.485 5 3 C3.68 6.63 2.36 10.26 1 14 C-0.010625 13.773125 -1.02125 13.54625 -2.0625 13.3125 C-6.75302583 12.94023605 -8.95599437 13.63463822 -13 16 C-15.36702059 19.04797373 -15.36702059 19.04797373 -17 22 C-17.33 22 -17.66 22 -18 22 C-18.09978121 18.50765756 -17.77842938 15.40562852 -17 12 C-17.66 12 -18.32 12 -19 12 C-17.87548273 9.0280615 -16.77706209 6.66559313 -15 4 C-14.34 4 -13.68 4 -13 4 C-13 3.34 -13 2.68 -13 2 C-8.22262755 -0.91303198 -5.43251813 -1.3828228 0 0 Z " fill="#627C3E" transform="translate(482,76)"/>
<path d="M0 0 C0.495 0.99 0.495 0.99 1 2 C-0.06927734 2.07347656 -0.06927734 2.07347656 -1.16015625 2.1484375 C-6.70508491 2.58128523 -11.72086449 3.24028816 -17 5 C-17 5.33 -17 5.66 -17 6 C-13.37 6.66 -9.74 7.32 -6 8 C-6 8.66 -6 9.32 -6 10 C-6.88042969 9.96519531 -7.76085937 9.93039063 -8.66796875 9.89453125 C-10.41013672 9.85392578 -10.41013672 9.85392578 -12.1875 9.8125 C-13.33605469 9.77769531 -14.48460937 9.74289063 -15.66796875 9.70703125 C-20.27072382 10.11172835 -22.78317409 11.78317409 -26 15 C-26.12117187 14.37351562 -26.24234375 13.74703125 -26.3671875 13.1015625 C-26.53476562 12.28429687 -26.70234375 11.46703125 -26.875 10.625 C-27.11863281 9.40683594 -27.11863281 9.40683594 -27.3671875 8.1640625 C-27.86658932 5.81326077 -27.86658932 5.81326077 -30 4 C-30.99 4 -31.98 4 -33 4 C-22.48303576 -3.32831019 -12.10741941 -5.05635523 0 0 Z " fill="#607A3A" transform="translate(595,78)"/>
<path d="M0 0 C3.68802044 1.22934015 4.72356973 2.93859378 7 6 C5.24774565 10.46028381 2.41609971 12.79195015 -1.8359375 14.91796875 C-8.737997 17.65056851 -15.68217585 17.28105441 -23 17 C-23 16.67 -23 16.34 -23 16 C-20.36 16 -17.72 16 -15 16 C-14.67 15.01 -14.34 14.02 -14 13 C-13.34 13 -12.68 13 -12 13 C-12.99 11.68 -13.98 10.36 -15 9 C-14.67 8.34 -14.34 7.68 -14 7 C-15.32 6.67 -16.64 6.34 -18 6 C-17.28714844 5.90203125 -16.57429687 5.8040625 -15.83984375 5.703125 C-9.11234433 4.65683693 -9.11234433 4.65683693 -3 1.8125 C-2.01 1.214375 -1.02 0.61625 0 0 Z " fill="#617A3C" transform="translate(535,127)"/>
<path d="M0 0 C1.66300665 2.1381514 3.07392911 4.14433778 4.3125 6.5625 C6.6329193 9.91421677 8.08761743 10.71835743 12 12 C16.34580892 12.23798477 20.65269778 12.17415009 25 12 C24.67 12.66 24.34 13.32 24 14 C21.49609375 14.4140625 21.49609375 14.4140625 18.4375 14.625 C17.42558594 14.69976562 16.41367187 14.77453125 15.37109375 14.8515625 C14.58863281 14.90054688 13.80617188 14.94953125 13 15 C13 15.99 13 16.98 13 18 C12.67 18.66 12.34 19.32 12 20 C14.97 20.33 17.94 20.66 21 21 C21 20.34 21 19.68 21 19 C22.32 19.66 23.64 20.32 25 21 C17.5887116 24.04052857 10.60916411 23.79756643 3.15234375 21.05859375 C-0.37895535 19.32178421 -3.42025807 16.97790146 -6 14 C-6 13.34 -6 12.68 -6 12 C-5.01 11.67 -4.02 11.34 -3 11 C-2.67 10.34 -2.34 9.68 -2 9 C-0.68 9 0.64 9 2 9 C1.67 8.01 1.34 7.02 1 6 C0.01 5.67 -0.98 5.34 -2 5 C-1.34 3.35 -0.68 1.7 0 0 Z " fill="#647D40" transform="translate(394,119)"/>
<path d="M0 0 C0.99 0 1.98 0 3 0 C3 15.51 3 31.02 3 47 C2.01 47 1.02 47 0 47 C0 45.68 0 44.36 0 43 C-0.99 42.67 -1.98 42.34 -3 42 C-2.67 28.8 -2.34 15.6 -2 2 C-1.34 2 -0.68 2 0 2 C0 1.34 0 0.68 0 0 Z " fill="#527028" transform="translate(667,94)"/>
<path d="M0 0 C0.28101563 0.57621094 0.56203125 1.15242188 0.8515625 1.74609375 C1.9529492 3.9076588 3.11937464 5.98711923 4.375 8.0625 C4.77460938 8.73410156 5.17421875 9.40570313 5.5859375 10.09765625 C7.85508818 13.15035344 9.80832816 14.7634712 13.578125 15.51171875 C14.90070313 15.59873047 14.90070313 15.59873047 16.25 15.6875 C17.58804688 15.78611328 17.58804688 15.78611328 18.953125 15.88671875 C19.62859375 15.92410156 20.3040625 15.96148437 21 16 C21 16.33 21 16.66 21 17 C17.04 17.33 13.08 17.66 9 18 C9 17.01 9 16.02 9 15 C7.68 15.33 6.36 15.66 5 16 C5 16.99 5 17.98 5 19 C6.32 19.33 7.64 19.66 9 20 C9.33 21.32 9.66 22.64 10 24 C14.62 24.99 19.24 25.98 24 27 C24 27.33 24 27.66 24 28 C14.69440886 28.58159945 9.31584398 26.85267519 2 21 C1.67 31.89 1.34 42.78 1 54 C0.67 54 0.34 54 0 54 C-0.01458252 52.76846191 -0.02916504 51.53692383 -0.04418945 50.26806641 C-0.10205652 45.70933642 -0.17928932 41.15110643 -0.26245117 36.59277344 C-0.29575528 34.61792094 -0.32376997 32.642972 -0.34643555 30.66796875 C-0.37988122 27.83291423 -0.43219046 24.998748 -0.48828125 22.1640625 C-0.49467117 21.27756012 -0.5010611 20.39105774 -0.50764465 19.47769165 C-0.52743881 18.65699188 -0.54723297 17.83629211 -0.56762695 16.99072266 C-0.57873001 16.26680328 -0.58983307 15.54288391 -0.60127258 14.79702759 C-0.87490507 12.58351797 -0.87490507 12.58351797 -4 11 C-4 10.34 -4 9.68 -4 9 C-2.68 9 -1.36 9 0 9 C-0.185625 8.443125 -0.37125 7.88625 -0.5625 7.3125 C-1.07551165 4.600867 -0.6640724 2.65628961 0 0 Z " fill="#7F9661" transform="translate(165,116)"/>
<path d="M0 0 C5.75 0.75 5.75 0.75 8 3 C8 3.99 8 4.98 8 6 C7.34 6 6.68 6 6 6 C6 6.99 6 7.98 6 9 C7.65 8.67 9.3 8.34 11 8 C11.66 9.32 12.32 10.64 13 12 C12.01 12 11.02 12 10 12 C9.67 13.65 9.34 15.3 9 17 C8.34 16.34 7.68 15.68 7 15 C4.93125966 14.3574765 4.93125966 14.3574765 3 14 C3 13.67 3 13.34 3 13 C2.195625 12.87625 1.39125 12.7525 0.5625 12.625 C-0.283125 12.41875 -1.12875 12.2125 -2 12 C-2.33 11.34 -2.66 10.68 -3 10 C-5.35599235 9.53248212 -5.35599235 9.53248212 -8.0625 9.375 C-8.98160156 9.30023438 -9.90070313 9.22546875 -10.84765625 9.1484375 C-11.55792969 9.09945312 -12.26820313 9.05046875 -13 9 C-12.34 8.67 -11.68 8.34 -11 8 C-11.33 6.68 -11.66 5.36 -12 4 C-10.7625 3.855625 -9.525 3.71125 -8.25 3.5625 C-5.43495501 3.21311498 -2.7298503 2.79620634 0 2 C0 1.34 0 0.68 0 0 Z " fill="#587434" transform="translate(260,77)"/>
<path d="M0 0 C2.86724686 0.57344937 3.8614515 0.8614515 6 3 C6.33 2.67 6.66 2.34 7 2 C10.80934485 1.6825546 13.69161443 2.03285182 17 4 C18.3125 7.125 18.3125 7.125 19 10 C17.27778897 12.14005895 16.42104781 12.93462864 13.66015625 13.36328125 C12.80292969 13.34652344 11.94570313 13.32976562 11.0625 13.3125 C10.20785156 13.30863281 9.35320313 13.30476562 8.47265625 13.30078125 C5.89971808 12.98780141 4.22494525 12.29573378 2 11 C2 10.01 2 9.02 2 8 C1.01 8 0.02 8 -1 8 C-1 7.34 -1 6.68 -1 6 C-0.34 5.67 0.32 5.34 1 5 C0.67 3.35 0.34 1.7 0 0 Z " fill="#55722E" transform="translate(504,130)"/>
<path d="M0 0 C2.8125 0.1875 2.8125 0.1875 5 1 C4.01 1.495 4.01 1.495 3 2 C2.34444881 4.52733235 2.34444881 4.52733235 2 7 C1.34 7 0.68 7 0 7 C-0.66 8.65 -1.32 10.3 -2 12 C-4.97 11.505 -4.97 11.505 -8 11 C-8 11.66 -8 12.32 -8 13 C-11.63 13 -15.26 13 -19 13 C-18.34 11.68 -17.68 10.36 -17 9 C-17.66 8.34 -18.32 7.68 -19 7 C-15.99801968 5.99933989 -13.76423368 5.87040896 -10.625 5.75 C-5.33572359 5.3463447 -3.55900406 3.97771042 0 0 Z " fill="#57732F" transform="translate(423,127)"/>
<path d="M0 0 C6.6031963 0.5282557 10.12016298 2.73763243 15.22265625 6.74609375 C17 9 17 9 16.953125 12.015625 C16.72109375 13.08296875 16.4890625 14.1503125 16.25 15.25 C16.02828125 16.32765625 15.8065625 17.4053125 15.578125 18.515625 C15.38734375 19.33546875 15.1965625 20.1553125 15 21 C14.55527344 20.39285156 14.11054688 19.78570312 13.65234375 19.16015625 C10.61036316 15.18328801 7.08954779 11.87782993 3 9 C3.66 9 4.32 9 5 9 C5 8.34 5 7.68 5 7 C4.34 7 3.68 7 3 7 C3.33 5.68 3.66 4.36 4 3 C2.68 2.01 1.36 1.02 0 0 Z " fill="#6C824A" transform="translate(413,77)"/>
<path d="M0 0 C5.12194732 2.97787635 7.83414689 5.97188035 11 11 C11 11.66 11 12.32 11 13 C8.02588876 14.23921302 5.14737182 15.30058404 2 16 C1.67 18.64 1.34 21.28 1 24 C0.7525 23.484375 0.505 22.96875 0.25 22.4375 C-2.16916118 17.7201357 -4.67866444 13.15166945 -8 9 C-5.03824877 9.61277612 -3.61941217 10.25372522 -1 12 C-0.67 11.01 -0.34 10.02 0 9 C0.33 10.32 0.66 11.64 1 13 C1.33 11.68 1.66 10.36 2 9 C2.99 9 3.98 9 5 9 C4.34 8.01 3.68 7.02 3 6 C0.41619823 5.74969023 0.41619823 5.74969023 -2 6 C-2 5.01 -2 4.02 -2 3 C-1.34 3 -0.68 3 0 3 C0 2.01 0 1.02 0 0 Z " fill="#6A8248" transform="translate(268,80)"/>
<path d="M0 0 C1.9361079 1.65952105 3.33757534 3.38136301 4.75 5.5 C3.35724746 8.8772445 1.92726069 10.37070305 -1.1875 12.25 C-1.87714844 12.67796875 -2.56679688 13.1059375 -3.27734375 13.546875 C-5.25 14.5 -5.25 14.5 -8.25 14.5 C-8.04375 13.79875 -7.8375 13.0975 -7.625 12.375 C-7.17149643 8.89813928 -7.97459723 6.72601877 -9.25 3.5 C-2.90853659 -0.64634146 -2.90853659 -0.64634146 0 0 Z " fill="#5C7636" transform="translate(363.25,127.5)"/>
<path d="M0 0 C0.66 0 1.32 0 2 0 C2 0.99 2 1.98 2 3 C2.66 3 3.32 3 4 3 C4.16738578 8.94466225 4.32796884 14.88945397 4.48217773 20.83447266 C4.53563266 22.85796079 4.59096466 24.88140023 4.64819336 26.90478516 C4.73000696 29.80881243 4.80512562 32.71294644 4.87890625 35.6171875 C4.90594131 36.52556366 4.93297638 37.43393982 4.96083069 38.36984253 C4.98092697 39.21056305 5.00102325 40.05128357 5.02172852 40.91748047 C5.04171402 41.65916473 5.06169952 42.400849 5.08229065 43.16500854 C5 45 5 45 4 47 C4.99 47.33 5.98 47.66 7 48 C5.35 48 3.7 48 2 48 C1.97494385 46.68805664 1.9498877 45.37611328 1.92407227 44.02441406 C1.82989329 39.15647633 1.72969806 34.28867779 1.62768555 29.42089844 C1.58437642 27.31416073 1.54269847 25.20738883 1.50268555 23.10058594 C1.44488573 20.07216081 1.38121904 17.04390715 1.31640625 14.015625 C1.29969376 13.07382385 1.28298126 12.13202271 1.26576233 11.16168213 C1.24581711 10.28107117 1.22587189 9.40046021 1.20532227 8.49316406 C1.18977798 7.72039124 1.1742337 6.94761841 1.15821838 6.15142822 C0.99981486 3.99748251 0.58781794 2.07436562 0 0 Z " fill="#899D6E" transform="translate(656,93)"/>
<path d="M0 0 C1.32 0 2.64 0 4 0 C4 0.99 4 1.98 4 3 C4.66 2.67 5.32 2.34 6 2 C8.6723621 1.86584528 11.32250488 1.95681459 14 2 C14 2.66 14 3.32 14 4 C14.66 4.33 15.32 4.66 16 5 C13.9375 7.5 13.9375 7.5 11 10 C7.1875 10.3125 7.1875 10.3125 4 10 C4 8.68 4 7.36 4 6 C2.35 5.67 0.7 5.34 -1 5 C-1 2 -1 2 0 0 Z " fill="#54702B" transform="translate(170,131)"/>
<path d="M0 0 C1.74216797 0.02707031 1.74216797 0.02707031 3.51953125 0.0546875 C4.39996094 0.07789062 5.28039062 0.10109375 6.1875 0.125 C6.1875 0.455 6.1875 0.785 6.1875 1.125 C5.42824219 1.16238281 4.66898438 1.19976562 3.88671875 1.23828125 C2.89285156 1.30402344 1.89898437 1.36976562 0.875 1.4375 C-0.11113281 1.49550781 -1.09726563 1.55351563 -2.11328125 1.61328125 C-5.05634457 2.17122813 -5.99432999 2.81040132 -7.8125 5.125 C-7.4825 5.785 -7.1525 6.445 -6.8125 7.125 C-7.8025 7.125 -8.7925 7.125 -9.8125 7.125 C-10.1425 8.115 -10.4725 9.105 -10.8125 10.125 C-13.625 11.4375 -13.625 11.4375 -16.8125 12.125 C-19.1875 11.25 -19.1875 11.25 -20.8125 10.125 C-20.8125 7.485 -20.8125 4.845 -20.8125 2.125 C-20.4825 2.125 -20.1525 2.125 -19.8125 2.125 C-19.4825 4.105 -19.1525 6.085 -18.8125 8.125 C-18.36519531 7.71507813 -17.91789063 7.30515625 -17.45703125 6.8828125 C-16.85246094 6.34398438 -16.24789062 5.80515625 -15.625 5.25 C-15.03332031 4.71632813 -14.44164062 4.18265625 -13.83203125 3.6328125 C-9.34955248 0.28612622 -5.51465065 -0.11140708 0 0 Z " fill="#698248" transform="translate(183.8125,75.875)"/>
<path d="M0 0 C3.8009277 2.3591965 5.32056266 4.88537852 7 9 C7 10.32 7 11.64 7 13 C8.65 12.34 10.3 11.68 12 11 C12.66 11.66 13.32 12.32 14 13 C13 16 13 16 10 18 C9.67 18.99 9.34 19.98 9 21 C3.61159373 14.60017767 0 8.536235 0 0 Z " fill="#5F7A3C" transform="translate(552,115)"/>
<path d="M0 0 C0.66 0.33 1.32 0.66 2 1 C4.55807762 0.91089842 7.0762601 0.76705754 9.625 0.5625 C10.33140625 0.51029297 11.0378125 0.45808594 11.765625 0.40429688 C13.51079987 0.27458793 15.25545725 0.13795046 17 0 C16.67 0.66 16.34 1.32 16 2 C13.49609375 2.4140625 13.49609375 2.4140625 10.4375 2.625 C9.42558594 2.69976562 8.41367187 2.77453125 7.37109375 2.8515625 C6.58863281 2.90054688 5.80617188 2.94953125 5 3 C5 3.99 5 4.98 5 6 C4.67 6.66 4.34 7.32 4 8 C6.97 8.33 9.94 8.66 13 9 C13 8.34 13 7.68 13 7 C14.32 7.66 15.64 8.32 17 9 C11.98249039 11.05846548 7.35886556 11.67970905 2 11 C-1.0625 9.5 -1.0625 9.5 -3 8 C-2 5 -2 5 0 3 C0 2.01 0 1.02 0 0 Z " fill="#6D854D" transform="translate(402,131)"/>
<path d="M0 0 C2.55781522 3.83672283 2.25306456 6.94535987 2.1953125 11.38671875 C2.1924826 12.20372757 2.18965271 13.02073639 2.18673706 13.86250305 C2.17554541 16.47098459 2.1504429 19.0791223 2.125 21.6875 C2.11496888 23.45637525 2.10584326 25.22525588 2.09765625 26.99414062 C2.07560942 31.32955949 2.0410867 35.66472145 2 40 C2.66 40 3.32 40 4 40 C3.67 38.02 3.34 36.04 3 34 C4.98 33.505 4.98 33.505 7 33 C8 36 8 36 6.8203125 38.48046875 C6.26085937 39.37378906 5.70140625 40.26710937 5.125 41.1875 C4.57070312 42.08855469 4.01640625 42.98960937 3.4453125 43.91796875 C2.96835938 44.60503906 2.49140625 45.29210937 2 46 C1.67 46 1.34 46 1 46 C0.67 30.82 0.34 15.64 0 0 Z " fill="#83B13D" transform="translate(133,90)"/>
<path d="M0 0 C-2.01171875 2.51171875 -2.01171875 2.51171875 -5 5 C-7.88143806 5.20603029 -10.01640721 5.18442048 -12.8125 4.8125 C-13.50537109 4.74224609 -14.19824219 4.67199219 -14.91210938 4.59960938 C-16.61074484 4.42388847 -18.3059164 4.2152232 -20 4 C-19.67 3.01 -19.34 2.02 -19 1 C-17.4221875 0.7834375 -17.4221875 0.7834375 -15.8125 0.5625 C-12.09220642 0.01360423 -8.4565557 -0.52876139 -4.875 -1.6875 C-3 -2 -3 -2 0 0 Z " fill="#52702A" transform="translate(596,81)"/>
<path d="M0 0 C0.66 0 1.32 0 2 0 C2 2.97 2 5.94 2 9 C4.31 9 6.62 9 9 9 C7.1735951 11.53883235 5.32358108 13.89771236 3 16 C-0.1875 16.4375 -0.1875 16.4375 -3 16 C-3.99 16 -4.98 16 -6 16 C-5 14 -5 14 -2 13 C-0.97718482 10.90280128 -0.97718482 10.90280128 -0.3125 8.4375 C-0.06113281 7.61121094 0.19023438 6.78492188 0.44921875 5.93359375 C0.63097656 5.29550781 0.81273438 4.65742188 1 4 C0.34 4 -0.32 4 -1 4 C-0.67 2.68 -0.34 1.36 0 0 Z " fill="#80B52C" transform="translate(121,132)"/>
<path d="M0 0 C0.99 0.66 1.98 1.32 3 2 C2.67 2.99 2.34 3.98 2 5 C3.58294782 5.05437607 5.16644256 5.09296271 6.75 5.125 C7.63171875 5.14820313 8.5134375 5.17140625 9.421875 5.1953125 C12.1135858 4.99139502 13.69904974 4.36551721 16 3 C16 3.66 16 4.32 16 5 C18.31 5.33 20.62 5.66 23 6 C17.60422407 9.15696913 11.39650239 8.7513475 5.421875 7.4296875 C1.46913506 6.18627593 -1.89368877 4.83619721 -5 2 C-2.6875 0.875 -2.6875 0.875 0 0 Z " fill="#718751" transform="translate(332,136)"/>
<path d="M0 0 C1.65 0 3.3 0 5 0 C5 0.99 5 1.98 5 3 C6.98 2.67 8.96 2.34 11 2 C11 3.65 11 5.3 11 7 C7.35008834 5.68197635 5.2104799 4.40785992 2 2 C1.67 12.89 1.34 23.78 1 35 C0.67 35 0.34 35 0 35 C0 23.45 0 11.9 0 0 Z " fill="#627544" transform="translate(234,135)"/>
<path d="M0 0 C1.32 0.33 2.64 0.66 4 1 C4.33 2.98 4.66 4.96 5 7 C4.01 6.67 3.02 6.34 2 6 C1.34 7.65 0.68 9.3 0 11 C-1.32 10.67 -2.64 10.34 -4 10 C-4.12375 9.195625 -4.2475 8.39125 -4.375 7.5625 C-4.684375 6.2940625 -4.684375 6.2940625 -5 5 C-5.66 4.67 -6.32 4.34 -7 4 C-7 3.01 -7 2.02 -7 1 C-5.02 1.66 -3.04 2.32 -1 3 C-0.67 2.01 -0.34 1.02 0 0 Z " fill="#516F29" transform="translate(535,86)"/>
<path d="M0 0 C1.76923828 0.01353516 1.76923828 0.01353516 3.57421875 0.02734375 C4.47785156 0.03894531 5.38148438 0.05054687 6.3125 0.0625 C6.3125 1.0525 6.3125 2.0425 6.3125 3.0625 C2.58185156 5.54959896 0.73618032 5.36241053 -3.6875 5.0625 C-7.125 4.0625 -7.125 4.0625 -9.6875 3.0625 C-9.6875 2.4025 -9.6875 1.7425 -9.6875 1.0625 C-6.26517028 -0.07827657 -3.60076783 -0.03565117 0 0 Z " fill="#5F793C" transform="translate(253.6875,75.9375)"/>
<path d="M0 0 C3.36720387 1.39332574 4.9859524 2.9789286 7 6 C5.63016497 9.16115776 5.0109362 9.9927092 2 12 C-0.17374464 9.35370218 -1.32949391 7.35253045 -2 4 C-2.33 3.34 -2.66 2.68 -3 2 C-2.01 1.34 -1.02 0.68 0 0 Z " fill="#627C3D" transform="translate(361,127)"/>
<path d="M0 0 C1.41655793 -0.0272415 2.83327045 -0.04650467 4.25 -0.0625 C5.43335938 -0.07990234 5.43335938 -0.07990234 6.640625 -0.09765625 C9 0 9 0 10.82226562 0.48632812 C13.31421415 1.07411509 15.64513631 1.21230206 18.203125 1.31640625 C19.67265625 1.37924805 19.67265625 1.37924805 21.171875 1.44335938 C22.18765625 1.48267578 23.2034375 1.52199219 24.25 1.5625 C25.796875 1.62727539 25.796875 1.62727539 27.375 1.69335938 C29.9165387 1.79925682 32.45817196 1.90133443 35 2 C35 2.33 35 2.66 35 3 C22.92808563 5.22094567 11.82526253 3.55024917 0 1 C0 0.67 0 0.34 0 0 Z " fill="#9FC760" transform="translate(53,162)"/>
<path d="M0 0 C0 3 0 3 -2 6 C-2.99 6.495 -2.99 6.495 -4 7 C-2.68 7.33 -1.36 7.66 0 8 C-1 10 -1 10 -2.5 11.4375 C-4.25083992 13.0377353 -4.25083992 13.0377353 -5 16 C-5.12375 15.195625 -5.2475 14.39125 -5.375 13.5625 C-5.684375 12.2940625 -5.684375 12.2940625 -6 11 C-6.66 10.67 -7.32 10.34 -8 10 C-8.625 7.4375 -8.625 7.4375 -9 5 C-8.67 5.66 -8.34 6.32 -8 7 C-7.979375 6.401875 -7.95875 5.80375 -7.9375 5.1875 C-7 3 -7 3 -3.4375 1.25 C-1.7359375 0.63125 -1.7359375 0.63125 0 0 Z " fill="#526F27" transform="translate(399,81)"/>
<path d="M0 0 C0.99 0.33 1.98 0.66 3 1 C3 1.66 3 2.32 3 3 C5.64 3 8.28 3 11 3 C11 3.33 11 3.66 11 4 C10.12988281 4.16435547 10.12988281 4.16435547 9.2421875 4.33203125 C4.40253723 5.3143365 0.34633884 6.54821911 -4 9 C-4 8.34 -4 7.68 -4 7 C-5.65 7 -7.3 7 -9 7 C-8.67 6.01 -8.34 5.02 -8 4 C-7.34 4.33 -6.68 4.66 -6 5 C-5.34 3.68 -4.68 2.36 -4 1 C-3.34 1.66 -2.68 2.32 -2 3 C-2.33 3.33 -2.66 3.66 -3 4 C-2.01 4.33 -1.02 4.66 0 5 C-0.2784375 4.0409375 -0.2784375 4.0409375 -0.5625 3.0625 C-0.706875 2.381875 -0.85125 1.70125 -1 1 C-0.67 0.67 -0.34 0.34 0 0 Z " fill="#637C40" transform="translate(403,82)"/>
<path d="M0 0 C0.33 0.66 0.66 1.32 1 2 C1.66 2 2.32 2 3 2 C4.0625 4.375 4.0625 4.375 5 7 C4.67 7.66 4.34 8.32 4 9 C1.93359375 9.4140625 1.93359375 9.4140625 -0.5625 9.625 C-1.80193359 9.73714844 -1.80193359 9.73714844 -3.06640625 9.8515625 C-4.02353516 9.92503906 -4.02353516 9.92503906 -5 10 C-4.6875 8.0625 -4.6875 8.0625 -4 6 C-3.01 5.67 -2.02 5.34 -1 5 C-1.99 4.34 -2.98 3.68 -4 3 C-2.68 2.01 -1.36 1.02 0 0 Z " fill="#547029" transform="translate(421,157)"/>
<path d="M0 0 C2.625 0.9375 2.625 0.9375 5 2 C5 2.33 5 2.66 5 3 C7.97 3.495 7.97 3.495 11 4 C10.67 4.99 10.34 5.98 10 7 C7.03 7 4.06 7 1 7 C1 7.66 1 8.32 1 9 C0.34 8.67 -0.32 8.34 -1 8 C-0.67 7.34 -0.34 6.68 0 6 C-0.99 5.67 -1.98 5.34 -3 5 C-2.625 3.0625 -2.625 3.0625 -2 1 C-1.34 0.67 -0.68 0.34 0 0 Z " fill="#536F2A" transform="translate(637,79)"/>
<path d="M0 0 C3.24299151 2.38957269 5.50902342 4.2047869 7 8 C5.02 9.65 3.04 11.3 1 13 C0.67 12.01 0.34 11.02 0 10 C0.66 10 1.32 10 2 10 C1.34 8.35 0.68 6.7 0 5 C0.33 4.67 0.66 4.34 1 4 C-0.98 4 -2.96 4 -5 4 C-3.35 2.68 -1.7 1.36 0 0 Z " fill="#6F864F" transform="translate(599,127)"/>
<path d="M0 0 C0.66 0.99 1.32 1.98 2 3 C2.66 3 3.32 3 4 3 C3.67 4.65 3.34 6.3 3 8 C2.01 7.67 1.02 7.34 0 7 C0 6.34 0 5.68 0 5 C-0.66 5 -1.32 5 -2 5 C-2 6.65 -2 8.3 -2 10 C-1.34 10 -0.68 10 0 10 C-0.33 11.65 -0.66 13.3 -1 15 C-1.33 14.01 -1.66 13.02 -2 12 C-2.66 12 -3.32 12 -4 12 C-4.33 8.7 -4.66 5.4 -5 2 C-3.35 1.34 -1.7 0.68 0 0 Z " fill="#516F26" transform="translate(201,84)"/>
<path d="M0 0 C4.1797439 6.26961585 1.69970801 14.99479681 0.6328125 22.08203125 C0.06105889 24.71845066 -0.66153508 26.6773697 -2 29 C-2.027193 27.41676312 -2.04648306 25.83338938 -2.0625 24.25 C-2.07410156 23.36828125 -2.08570313 22.4865625 -2.09765625 21.578125 C-2 19 -2 19 -1.53125 17.15625 C-0.72830306 13.89723007 -0.63002693 10.58923753 -0.4375 7.25 C-0.39431641 6.55261719 -0.35113281 5.85523437 -0.30664062 5.13671875 C-0.20110404 3.42468078 -0.1001009 1.71236439 0 0 Z " fill="#9BC756" transform="translate(147,85)"/>
<path d="M0 0 C3 1 3 1 3.9375 2.6875 C4.03513714 6.30007435 2.15790336 8.22555282 0 11 C-0.99 11.495 -0.99 11.495 -2 12 C-2.33 8.7 -2.66 5.4 -3 2 C-2.01 1.34 -1.02 0.68 0 0 Z " fill="#627B3D" transform="translate(434,149)"/>
<path d="M0 0 C0.66 0.66 1.32 1.32 2 2 C1.11957031 2.02578125 0.23914063 2.0515625 -0.66796875 2.078125 C-2.41013672 2.16320312 -2.41013672 2.16320312 -4.1875 2.25 C-5.91033203 2.31960937 -5.91033203 2.31960937 -7.66796875 2.390625 C-11.52307585 3.09566217 -13.08028153 4.47483808 -16 7 C-19.8125 7.75 -19.8125 7.75 -23 8 C-17.05603321 1.10499852 -8.73151465 -0.49423668 0 0 Z " fill="#7A8E5D" transform="translate(585,75)"/>
<path d="M0 0 C0 0.99 0 1.98 0 3 C4.62 3.99 9.24 4.98 14 6 C14 6.33 14 6.66 14 7 C6.55460115 7.46533743 0.27997928 6.86998187 -5.5 1.8125 C-5.995 1.214375 -6.49 0.61625 -7 0 C-3.98968256 -0.93423645 -3.13349732 -1.04449911 0 0 Z " fill="#657E43" transform="translate(175,137)"/>
<path d="M0 0 C0.99 0.66 1.98 1.32 3 2 C2.34 5.96 1.68 9.92 1 14 C-1.22382199 11.03490401 -3.14265723 8.18401617 -5 5 C-4.360625 4.690625 -3.72125 4.38125 -3.0625 4.0625 C-1.06389179 3.1654837 -1.06389179 3.1654837 0 2 C0 1.34 0 0.68 0 0 Z " fill="#6E864D" transform="translate(427,84)"/>
<path d="M0 0 C3.64576392 -0.05878077 7.29140352 -0.0938558 10.9375 -0.125 C12.46987305 -0.15013672 12.46987305 -0.15013672 14.03320312 -0.17578125 C20.35688352 -0.21618815 25.88316527 0.37989987 32 2 C32 2.33 32 2.66 32 3 C30.02 3.33 28.04 3.66 26 4 C26 3.34 26 2.68 26 2 C24.9171875 2.2784375 24.9171875 2.2784375 23.8125 2.5625 C21 3 21 3 18.84375 2.5625 C15.1330955 1.82852438 11.45911341 1.6431018 7.6875 1.4375 C6.94693359 1.39431641 6.20636719 1.35113281 5.44335938 1.30664062 C3.62908536 1.20129568 1.8145645 1.10021684 0 1 C0 0.67 0 0.34 0 0 Z " fill="#9AC558" transform="translate(64,19)"/>
<path d="M0 0 C3.8009277 2.3591965 5.32056266 4.88537852 7 9 C7 10.32 7 11.64 7 13 C5.68 13 4.36 13 3 13 C2.49242138 11.58603098 1.99425075 10.16868271 1.5 8.75 C1.08234375 7.56664063 1.08234375 7.56664063 0.65625 6.359375 C0 4 0 4 0 0 Z " fill="#677E43" transform="translate(552,115)"/>
<path d="M0 0 C0.515625 0.391875 1.03125 0.78375 1.5625 1.1875 C1.5625 1.8475 1.5625 2.5075 1.5625 3.1875 C0.5725 3.1875 -0.4175 3.1875 -1.4375 3.1875 C-1.7675 4.8375 -2.0975 6.4875 -2.4375 8.1875 C-3.0975 7.5275 -3.7575 6.8675 -4.4375 6.1875 C-5.4584375 5.9709375 -5.4584375 5.9709375 -6.5 5.75 C-7.139375 5.564375 -7.77875 5.37875 -8.4375 5.1875 C-8.7675 4.1975 -9.0975 3.2075 -9.4375 2.1875 C-3.0375 -1.0125 -3.0375 -1.0125 0 0 Z " fill="#527028" transform="translate(271.4375,85.8125)"/>
<path d="M0 0 C2.64 0 5.28 0 8 0 C7.67 1.32 7.34 2.64 7 4 C8.32 4.33 9.64 4.66 11 5 C10.67 5.66 10.34 6.32 10 7 C9.67 6.67 9.34 6.34 9 6 C7.31816052 5.76712992 5.6287584 5.58735834 3.9375 5.4375 C3.01839844 5.35371094 2.09929687 5.26992187 1.15234375 5.18359375 C0.08693359 5.09271484 0.08693359 5.09271484 -1 5 C-0.34 4.67 0.32 4.34 1 4 C0.67 2.68 0.34 1.36 0 0 Z " fill="#527028" transform="translate(248,81)"/>
<path d="M0 0 C0.99 1.32 1.98 2.64 3 4 C2.01 4 1.02 4 0 4 C1.98 4.66 3.96 5.32 6 6 C5.01 6.33 4.02 6.66 3 7 C3 7.66 3 8.32 3 9 C4.32 9.33 5.64 9.66 7 10 C6.01 10.495 6.01 10.495 5 11 C2.8359375 10.00390625 2.8359375 10.00390625 0.375 8.5625 C-0.44226563 8.08941406 -1.25953125 7.61632812 -2.1015625 7.12890625 C-2.72804688 6.75636719 -3.35453125 6.38382813 -4 6 C-2.68 4.02 -1.36 2.04 0 0 Z " fill="#627A40" transform="translate(503,132)"/>
<path d="M0 0 C2.97 0 5.94 0 9 0 C9 0.99 9 1.98 9 3 C10.32 3.33 11.64 3.66 13 4 C10.18515955 5.40742022 8.43063887 4.66652164 5.375 4.0625 C4.37210938 3.86785156 3.36921875 3.67320313 2.3359375 3.47265625 C1.56507813 3.31667969 0.79421875 3.16070312 0 3 C0 2.01 0 1.02 0 0 Z " fill="#537028" transform="translate(511,77)"/>
<path d="M0 0 C1.98 0.66 3.96 1.32 6 2 C5.01 2.66 4.02 3.32 3 4 C2.34 3.67 1.68 3.34 1 3 C0.67 3.66 0.34 4.32 0 5 C1.65 5 3.3 5 5 5 C3.35 6.65 1.7 8.3 0 10 C-0.99 9.67 -1.98 9.34 -3 9 C-2.01 6.03 -1.02 3.06 0 0 Z " fill="#728854" transform="translate(389,155)"/>
<path d="M0 0 C0.66 0.33 1.32 0.66 2 1 C2 1.66 2 2.32 2 3 C2.61875 3.309375 3.2375 3.61875 3.875 3.9375 C5.25 4.625 6.625 5.3125 8 6 C8 6.66 8 7.32 8 8 C6.68 8.33 5.36 8.66 4 9 C4 8.34 4 7.68 4 7 C2.35 7.33 0.7 7.66 -1 8 C-0.67 5.36 -0.34 2.72 0 0 Z M-3 7 C-2.34 7.66 -1.68 8.32 -1 9 C-1.66 9 -2.32 9 -3 9 C-3 8.34 -3 7.68 -3 7 Z " fill="#627B3D" transform="translate(238,125)"/>
<path d="M0 0 C2.72647685 2.35468455 3.98756342 4.5408417 5 8 C4.625 10.3125 4.625 10.3125 4 12 C3.67 11.34 3.34 10.68 3 10 C-0.02934491 9.34227572 -0.02934491 9.34227572 -3 9 C-2.67 7.68 -2.34 6.36 -2 5 C-1.34 5 -0.68 5 0 5 C0 3.35 0 1.7 0 0 Z " fill="#688146" transform="translate(539,87)"/>
<path d="M0 0 C0.66 0.66 1.32 1.32 2 2 C2.66 1.34 3.32 0.68 4 0 C4.43200679 4.75207471 2.98489083 7.78210698 1 12 C-0.4070473 9.3735117 -1.62816493 6.97468053 -2 4 C-1.0625 1.75 -1.0625 1.75 0 0 Z " fill="#526F29" transform="translate(429,145)"/>
<path d="M0 0 C0.99 0.33 1.98 0.66 3 1 C-4.11389522 7.70387244 -4.11389522 7.70387244 -9 8 C-9 6 -9 6 -6.75 3.3125 C-4 1 -4 1 -1.6875 1.1875 C-1.130625 1.455625 -0.57375 1.72375 0 2 C0 1.34 0 0.68 0 0 Z " fill="#6C824C" transform="translate(202,134)"/>
<path d="M0 0 C0.33 0 0.66 0 1 0 C1 2.64 1 5.28 1 8 C0.34 8 -0.32 8 -1 8 C-1.33 9.98 -1.66 11.96 -2 14 C-2.33 13.01 -2.66 12.02 -3 11 C-3.66 11 -4.32 11 -5 11 C-4.67 9.02 -4.34 7.04 -4 5 C-3.01 4.67 -2.02 4.34 -1 4 C-0.26676204 1.98491642 -0.26676204 1.98491642 0 0 Z " fill="#5E7939" transform="translate(164,106)"/>
<path d="M0 0 C2.0625 0.4375 2.0625 0.4375 4 1 C2.68139111 5.61513112 0.78644563 9.09897612 -2 13 C-3.24546405 10.50907189 -2.7767578 9.58919267 -2 7 C-1.34 7 -0.68 7 0 7 C-0.185625 6.030625 -0.37125 5.06125 -0.5625 4.0625 C-0.706875 3.051875 -0.85125 2.04125 -1 1 C-0.67 0.67 -0.34 0.34 0 0 Z " fill="#95C34D" transform="translate(137,123)"/>
<path d="M0 0 C1.65 0 3.3 0 5 0 C5 0.99 5 1.98 5 3 C6.98 2.67 8.96 2.34 11 2 C11 3.65 11 5.3 11 7 C1.78947368 3.57894737 1.78947368 3.57894737 0 0 Z " fill="#70874F" transform="translate(234,135)"/>
<path d="M0 0 C0.66 0 1.32 0 2 0 C2.96661363 3.12180401 2.98988909 5.52083795 2.5625 8.75 C2.46066406 9.54921875 2.35882812 10.3484375 2.25390625 11.171875 C2.12822266 12.07679687 2.12822266 12.07679687 2 13 C1.71382812 12.41734375 1.42765625 11.8346875 1.1328125 11.234375 C0.10184829 9.20088696 -0.98593515 7.22437908 -2.125 5.25 C-2.74375 4.1775 -3.3625 3.105 -4 2 C-3.01 2 -2.02 2 -1 2 C-0.67 1.34 -0.34 0.68 0 0 Z " fill="#6B844A" transform="translate(594,87)"/>
<path d="M0 0 C2.10648327 0.66693992 2.10648327 0.66693992 4.125 0 C6.47148094 -0.58662023 7.85100578 -0.23092672 10.125 0.5 C9.795 1.16 9.465 1.82 9.125 2.5 C7.33366022 2.55391993 5.54186101 2.59275571 3.75 2.625 C2.75226563 2.64820313 1.75453125 2.67140625 0.7265625 2.6953125 C-1.875 2.5 -1.875 2.5 -3.875 0.5 C-1.875 -0.5 -1.875 -0.5 0 0 Z " fill="#547127" transform="translate(254.875,139.5)"/>
<path d="M0 0 C0 4.29 0 8.58 0 13 C-0.33 13 -0.66 13 -1 13 C-1.33 9.7 -1.66 6.4 -2 3 C-3.65 4.32 -5.3 5.64 -7 7 C-7.33 6.01 -7.66 5.02 -8 4 C-4.5 0 -4.5 0 0 0 Z " fill="#859869" transform="translate(429,131)"/>
<path d="M0 0 C0.66 0.33 1.32 0.66 2 1 C2 2.32 2 3.64 2 5 C3.65 5 5.3 5 7 5 C6.02471263 6.33617352 5.04466681 7.6688751 4.0625 9 C3.51722656 9.7425 2.97195313 10.485 2.41015625 11.25 C1.94480469 11.8275 1.47945313 12.405 1 13 C0.67 13 0.34 13 0 13 C-0.09978121 9.50765756 0.22157062 6.40562852 1 3 C0.34 3 -0.32 3 -1 3 C-0.67 2.01 -0.34 1.02 0 0 Z " fill="#728851" transform="translate(464,85)"/>
<path d="M0 0 C0.66 1.32 1.32 2.64 2 4 C1.34 4 0.68 4 0 4 C-0.4125 4.969375 -0.825 5.93875 -1.25 6.9375 C-3 10 -3 10 -5.1875 10.875 C-6.0846875 10.936875 -6.0846875 10.936875 -7 11 C-3.57894737 1.78947368 -3.57894737 1.78947368 0 0 Z " fill="#6F854F" transform="translate(391,84)"/>
<path d="M0 0 C-1.98 0.33 -3.96 0.66 -6 1 C-6.33 2.32 -6.66 3.64 -7 5 C-7.99 5 -8.98 5 -10 5 C-11.67099977 5.31088368 -13.33871537 5.64080332 -15 6 C-11.29673879 1.70421699 -5.8141716 -2.5582355 0 0 Z " fill="#6E844F" transform="translate(407,78)"/>
<path d="M0 0 C0.87840996 3.09720845 0.99435406 4.90645403 0 8 C0.66 8 1.32 8 2 8 C2 10.64 2 13.28 2 16 C1.34 15.67 0.68 15.34 0 15 C0 13.68 0 12.36 0 11 C-0.33 12.65 -0.66 14.3 -1 16 C-1.33 16 -1.66 16 -2 16 C-2.20674944 10.21101581 -1.59162079 5.57067277 0 0 Z " fill="#9DC75E" transform="translate(4,72)"/>
<path d="M0 0 C1.4606285 2.64738916 2 3.89448334 2 7 C1.01 7 0.02 7 -1 7 C-1 8.65 -1 10.3 -1 12 C-1.33 12 -1.66 12 -2 12 C-2.33 8.37 -2.66 4.74 -3 1 C-2.01 1.495 -2.01 1.495 -1 2 C-0.67 1.34 -0.34 0.68 0 0 Z " fill="#94C34C" transform="translate(5,97)"/>
<path d="M0 0 C3.96 0 7.92 0 12 0 C12 1.65 12 3.3 12 5 C11.67 4.01 11.34 3.02 11 2 C7.37 2.33 3.74 2.66 0 3 C0 2.01 0 1.02 0 0 Z " fill="#7E9062" transform="translate(293,49)"/>
<path d="M0 0 C2.475 0.495 2.475 0.495 5 1 C5 1.66 5 2.32 5 3 C5.61875 3.226875 6.2375 3.45375 6.875 3.6875 C9.66320542 5.40962687 10.16239065 6.87800152 11 10 C10.67 10.99 10.34 11.98 10 13 C7 7.25 7 7.25 7 5 C6.01 5 5.02 5 4 5 C1.8125 2.5 1.8125 2.5 0 0 Z " fill="#7BA739" transform="translate(122,77)"/>
<path d="M0 0 C3.39417765 3.12621626 5.6062718 5.56541027 7 10 C5.35 9.67 3.7 9.34 2 9 C2 8.01 2 7.02 2 6 C1.01 5.67 0.02 5.34 -1 5 C-0.34 4.67 0.32 4.34 1 4 C0.67 2.68 0.34 1.36 0 0 Z " fill="#70884F" transform="translate(662,80)"/>
<path d="M0 0 C2.31 0 4.62 0 7 0 C5.02 2.31 3.04 4.62 1 7 C0.34 5.68 -0.32 4.36 -1 3 C-0.67 2.01 -0.34 1.02 0 0 Z " fill="#91BB51" transform="translate(123,141)"/>
<path d="M0 0 C1.5 1.3125 1.5 1.3125 3 3 C3 3.99 3 4.98 3 6 C1.02 6 -0.96 6 -3 6 C-3 4.35 -3 2.7 -3 1 C-2.01 0.67 -1.02 0.34 0 0 Z " fill="#546F2B" transform="translate(127,135)"/>
<path d="M0 0 C0.66 0.33 1.32 0.66 2 1 C2 1.66 2 2.32 2 3 C1.34 3 0.68 3 0 3 C-0.0825 3.598125 -0.165 4.19625 -0.25 4.8125 C-1.20455872 7.5966296 -2.57132271 8.43311142 -5 10 C-5 4.69520066 -3.4637943 3.81017373 0 0 Z " fill="#91C047" transform="translate(21,42)"/>
<path d="M0 0 C0.33 0.66 0.66 1.32 1 2 C2.98 1.67 4.96 1.34 7 1 C6.67 1.66 6.34 2.32 6 3 C6.33 3.99 6.66 4.98 7 6 C5.51800098 5.55090939 4.03944764 5.09043436 2.5625 4.625 C1.73878906 4.36976563 0.91507813 4.11453125 0.06640625 3.8515625 C-2 3 -2 3 -3 1 C-2.01 0.67 -1.02 0.34 0 0 Z " fill="#738A54" transform="translate(567,137)"/>
<path d="M0 0 C0 2 0 4 0 6 C-2.31 5.34 -4.62 4.68 -7 4 C-6.67 3.01 -6.34 2.02 -6 1 C-4.02 0.67 -2.04 0.34 0 0 Z " fill="#526F27" transform="translate(600,130)"/>
<path d="M0 0 C-0.99 1.485 -0.99 1.485 -2 3 C-5.3 2.67 -8.6 2.34 -12 2 C-12 1.34 -12 0.68 -12 0 C-10.37585622 -0.19477739 -8.75063577 -0.38059458 -7.125 -0.5625 C-6.22007812 -0.66691406 -5.31515625 -0.77132812 -4.3828125 -0.87890625 C-2 -1 -2 -1 0 0 Z " fill="#7C925E" transform="translate(259,132)"/>
<path d="M0 0 C3 1 3 1 5 5 C1.7 4.67 -1.6 4.34 -5 4 C-2.6875 1.9375 -2.6875 1.9375 0 0 Z " fill="#778C59" transform="translate(535,127)"/>
<path d="M0 0 C2.38672669 2.96283313 4.7353371 5.94270509 7 9 C3.92468444 8.66753345 2.38167494 8.36895244 0.125 6.1875 C-1 4 -1 4 -0.6875 1.75 C-0.460625 1.1725 -0.23375 0.595 0 0 Z " fill="#768B57" transform="translate(567,122)"/>
<path d="M0 0 C0.103125 0.639375 0.20625 1.27875 0.3125 1.9375 C0.539375 2.618125 0.76625 3.29875 1 4 C1.99 4.33 2.98 4.66 4 5 C4.3721042 6.32303717 4.70630173 7.65737935 5 9 C5.66 9.33 6.32 9.66 7 10 C7 10.66 7 11.32 7 12 C6.01 12 5.02 12 4 12 C-0.57142857 4.71428571 -0.57142857 4.71428571 0 0 Z " fill="#7EAC3A" transform="translate(95,120)"/>
<path d="M0 0 C-1.65 0.33 -3.3 0.66 -5 1 C-5 1.66 -5 2.32 -5 3 C-5.99 3.495 -5.99 3.495 -7 4 C-7.33 4.99 -7.66 5.98 -8 7 C-8.99 7.33 -9.98 7.66 -11 8 C-10.4568634 4.19804378 -8.84334437 2.49869657 -6 0 C-3.50907189 -1.24546405 -2.58919267 -0.7767578 0 0 Z " fill="#7EAC37" transform="translate(95,105)"/>
<path d="M0 0 C1.17539996 0.92652701 2.34010577 1.86663387 3.5 2.8125 C4.1496875 3.33457031 4.799375 3.85664063 5.46875 4.39453125 C7 6 7 6 7 9 C3.17475764 7.549046 1.80909034 5.61818068 0 2 C0 1.34 0 0.68 0 0 Z " fill="#718651" transform="translate(43,14)"/>
<path d="M0 0 C1.32 0.66 2.64 1.32 4 2 C3.67 2.99 3.34 3.98 3 5 C0.4375 6.1875 0.4375 6.1875 -2 7 C-2 5.35 -2 3.7 -2 2 C-1.34 2 -0.68 2 0 2 C0 1.34 0 0.68 0 0 Z " fill="#6A8248" transform="translate(427,159)"/>
<path d="M0 0 C1.65 0.33 3.3 0.66 5 1 C0.375 5.875 0.375 5.875 -3 7 C-3 6.01 -3 5.02 -3 4 C-2.34 4 -1.68 4 -1 4 C-0.67 2.68 -0.34 1.36 0 0 Z " fill="#96C24C" transform="translate(118,147)"/>
<path d="M0 0 C0.61875 0.474375 1.2375 0.94875 1.875 1.4375 C6.16105676 3.58052838 10.26600709 3.73342564 15 4 C15 4.33 15 4.66 15 5 C9.06 5.495 9.06 5.495 3 6 C3 5.01 3 4.02 3 3 C2.01 3.33 1.02 3.66 0 4 C0 2.68 0 1.36 0 0 Z " fill="#859967" transform="translate(171,128)"/>
<path d="M0 0 C0.99 0.33 1.98 0.66 3 1 C2.79375 1.515625 2.5875 2.03125 2.375 2.5625 C1.84112974 6.03265671 2.92323239 8.70635791 4 12 C3.34 12 2.68 12 2 12 C2 11.01 2 10.02 2 9 C1.34 9 0.68 9 0 9 C-1.125 3.375 -1.125 3.375 0 0 Z " fill="#526F27" transform="translate(596,91)"/>
<path d="M0 0 C1.65 0 3.3 0 5 0 C5.33 1.32 5.66 2.64 6 4 C3.625 4.625 3.625 4.625 1 5 C0.34 4.34 -0.32 3.68 -1 3 C-0.67 2.01 -0.34 1.02 0 0 Z " fill="#526F2B" transform="translate(422,84)"/>
<path d="M0 0 C1.9375 0.8125 1.9375 0.8125 4 2 C4.33 2.99 4.66 3.98 5 5 C2.125 5.1875 2.125 5.1875 -1 5 C-1.66 4.01 -2.32 3.02 -3 2 C-2.01 1.34 -1.02 0.68 0 0 Z " fill="#6F854E" transform="translate(361,127)"/>
<path d="M0 0 C0.33 1.32 0.66 2.64 1 4 C-0.65 4.66 -2.3 5.32 -4 6 C-4.99 4.35 -5.98 2.7 -7 1 C-5.5459375 1.0309375 -5.5459375 1.0309375 -4.0625 1.0625 C-1.12534105 1.35618499 -1.12534105 1.35618499 0 0 Z " fill="#6A834A" transform="translate(360,89)"/>
<path d="M0 0 C2 2 2 2 2.125 4.625 C2.08375 5.40875 2.0425 6.1925 2 7 C2.66 7.33 3.32 7.66 4 8 C3.34 8.66 2.68 9.32 2 10 C0.35 7.03 -1.3 4.06 -3 1 C-2.01 0.67 -1.02 0.34 0 0 Z " fill="#738855" transform="translate(195,89)"/>
<path d="M0 0 C1.32 0.66 2.64 1.32 4 2 C3.67 3.32 3.34 4.64 3 6 C1.35 6 -0.3 6 -2 6 C-2 5.01 -2 4.02 -2 3 C-1.34 3 -0.68 3 0 3 C0 2.01 0 1.02 0 0 Z " fill="#637C3F" transform="translate(268,80)"/>
<path d="M0 0 C-2.52956528 3.0916909 -5.22454612 3.90931332 -9 5 C-8.1875 2.5625 -8.1875 2.5625 -7 0 C-3.86650268 -1.04449911 -3.01031744 -0.93423645 0 0 Z " fill="#536F2A" transform="translate(505,83)"/>
<path d="M0 0 C2.31 0.33 4.62 0.66 7 1 C7.33 2.32 7.66 3.64 8 5 C6.35 5.66 4.7 6.32 3 7 C3.33 5.68 3.66 4.36 4 3 C2.68 2.01 1.36 1.02 0 0 Z " fill="#657E44" transform="translate(413,77)"/>
<path d="M0 0 C3.36720387 1.39332574 4.9859524 2.9789286 7 6 C5.35 6 3.7 6 2 6 C1.87625 5.360625 1.7525 4.72125 1.625 4.0625 C1.315625 3.0415625 1.315625 3.0415625 1 2 C0.34 1.67 -0.32 1.34 -1 1 C-0.67 0.67 -0.34 0.34 0 0 Z " fill="#97C350" transform="translate(23,40)"/>
<path d="M0 0 C5.06562383 -0.25328119 9.15758367 0.66416101 14 2 C14 2.33 14 2.66 14 3 C4.58997722 3.3690205 4.58997722 3.3690205 0 1 C0 0.67 0 0.34 0 0 Z " fill="#809364" transform="translate(175,141)"/>
<path d="M0 0 C1.32 0.33 2.64 0.66 4 1 C3.01 1.495 3.01 1.495 2 2 C2 2.99 2 3.98 2 5 C1.01 5 0.02 5 -1 5 C-1 5.66 -1 6.32 -1 7 C-1.99 6.67 -2.98 6.34 -4 6 C-4 5.34 -4 4.68 -4 4 C-3.01 3.67 -2.02 3.34 -1 3 C-0.67 2.01 -0.34 1.02 0 0 Z " fill="#526E28" transform="translate(203,129)"/>
<path d="M0 0 C0.66 0 1.32 0 2 0 C2 2.64 2 5.28 2 8 C0.68 8 -0.64 8 -2 8 C-2 6.68 -2 5.36 -2 4 C-1.34 4 -0.68 4 0 4 C0 2.68 0 1.36 0 0 Z " fill="#526F2B" transform="translate(563,96)"/>
<path d="M0 0 C0.66 0 1.32 0 2 0 C0.80100302 3.0831351 -0.47700477 6.06279492 -2 9 C-2.66 9 -3.32 9 -4 9 C-3.125 4.25 -3.125 4.25 -2 2 C-1.34 2 -0.68 2 0 2 C0 1.34 0 0.68 0 0 Z " fill="#6E834E" transform="translate(239,90)"/>
<path d="M0 0 C3.3 0 6.6 0 10 0 C10.33 0.99 10.66 1.98 11 3 C7.04 3 3.08 3 -1 3 C-0.67 2.01 -0.34 1.02 0 0 Z " fill="#7B905C" transform="translate(339,85)"/>
<path d="M0 0 C0 0.99 0 1.98 0 3 C-0.66 3 -1.32 3 -2 3 C-1.67 4.32 -1.34 5.64 -1 7 C-1.99 7.33 -2.98 7.66 -4 8 C-4.6875 5.6875 -4.6875 5.6875 -5 3 C-3.40083326 0.79162689 -2.76966516 0 0 0 Z " fill="#53722D" transform="translate(354,80)"/>
<path d="M0 0 C4.50802601 1.25805377 7.4912812 2.90407165 11 6 C6.64477147 5.49357808 3.55760365 4.61588503 0 2 C0 1.34 0 0.68 0 0 Z " fill="#9BC555" transform="translate(106,26)"/>
<path d="M0 0 C0.66 0.33 1.32 0.66 2 1 C0.25 6.75 0.25 6.75 -2 9 C-2.33 7.35 -2.66 5.7 -3 4 C-2.34 4 -1.68 4 -1 4 C-0.67 2.68 -0.34 1.36 0 0 Z " fill="#6B824D" transform="translate(279,122)"/>
<path d="M0 0 C0.99 0.33 1.98 0.66 3 1 C3.73046875 3.06640625 3.73046875 3.06640625 4.1875 5.5625 C4.34605469 6.38878906 4.50460938 7.21507812 4.66796875 8.06640625 C4.77753906 8.70449219 4.88710937 9.34257812 5 10 C2.08772731 6.71195019 0.50298788 4.40114397 0 0 Z " fill="#9DC55A" transform="translate(8,121)"/>
<path d="M0 0 C0.66 0.33 1.32 0.66 2 1 C0.35 2.65 -1.3 4.3 -3 6 C-3.33 5.34 -3.66 4.68 -4 4 C-2.68 2.68 -1.36 1.36 0 0 Z M-5 6 C-4.01 6.33 -3.02 6.66 -2 7 C-2.33 7.66 -2.66 8.32 -3 9 C-3.66 8.01 -4.32 7.02 -5 6 Z " fill="#516E28" transform="translate(473,77)"/>
<path d="M0 0 C0 0.33 0 0.66 0 1 C-0.59167969 1.12117188 -1.18335937 1.24234375 -1.79296875 1.3671875 C-6.03803585 2.26744643 -10.02439661 3.20456621 -14 5 C-13.67 4.01 -13.34 3.02 -13 2 C-8.60470084 0.01165038 -4.77962147 -0.19118486 0 0 Z " fill="#7EAB39" transform="translate(103,74)"/>
<path d="M0 0 C1.35303489 2.70606979 0.7884698 4.1328371 0 7 C-0.66 7.66 -1.32 8.32 -2 9 C-2.66 8.67 -3.32 8.34 -4 8 C-2.87548273 5.0280615 -1.77706209 2.66559313 0 0 Z " fill="#97C351" transform="translate(14,51)"/>
<path d="M0 0 C4.875 4.625 4.875 4.625 6 8 C4.0625 7.625 4.0625 7.625 2 7 C1.67 6.34 1.34 5.68 1 5 C0.34 4.34 -0.32 3.68 -1 3 C-0.67 2.01 -0.34 1.02 0 0 Z " fill="#95C24C" transform="translate(130,44)"/>
<path d="M0 0 C1.98 1.65 3.96 3.3 6 5 C5.67 5.66 5.34 6.32 5 7 C3.68 7 2.36 7 1 7 C0.67 4.69 0.34 2.38 0 0 Z " fill="#9FC762" transform="translate(124,37)"/>
<path d="M0 0 C0.66 0.33 1.32 0.66 2 1 C1.67 3.31 1.34 5.62 1 8 C0.01 7.67 -0.98 7.34 -2 7 C-2.875 5.125 -2.875 5.125 -3 3 C-1.5625 1.25 -1.5625 1.25 0 0 Z " fill="#526F29" transform="translate(437,144)"/>
<path d="M0 0 C0 0.99 0 1.98 0 3 C-2.64 3 -5.28 3 -8 3 C-6.23110084 -0.53779831 -3.70375662 0 0 0 Z " fill="#527025" transform="translate(192,139)"/>
<path d="M0 0 C1.485 0.99 1.485 0.99 3 2 C4.32 2 5.64 2 7 2 C7 2.66 7 3.32 7 4 C6.360625 4.12375 5.72125 4.2475 5.0625 4.375 C4.0415625 4.684375 4.0415625 4.684375 3 5 C2.67 5.66 2.34 6.32 2 7 C1.34 4.69 0.68 2.38 0 0 Z " fill="#7BAA33" transform="translate(88,86)"/>
<path d="M0 0 C3.96 0.33 7.92 0.66 12 1 C12 1.33 12 1.66 12 2 C11.31292969 2.06058594 10.62585938 2.12117188 9.91796875 2.18359375 C8.56638672 2.30927734 8.56638672 2.30927734 7.1875 2.4375 C6.29417969 2.51871094 5.40085937 2.59992188 4.48046875 2.68359375 C1.87256441 2.93489767 1.87256441 2.93489767 -1 4 C-0.67 2.68 -0.34 1.36 0 0 Z " fill="#889C6A" transform="translate(510,85)"/>
<path d="M0 0 C0.66 0 1.32 0 2 0 C2 1.32 2 2.64 2 4 C-0.31 4.33 -2.62 4.66 -5 5 C-5 4.34 -5 3.68 -5 3 C-3.35 2.67 -1.7 2.34 0 2 C0 1.34 0 0.68 0 0 Z " fill="#54712A" transform="translate(182,82)"/>
<path d="M0 0 C0.66 0 1.32 0 2 0 C2 0.66 2 1.32 2 2 C3.32 2 4.64 2 6 2 C5.34 3.32 4.68 4.64 4 6 C2.35 4.35 0.7 2.7 -1 1 C-0.67 0.67 -0.34 0.34 0 0 Z " fill="#95C151" transform="translate(25,144)"/>
<path d="M0 0 C0.33 0.99 0.66 1.98 1 3 C-0.75 4.5625 -0.75 4.5625 -3 6 C-4.32 5.67 -5.64 5.34 -7 5 C-4.69 3.35 -2.38 1.7 0 0 Z " fill="#7FAF35" transform="translate(119,136)"/>
<path d="M0 0 C0.66 0.33 1.32 0.66 2 1 C0.92598892 3.91517292 0.22189824 5.77810176 -2 8 C-2.33 5.69 -2.66 3.38 -3 1 C-2.01 1.495 -2.01 1.495 -1 2 C-0.67 1.34 -0.34 0.68 0 0 Z " fill="#7D915F" transform="translate(397,90)"/>
<path d="M0 0 C-0.99 1.485 -0.99 1.485 -2 3 C-4.97 2.505 -4.97 2.505 -8 2 C-5.14066998 -0.85933002 -3.8625627 -1.2875209 0 0 Z " fill="#536F2D" transform="translate(176,86)"/>
<path d="M0 0 C2.475 0.495 2.475 0.495 5 1 C4.01 1.33 3.02 1.66 2 2 C2 2.66 2 3.32 2 4 C3.32 4.33 4.64 4.66 6 5 C5.01 5.495 5.01 5.495 4 6 C1.875 5.0625 1.875 5.0625 0 4 C0 2.68 0 1.36 0 0 Z " fill="#728A53" transform="translate(504,137)"/>
<path d="M0 0 C1.4540625 0.0309375 1.4540625 0.0309375 2.9375 0.0625 C1.2875 1.7125 -0.3625 3.3625 -2.0625 5.0625 C-2.7225 3.7425 -3.3825 2.4225 -4.0625 1.0625 C-3.0625 0.0625 -3.0625 0.0625 0 0 Z " fill="#718752" transform="translate(635.0625,87.9375)"/>
<path d="M0 0 C0.99 1.32 1.98 2.64 3 4 C1.02 4 -0.96 4 -3 4 C-3.33 3.01 -3.66 2.02 -4 1 C-2.68 0.67 -1.36 0.34 0 0 Z " fill="#7EB232" transform="translate(85,81)"/>
</svg>
