<?xml version="1.0" encoding="UTF-8" standalone="no"?><svg version="1.1" width="999.99994" height="248.7001" viewBox="0 0 999.99994 248.7001" xmlns="http://www.w3.org/2000/svg" xmlns:svg="http://www.w3.org/2000/svg"><path d="M276.61294 108.25437c23.80317 0 43.6051 21.95085 43.6051 50.84817 0 29.12157-18.46509 50.17073-42.49107 50.17073-11.99906 0-22.23424-4.91397-28.89987-13.65426V248.7h-18.24693V111.40791h16.01887v12.08951h.44561c8.66625-10.54368 17.79203-15.24305 29.56829-15.24305M273.50757 124.38c-14.67738 0-25.58562 13.89283-25.58562 34.72254 0 20.18096 11.14033 34.04994 25.58562 34.04994 15.56397 0 26.46757-13.22012 26.46757-34.04994 0-21.28289-11.11712-34.72254-26.46757-34.72254" fill="#fff"/><path d="M380.09407 108.25437c23.79389 0 43.58653 21.95095 43.58653 50.84828 0 29.12137-18.44654 50.17062-42.4818 50.17062-12.0037 0-22.22958-4.91386-28.90449-13.65426v53.08109h-18.24228V111.40779h16.01422v12.08953h.43632c8.6709-10.54379 17.79204-15.24295 29.5915-15.24295m-3.11 16.12573c-14.67275 0-25.58565 13.89262-25.58565 34.72255 0 20.18096 11.11715 34.04993 25.58565 34.04993 15.56394 0 26.46291-13.22033 26.46291-34.04993 0-21.283-11.12177-34.72255-26.46291-34.72255" fill="#fff"/><path d="M456.43871 206.14235h-18.01482V68.855102h18.01482Z" fill="#fff"/><path d="M490.5342 162.47088c.65914 19.48915 11.09855 31.13012 26.22619 31.13012 9.13507 0 16.91937-2.90551 24.48087-9.17926l8.66161 10.96354c-9.11186 9.64674-20.23827 13.8881-34.46075 13.8881-25.81307 0-44.26888-19.92803-44.26888-49.92746 0-31.13959 17.7781-51.09155 43.36837-51.09155 23.35291 0 39.81739 18.15802 39.81739 47.05062v7.16589Zm23.78924-38.5393c-12.89493 0-22.01607 9.41299-23.35291 25.53379h45.37363c-1.10939-16.34023-9.34395-25.53379-22.02072-25.53379" fill="#fff"/><path d="M657.95942 192.57896c0 21.94601-4.47005 35.06612-13.41946 43.48657-9.33466 8.42096-23.70105 11.35966-35.56084 11.35966-11.28425 0-23.72427-2.75267-31.31362-7.83366l4.2844-13.32516c6.21999 4.1171 15.93993 7.64302 27.60942 7.64302 17.49962 0 30.33421-9.19839 30.33421-33.28668v-10.38635h-.38528c-5.06422 8.80732-15.36902 15.86345-29.94893 15.86345-23.34362 0-40.0634-19.97582-40.0634-46.41605 0-32.12731 20.81386-50.13733 42.59783-50.13733 16.33451 0 25.07966 8.42055 29.35943 16.24959h.39454l.57094-14.09807h16.32059c-.58487 6.66504-.77983 14.29839-.77983 25.85335Zm-18.26084-43.67261c0-2.73378-.19033-5.28645-.97015-7.63377-3.10537-10.18087-11.27958-18.41075-23.91923-18.41075-16.3345 0-28.004 13.91193-28.004 36.03473 0 18.4154 9.52965 34.07851 27.81371 34.07851 10.69005 0 20.22433-6.66042 23.72424-17.81925.97944-2.74807 1.35543-6.07828 1.35543-9.20312Z" fill="#fff"/><path d="M720.00639 129.3835c-3.14714-2.03251-6.07611-2.94386-8.99119-2.94386-7.40831 0-14.14355 5.65357-19.76015 16.50757v63.53863h-18.4094v-96.09999h15.9446v18.76865h.45028c7.40832-14.24114 14.36636-21.4834 22.6752-21.4834 5.16632 0 9.42287 2.03701 13.69331 6.10683Z" fill="#fff"/><path d="M748.07356 162.39605c.6823 19.67528 11.2285 31.43067 26.5047 31.43067 9.1954 0 17.0586-2.9341 24.6944-9.27466l8.7544 11.08771c-9.2 9.71333-20.4239 14.01677-34.7996 14.01677-26.0405 0-44.68664-20.12833-44.68664-50.43324 0-31.43075 17.96845-51.55437 43.78154-51.55437 23.5896 0 40.198 18.32525 40.198 47.48948v7.23764Zm24.0259-38.89226c-13.0155 0-22.2249 9.49863-23.571 25.77216h45.8053c-1.128-16.4975-9.4229-25.77216-22.2343-25.77216" fill="#fff"/><path d="M842.60436 162.39605c.673 19.67528 11.2378 31.43067 26.4954 31.43067 9.2047 0 17.0586-2.9341 24.7083-9.27466l8.7452 11.08771c-9.2047 9.71333-20.4379 14.01677-34.7996 14.01677-26.0499 0-44.6821-20.12833-44.6821-50.43324 0-31.43075 17.9592-51.55437 43.7862-51.55437 23.5664 0 40.1841 18.32525 40.1841 47.48948v7.23764Zm24.0259-38.89226c-13.0202 0-22.2296 9.49863-23.5803 25.77216h45.8099c-1.1233-16.4975-9.4414-25.77216-22.2296-25.77216" fill="#fff"/><path d="M981.58596 206.48729v-54.94173c0-18.32022-7.1855-27.59488-21.3291-27.59488-8.7498 0-16.1627 4.98088-21.7747 14.92352v67.61309h-18.414v-96.10001h15.9399v14.47014h.4457c7.6404-11.75076 16.8497-17.1849 28.9694-17.1849 20.8835 0 34.5768 15.82984 34.5768 41.60229v57.21248Z" fill="#fff"/><path d="M111.47755 22.647297c-10.15163 0-20.02474 1.383639-29.40117 3.921715-8.73124-8.649541-18.55332-14.188517-26.62539-17.7717738-9.56213-4.255445-16.78942-5.75831-17.36965-5.8774333L23.80779 0l.22747 14.579599c0 .582152.13926 7.967487 2.56228 18.162753 1.47609 6.25464 3.80163 13.563814 7.59861 21.011023C13.12237 74.072783 0 102.51673 0 134.07626c0 61.54953 49.91331 111.44821 111.47755 111.44821 61.61065 0 111.53325-49.89868 111.53325-111.44821 0-61.53954-49.9226-111.428963-111.53325-111.428963" fill="#fff"/><path d="M90.724609 38.372272c9.872921 19.181981 10.120751 37.692141 9.468751 46.793496-.26925 3.707002-.705079 5.877793-.705079 5.877793s-2.27874.142712-6.029297-.224833c-10.452843-.965987-32.544146-5.547218-50.910156-26.460105a98.672417 98.673279 0 0 0-29.697266 70.212327 98.672417 98.673279 0 0 0 98.671878 98.67385 98.672417 98.673279 0 0 0 98.67383-98.67385 98.672417 98.673279 0 0 0-98.67383-98.671847 98.672417 98.673279 0 0 0-20.798831 2.473169Z" fill="#6ebd00"/><path d="M184.52344 200.95508a98.672417 98.673279 0 0 0 6.43554-7.85914v-47.06852c0-23.50148-12.51494-35.97738-36.01171-35.97738h-.00782c-3.64382 0-7.05544.32473-10.30468.93546-.10677.0333-.20913.03332-.34375.07628h-.125c-7.28299 1.49352-13.62421 4.69974-19.13868 9.80435h.00977l4.76562 5.72924 4.77149 5.71118c6.02969-4.97614 12.6776-7.50984 19.76562-7.50984 12.48646 0 19.75977 6.25098 19.75977 15.41113v8.53365c-5.82081-1.43594-11.46038-2.06968-16.64063-2.06968-22.48488 0-36.41015 11.62189-36.41015 29.32674 0 9.23168 3.75513 16.90239 9.91015 21.83094 4.76249 3.85942 10.97795 6.04441 17.98243 6.04441 10.99644 0 19.94091-5.6102 26.83398-16.69791h.4082v13.77909h.00977Zm-26.22461-42.22255c4.34009 0 9.78038.65278 15.80078 2.26038v3.35042c0 8.6115-2.96046 15.7147-7.67188 20.18485-3.55097 3.45437-8.10426 5.38596-13.14062 5.38596-7.57075 0-13.24354-5.00331-14.17188-12.92793-.1114-.79181-.17187-1.59297-.17187-2.44707 0-4.78508 1.9406-8.73712 5.31055-11.53277 3.36527-2.73377 8.21017-4.27384 14.04492-4.27384Z" fill="#fff"/><path d="M77.88852 39.274296C61.64686 19.665927 35.71774 14.389249 35.71774 14.389249s.43169 26.454822 16.75227 46.015295c16.23237 19.570443 42.12437 24.851848 42.12437 24.851848s-.42706-26.406926-16.70586-45.982096" fill="#4a721b"/></svg>