<?xml version="1.0" encoding="utf-8"?>
<!-- Generator: Adobe Illustrator 19.0.0, SVG Export Plug-In . SVG Version: 6.00 Build 0)  -->
<svg version="1.1" id="layer" xmlns="http://www.w3.org/2000/svg" xmlns:xlink="http://www.w3.org/1999/xlink" x="0px" y="0px"
	 viewBox="-153 -46 652 652" style="enable-background:new -153 -46 652 652;" xml:space="preserve">
<style type="text/css">
	.st0{fill:#2E2E2E;}
	.st1{fill:#FFFFFF;}
	.st2{fill:#6DBB4F;}
	.st3{fill:#51742C;}
</style>
<rect x="-143" y="172.5" class="st0" width="600" height="213.3"/>
<g>
	<path class="st1" d="M47.8,282.2c-6.9,0-12,6.5-12,16.2c0,9.4,5.2,15.8,12,15.8c7.3,0,12.4-6.1,12.4-15.8
		C60.2,288.5,55,282.2,47.8,282.2 M49.3,274.7c11.1,0,20.4,10.2,20.4,23.7c0,13.6-8.6,23.3-19.9,23.3c-5.6,0-10.4-2.3-13.5-6.4v24.7
		h-8.5v-63.9h7.5v5.6h0.2C39.5,276.9,43.7,274.7,49.3,274.7"/>
	<path class="st1" d="M96.3,282.2c-6.9,0-12,6.5-12,16.2c0,9.4,5.2,15.8,12,15.8c7.3,0,12.4-6.1,12.4-15.8
		C108.7,288.5,103.5,282.2,96.3,282.2 M97.7,274.7c11.1,0,20.4,10.2,20.4,23.7c0,13.6-8.6,23.3-19.9,23.3c-5.6,0-10.4-2.3-13.5-6.4
		v24.7h-8.5v-63.9h7.5v5.6h0.2C87.9,276.9,92.2,274.7,97.7,274.7"/>
</g>
<rect x="125.1" y="256.4" class="st1" width="8.4" height="63.9"/>
<g>
	<path class="st1" d="M160.6,282c-6,0-10.3,4.4-10.9,11.9h21.3C170.4,286.3,166.6,282,160.6,282 M149.5,300
		c0.3,9.1,5.2,14.5,12.3,14.5c4.3,0,7.9-1.4,11.5-4.3l4.1,5.1c-4.3,4.5-9.5,6.5-16.1,6.5c-12.1,0-20.7-9.3-20.7-23.2
		c0-14.5,8.3-23.8,20.3-23.8c10.9,0,18.7,8.5,18.7,21.9v3.3H149.5z"/>
	<path class="st1" d="M219.4,293.7c0-1.3-0.1-2.5-0.5-3.6c-1.5-4.7-5.3-8.6-11.2-8.6c-7.7,0-13.1,6.5-13.1,16.8
		c0,8.6,4.5,15.9,13,15.9c5,0,9.5-3.1,11.1-8.3c0.5-1.3,0.6-2.8,0.6-4.3V293.7z M227.9,314c0,10.2-2.1,16.3-6.3,20.2
		c-4.4,3.9-11.1,5.3-16.7,5.3c-5.3,0-11.1-1.3-14.7-3.6l2-6.2c2.9,1.9,7.5,3.6,12.9,3.6c8.2,0,14.2-4.3,14.2-15.5v-4.8h-0.2
		c-2.4,4.1-7.2,7.4-14,7.4c-10.9,0-18.8-9.3-18.8-21.6c0-15,9.7-23.3,20-23.3c7.7,0,11.7,3.9,13.8,7.6h0.2l0.3-6.6h7.6
		c-0.3,3.1-0.4,6.7-0.4,12V314z"/>
	<path class="st1" d="M257,284.6c-1.5-0.9-2.8-1.4-4.2-1.4c-3.5,0-6.6,2.6-9.3,7.7v29.6h-8.6v-44.7h7.5v8.7h0.2
		c3.5-6.6,6.7-10,10.6-10c2.4,0,4.4,0.9,6.4,2.8L257,284.6z"/>
	<path class="st1" d="M281.4,281.8c-6.1,0-10.4,4.4-11,12h21.5C291.3,286.2,287.4,281.8,281.4,281.8 M270.1,299.9
		c0.3,9.2,5.3,14.6,12.4,14.6c4.3,0,8-1.4,11.6-4.3l4.1,5.2c-4.3,4.5-9.6,6.5-16.3,6.5c-12.2,0-20.9-9.4-20.9-23.5
		c0-14.6,8.4-24,20.5-24c11.1,0,18.8,8.5,18.8,22.1v3.4H270.1z"/>
	<path class="st1" d="M325.7,281.8c-6.1,0-10.4,4.4-11,12h21.5C335.6,286.2,331.7,281.8,325.7,281.8 M314.4,299.9
		c0.3,9.2,5.3,14.6,12.4,14.6c4.3,0,8-1.4,11.6-4.3l4.1,5.2c-4.3,4.5-9.6,6.5-16.3,6.5c-12.2,0-20.9-9.4-20.9-23.5
		c0-14.6,8.4-24,20.5-24c11,0,18.8,8.5,18.8,22.1v3.4H314.4z"/>
	<path class="st1" d="M379.5,320.5v-25.6c0-8.5-3.4-12.8-10-12.8c-4.1,0-7.6,2.3-10.2,6.9v31.5h-8.6v-44.7h7.5v6.7h0.2
		c3.6-5.5,7.9-8,13.6-8c9.8,0,16.2,7.4,16.2,19.4v26.6H379.5z"/>
	<path class="st2" d="M-28.1,241.1c-3.2,0-6.4,0.3-9.4,1c-0.2,0-0.3,0-0.4,0.1c4.7,9,4.8,17.6,4.5,21.9c-0.1,1.7-0.3,2.7-0.3,2.7
		s-1.1,0.1-2.8-0.1c-4.9-0.5-15.3-2.6-23.9-12.4c-0.2,0.2-0.3,0.3-0.5,0.5c-8.2,8.3-13.3,19.7-13.3,32.3c0,25.4,20.7,45.9,46.2,45.9
		c5,0,9.9-0.8,14.4-2.3c5-1.7,9.7-4.2,13.8-7.3c2.1-1.6,4.1-3.5,5.9-5.4H2.2h0v-6.4H2c-3.2,5.1-7.4,7.8-12.6,7.8
		c-3.3,0-6.2-1-8.4-2.8c-2.9-2.3-4.6-5.9-4.6-10.2c0-8.2,6.5-13.6,17.1-13.6c2.4,0,5.1,0.3,7.8,1v-4c0-4.3-3.4-7.2-9.3-7.2
		c-3.3,0-6.4,1.2-9.3,3.5l-2.2-2.7l-2.2-2.7h0c2.6-2.4,5.6-3.9,9-4.6h0.1c0.1,0,0.1,0,0.2,0c1.5-0.3,3.1-0.4,4.8-0.4h0
		c11,0,16.9,5.8,16.9,16.7v21.9l0,0v0c2.2-3,4.1-6.2,5.5-9.6c0.6-1.4,1.1-2.8,1.5-4.3c1.3-4.2,2-8.7,2-13.3
		C18.1,261.6-2.5,241.1-28.1,241.1"/>
	<path class="st2" d="M-8.5,312.7c2.4,0,4.5-0.9,6.2-2.5c2.2-2.1,3.6-5.4,3.6-9.4v-1.6c-2.8-0.8-5.4-1.1-7.4-1.1c-2.7,0-5,0.7-6.6,2
		c-1.6,1.3-2.5,3.1-2.5,5.4c0,0.4,0,0.8,0.1,1.2C-14.7,310.4-12.1,312.7-8.5,312.7"/>
	<path class="st3" d="M-43.8,242.6c-7.6-9.1-19.8-11.6-19.8-11.6s0.2,12.3,7.8,21.4C-48.1,261.6-36,264-36,264
		S-36.2,251.7-43.8,242.6"/>
	<path class="st1" d="M-12.7,300.2c1.6-1.3,3.8-2,6.6-2c2,0,4.6,0.3,7.4,1.1v1.6c0,4-1.4,7.3-3.6,9.4c-1.7,1.6-3.8,2.5-6.2,2.5
		c-3.6,0-6.2-2.3-6.6-6c0-0.4-0.1-0.7-0.1-1.1C-15.2,303.4-14.3,301.5-12.7,300.2 M14.6,304.6c-1.4,3.4-3.3,6.7-5.5,9.6v0l0,0v-21.9
		c0-10.9-5.9-16.7-16.9-16.7h0c-1.7,0-3.3,0.1-4.8,0.4c0,0-0.1,0-0.2,0h-0.1c-3.4,0.7-6.4,2.2-9,4.6h0l2.2,2.7l2.2,2.7
		c2.8-2.3,5.9-3.5,9.3-3.5c5.9,0,9.3,2.9,9.3,7.2v4c-2.7-0.7-5.4-1-7.8-1c-10.5,0-17.1,5.4-17.1,13.6c0,4.3,1.8,7.9,4.6,10.2
		c2.2,1.8,5.1,2.8,8.4,2.8c5.1,0,9.3-2.6,12.6-7.8h0.2v6.4h0h3.9c-1.8,2-3.8,3.8-5.9,5.5c-4.1,3.2-8.8,5.7-13.8,7.3
		c-4.5,1.5-9.4,2.3-14.4,2.3c-25.5,0-46.2-20.6-46.2-45.9c0-12.6,5.1-24,13.3-32.3c0.2-0.2,0.3-0.3,0.5-0.5
		c8.6,9.8,19,11.9,23.9,12.4c1.8,0.2,2.8,0.1,2.8,0.1s0.2-1,0.3-2.7c0.3-4.3,0.2-12.9-4.5-21.9c0.1,0,0.3-0.1,0.4-0.1
		c3-0.6,6.2-1,9.4-1c25.5,0,46.2,20.6,46.2,45.9c0,4.6-0.7,9.1-2,13.3C15.7,301.8,15.2,303.2,14.6,304.6 M-43.8,242.6
		c7.6,9.1,7.8,21.4,7.8,21.4s-12.1-2.5-19.7-11.6c-7.6-9.1-7.9-21.4-7.9-21.4S-51.4,233.5-43.8,242.6 M-28.1,234.9
		c-4.8,0-9.4,0.6-13.8,1.8c-4.1-4-8.7-6.6-12.5-8.3c-4.5-2-7.9-2.7-8.1-2.7l-6.7-1.4l0.1,6.8c0,0.3,0.1,3.7,1.2,8.5
		c0.7,2.9,1.8,6.3,3.6,9.8c-9.9,9.5-16,22.7-16,37.4c0,28.6,23.4,51.9,52.2,51.9c28.9,0,52.3-23.2,52.3-51.9
		C24.2,258.1,0.8,234.9-28.1,234.9"/>
</g>
</svg>
