<?xml version="1.0" encoding="UTF-8"?>
<svg version="1.1" xmlns="http://www.w3.org/2000/svg" width="180" height="180">
<path d="M0 0 C1.76306318 1.4003759 3.51414671 2.81603424 5.25 4.25 C6.54550781 5.25933594 6.54550781 5.25933594 7.8671875 6.2890625 C23.06584581 18.79681081 32.96382267 39.13958862 36.25 58.25 C37.11176696 73.26257479 37.8091369 89.07785823 32.25 103.25 C31.899375 104.25933594 31.54875 105.26867187 31.1875 106.30859375 C22.63814762 129.13655202 5.04945238 146.26815076 -16.765625 156.5234375 C-35.39170676 164.86091251 -61.00312422 167.08501563 -80.5859375 160.50390625 C-81.63007812 160.09011719 -82.67421875 159.67632812 -83.75 159.25 C-84.91789062 158.82589844 -86.08578125 158.40179688 -87.2890625 157.96484375 C-108.89077635 149.5171147 -127.02677911 132.44203208 -136.65039062 111.26904297 C-137.51612613 109.213654 -138.33406965 107.14776984 -139.125 105.0625 C-139.3636377 104.4339209 -139.60227539 103.8053418 -139.84814453 103.15771484 C-147.4681574 81.85143159 -146.15181767 56.13144789 -136.6953125 35.6640625 C-132.66988718 27.45283282 -127.9624526 19.99527244 -121.75 13.25 C-120.94046875 12.34894531 -120.1309375 11.44789062 -119.296875 10.51953125 C-88.44656062 -22.17999788 -36.08548283 -26.81014452 0 0 Z " fill="#1959A1" transform="translate(143.75,16.75)"/>
<path d="M0 0 C1.76306318 1.4003759 3.51414671 2.81603424 5.25 4.25 C6.54550781 5.25933594 6.54550781 5.25933594 7.8671875 6.2890625 C23.08126881 18.80950319 32.93125671 39.13249093 36.25 58.25 C36.32747197 60.01552798 36.35799073 61.78358456 36.34765625 63.55078125 C36.34515869 64.43161377 36.34266113 65.31244629 36.34008789 66.2199707 C36.33098389 67.32300537 36.32187988 68.42604004 36.3125 69.5625 C36.291875 73.089375 36.27125 76.61625 36.25 80.25 C27.67 80.25 19.09 80.25 10.25 80.25 C9.92 81.57 9.59 82.89 9.25 84.25 C4.52643586 80.58923779 4.52643586 80.58923779 3.84765625 77.30078125 C3.76249753 72.03040262 4.79413317 66.98691871 5.7890625 61.83203125 C6.3805691 58.51859175 6.66015303 55.59958307 6.25 52.25 C4.18234425 49.59433959 2.9318289 48.40602028 -0.37890625 47.6484375 C-7.64133007 47.59041547 -12.25633522 49.00407264 -18.375 52.9375 C-20.75 54.25 -20.75 54.25 -24.75 54.25 C-25.41 53.92 -26.07 53.59 -26.75 53.25 C-33.95442587 52.47275903 -40.1895105 53.72017851 -46.125 57.9375 C-46.66125 58.370625 -47.1975 58.80375 -47.75 59.25 C-48.41 59.25 -49.07 59.25 -49.75 59.25 C-50.08 58.59 -50.41 57.93 -50.75 57.25 C-55.37 57.58 -59.99 57.91 -64.75 58.25 C-65.41 60.56 -66.07 62.87 -66.75 65.25 C-68.87300812 64.79506969 -70.5897937 64.34466736 -72.46875 63.234375 C-77.98892962 60.85237969 -85.73516703 61.25851475 -91.375 63.11328125 C-93.73746745 64.2642855 -93.73746745 64.2642855 -96.75 66.25 C-97.74 66.745 -97.74 66.745 -98.75 67.25 C-97.19842924 59.8852108 -95.64413676 52.53514138 -93.75 45.25 C-94.74 45.394375 -95.73 45.53875 -96.75 45.6875 C-103.43866708 46.63709945 -109.97670653 47.52646096 -116.75 47.25 C-116.75 45.93 -116.75 44.61 -116.75 43.25 C-122.69 39.95 -128.63 36.65 -134.75 33.25 C-124.78337913 11.44801685 -106.02573323 -4.40294279 -83.75 -12.75 C-55.65398982 -22.32411812 -23.79228504 -17.67676501 0 0 Z " fill="#1958A0" transform="translate(143.75,16.75)"/>
<path d="M0 0 C3.25 2.0625 3.25 2.0625 5 5 C5.72844635 10.20318823 4.43428991 15.1066944 3.45703125 20.2109375 C2.82222405 24.08488912 2.24737777 28.11549817 3 32 C4.43611583 33.74464294 4.43611583 33.74464294 6 35 C3.29273634 35.5064814 0.58442876 36.005351 -2.125 36.5 C-2.88554687 36.64308594 -3.64609375 36.78617188 -4.4296875 36.93359375 C-8.68042914 37.70312456 -12.65859197 38.16644376 -17 38 C-16.79503906 36.94941406 -16.59007812 35.89882812 -16.37890625 34.81640625 C-14.97969748 27.5567684 -13.65822264 20.37209358 -13 13 C-15.19514873 12.0406843 -15.19514873 12.0406843 -18 12 C-22.6134945 15.03613005 -24.58603004 17.16476786 -25.8515625 22.73632812 C-25.98304687 23.42146484 -26.11453125 24.10660156 -26.25 24.8125 C-26.546875 26.17317708 -26.84375 27.53385417 -27.140625 28.89453125 C-27.34655273 29.89734131 -27.34655273 29.89734131 -27.55664062 30.92041016 C-28.27804715 34.30418813 -29.1441656 37.64798193 -30 41 C-31.56116819 41.33951619 -33.12401338 41.67132544 -34.6875 42 C-35.55761719 42.185625 -36.42773438 42.37125 -37.32421875 42.5625 C-39.95145318 42.99206242 -42.34375689 43.14886126 -45 43 C-45.495 42.505 -45.495 42.505 -46 42 C-45.84239702 35.99896336 -44.70886193 30.14288678 -43.3046875 24.32421875 C-42.9549023 21.6559855 -43.34768927 19.5954617 -44 17 C-47.82942968 17.32823683 -50.14398359 18.43072711 -52.81616211 21.21459961 C-55.35555772 25.04437896 -55.85209814 29.74063581 -56.6875 34.1875 C-57.08085089 36.18226002 -57.48029599 38.17583096 -57.88671875 40.16796875 C-58.05389404 41.04735107 -58.22106934 41.9267334 -58.39331055 42.83276367 C-59 45 -59 45 -61 47 C-63.36509361 47.30059943 -65.74441881 47.49515012 -68.125 47.625 C-69.40632813 47.69976562 -70.68765625 47.77453125 -72.0078125 47.8515625 C-72.99523437 47.90054688 -73.98265625 47.94953125 -75 48 C-75.12890625 45.609375 -75.12890625 45.609375 -75 43 C-71.35343718 39.9059467 -67.66577113 39.45742854 -63 39 C-63.66 38.34 -64.32 37.68 -65 37 C-64.7578125 34.8359375 -64.7578125 34.8359375 -64.125 32.375 C-63.92132813 31.55773437 -63.71765625 30.74046875 -63.5078125 29.8984375 C-63.34023437 29.27195312 -63.17265625 28.64546875 -63 28 C-63.99 28.33 -64.98 28.66 -66 29 C-66.73323796 31.01508358 -66.73323796 31.01508358 -67 33 C-67.66 33 -68.32 33 -69 33 C-71.84450614 29.28026121 -72.3227506 26.62609198 -72 22 C-70.02 22.33 -68.04 22.66 -66 23 C-66.515625 22.319375 -67.03125 21.63875 -67.5625 20.9375 C-69.401792 17.17894678 -68.92591624 15.01230371 -68 11 C-66.05909174 9.05909174 -62.52706098 9.60080565 -59.9375 9.4375 C-58.00197266 9.31181641 -58.00197266 9.31181641 -56.02734375 9.18359375 C-55.02832031 9.12300781 -54.02929688 9.06242187 -53 9 C-52.67 9.99 -52.34 10.98 -52 12 C-51.32453125 11.57847656 -50.6490625 11.15695313 -49.953125 10.72265625 C-49.06109375 10.17480469 -48.1690625 9.62695312 -47.25 9.0625 C-46.36828125 8.51722656 -45.4865625 7.97195312 -44.578125 7.41015625 C-40.84876165 5.37030751 -37.78015221 4.84904811 -33.5625 4.8125 C-32.82128906 4.79832031 -32.08007812 4.78414063 -31.31640625 4.76953125 C-29 5 -29 5 -26.5390625 6.1875 C-23.96250522 7.31371641 -23.96250522 7.31371641 -21.39453125 5.91796875 C-20.54246094 5.34691406 -19.69039062 4.77585937 -18.8125 4.1875 C-17.95269531 3.62417969 -17.09289062 3.06085938 -16.20703125 2.48046875 C-15.47871094 1.99191406 -14.75039062 1.50335938 -14 1 C-9.79622018 -1.10188991 -4.56713007 -0.52908165 0 0 Z " fill="#F8FAFB" transform="translate(146,64)"/>
<path d="M0 0 C-0.70156407 7.15595346 -2.30785021 14.01855181 -4 21 C-3.071875 20.360625 -2.14375 19.72125 -1.1875 19.0625 C3.36581709 16.116236 6.53127957 15.81778504 11.875 15.75 C13.08929688 15.72421875 14.30359375 15.6984375 15.5546875 15.671875 C19.20672783 16.01968836 21.05885669 16.87521966 24 19 C23.21625 19.680625 22.4325 20.36125 21.625 21.0625 C18.69069143 24.34613101 18.12615314 26.81714547 17 31 C16.01 31.33 15.02 31.66 14 32 C13.75045995 33.43410368 13.52607358 34.87260072 13.3125 36.3125 C13.18488281 37.11300781 13.05726562 37.91351563 12.92578125 38.73828125 C12.77389092 41.06532593 12.77389092 41.06532593 14.35546875 42.66796875 C14.89816406 43.10753906 15.44085938 43.54710937 16 44 C16.66 44.66 17.32 45.32 18 46 C8.87813417 53.64402165 -0.52378173 57.1510079 -12.375 57.375 C-13.1175 57.41238281 -13.86 57.44976562 -14.625 57.48828125 C-18.68574397 57.55285138 -21.24245748 57.23783085 -24.4765625 54.6640625 C-27.40112944 51.5765166 -27.93071753 50.05230914 -28.20703125 45.85546875 C-27.96723749 41.38987548 -26.96976125 37.5730194 -25.6875 33.3125 C-25.22819567 31.72033187 -24.7698642 30.12788278 -24.3125 28.53515625 C-24.08820312 27.76316895 -23.86390625 26.99118164 -23.6328125 26.19580078 C-22.77639626 23.22411573 -21.96661501 20.24285045 -21.1875 17.25 C-20.95417969 16.36828125 -20.72085937 15.4865625 -20.48046875 14.578125 C-19.92699289 11.60825455 -19.71811503 9.01238264 -20 6 C-20.99 5.34 -21.98 4.68 -23 4 C-23 3.34 -23 2.68 -23 2 C-15.26940505 0.64290496 -7.85546636 -0.31918373 0 0 Z " fill="#F9FBFC" transform="translate(50,62)"/>
<path d="M0 0 C12.75 0.875 12.75 0.875 15 2 C13.92600487 12.00258151 12.08452652 21.73187758 9.96484375 31.5612793 C8.17628121 39.92872721 6.67904418 48.32589287 5.34423828 56.77734375 C5.1216333 58.13472656 5.1216333 58.13472656 4.89453125 59.51953125 C4.76925049 60.31464111 4.64396973 61.10975098 4.51489258 61.92895508 C4 64 4 64 2 67 C1.01 67 0.02 67 -1 67 C-1.02520211 60.99414354 -1.04309036 54.98831956 -1.05493164 48.98242188 C-1.05988129 46.95018984 -1.06664269 44.91796121 -1.07543945 42.88574219 C-1.135785 28.5589999 -0.77973329 14.30595219 0 0 Z " fill="#EE8C22" transform="translate(96,0)"/>
<path d="M0 0 C1.83520303 10.34660667 3.2816117 20.74627236 4.71435547 31.15478516 C4.98867173 33.13893003 5.26602832 35.12265689 5.54638672 37.10595703 C5.95685085 40.00985905 6.35829874 42.91488605 6.7578125 45.8203125 C6.94526535 47.13009567 6.94526535 47.13009567 7.13650513 48.46633911 C7.93033728 54.34261008 8.14146423 60.07323201 8 66 C6.68 66 5.36 66 4 66 C0.70214763 56.4032496 -2.40220407 46.84163459 -4.9296875 37.0078125 C-6.64065027 30.46195689 -8.66792366 24.00420723 -10.6328125 17.53125 C-10.86516602 16.76039062 -11.09751953 15.98953125 -11.33691406 15.1953125 C-11.76058624 13.79263937 -12.18914328 12.39142632 -12.62402344 10.9921875 C-13.59501658 7.78398519 -14 5.40605586 -14 2 C-12.4176994 1.66179834 -10.83410625 1.32964061 -9.25 1 C-8.36828125 0.814375 -7.4865625 0.62875 -6.578125 0.4375 C-4 0 -4 0 0 0 Z " fill="#EE8C22" transform="translate(81,0)"/>
<path d="M0 0 C3.65379925 11.97857263 7.16282115 23.98683322 10.46313477 36.06811523 C12.16305218 42.2311324 14.08757237 48.22570659 16.34130859 54.2109375 C17.10863822 57.46000111 16.74103687 59.77157913 16 63 C15.34 63 14.68 63 14 63 C13.67 63.66 13.34 64.32 13 65 C12.81493896 64.50435547 12.62987793 64.00871094 12.43920898 63.49804688 C9.10621105 54.87124657 5.17019307 46.51877508 1.2824707 38.13232422 C0.0660334 35.50762399 -1.1459918 32.88092072 -2.35742188 30.25390625 C-7.60269585 18.88418344 -7.60269585 18.88418344 -13.22485352 7.69726562 C-14 6 -14 6 -14 4 C-12.23141309 3.32739649 -10.46003984 2.66211605 -8.6875 2 C-7.70136719 1.62875 -6.71523438 1.2575 -5.69921875 0.875 C-3 0 -3 0 0 0 Z " fill="#1B589F" transform="translate(67,3)"/>
<path d="M0 0 C2.34474703 1.49185965 2.96465905 2.54729796 4.10287476 5.05683899 C4.46360077 5.83557877 4.82432678 6.61431854 5.19598389 7.41665649 C5.57211823 8.26237717 5.94825256 9.10809784 6.33578491 9.97944641 C6.73761993 10.8558226 7.13945496 11.73219879 7.5534668 12.63513184 C8.83923782 15.44644488 10.10726435 18.26536157 11.37484741 21.08491516 C12.22003165 22.94156797 13.06637384 24.79769412 13.91390991 26.65327454 C15.54747715 30.23282227 17.17118934 33.81658848 18.78793335 37.40376282 C20.14267927 40.40232835 21.51911593 43.38732234 22.93832397 46.35591125 C23.48714233 47.50784973 24.03596069 48.65978821 24.60140991 49.84663391 C25.07143433 50.81560608 25.54145874 51.78457825 26.02572632 52.78291321 C26.99984741 55.27241516 26.99984741 55.27241516 26.99984741 59.27241516 C24.82015991 59.27241516 24.82015991 59.27241516 21.99984741 58.27241516 C19.92833445 55.82557025 18.44020046 53.06134487 16.87484741 50.27241516 C15.90557589 48.61624662 14.93416829 46.96132663 13.96078491 45.30757141 C13.46932983 44.46468567 12.97787476 43.62179993 12.4715271 42.75337219 C10.24841864 39.00565684 7.88387111 35.35662335 5.49984741 31.70991516 C5.05528198 31.02397278 4.61071655 30.3380304 4.15267944 29.63130188 C1.73944102 25.9128117 -0.70372093 22.21630028 -3.17202759 18.53413391 C-3.68700806 17.75819885 -4.20198853 16.98226379 -4.73257446 16.18281555 C-5.7252212 14.68793683 -6.7262202 13.1985623 -7.73648071 11.7155304 C-8.90338974 9.95094144 -9.96239132 8.11591791 -11.00015259 6.27241516 C-9.8410422 2.79508399 -9.31753717 2.55679505 -6.18765259 0.95991516 C-5.50058228 0.59253235 -4.81351196 0.22514954 -4.10562134 -0.15336609 C-2.00015259 -0.72758484 -2.00015259 -0.72758484 0 0 Z " fill="#EC8B23" transform="translate(53.000152587890625,8.727584838867188)"/>
<path d="M0 0 C0.99 0 1.98 0 3 0 C3.15305641 21.35725571 2.73148854 42.65620932 2 64 C-2.62 64 -7.24 64 -12 64 C-10.79712792 52.21185363 -8.63227551 40.71903939 -6.25463867 29.11791992 C-4.52801263 20.68661004 -2.93720747 12.25390005 -1.54296875 3.76171875 C-1 1 -1 1 0 0 Z " fill="#ED8B22" transform="translate(90,116)"/>
<path d="M0 0 C4.23429756 1.31061591 8.07407404 2.94356259 12 5 C10.37564549 10.83422004 7.49981074 15.81291683 4.5625 21.0625 C1.25393342 27.00036111 -2.00629747 32.9349239 -4.9921875 39.04296875 C-5.4672876 40.00130615 -5.9423877 40.95964355 -6.43188477 41.94702148 C-7.33451899 43.77958445 -8.21869795 45.62138407 -9.08178711 47.47290039 C-12.08569719 53.50711695 -12.08569719 53.50711695 -14.88037109 55.01367188 C-16.82421875 55.578125 -16.82421875 55.578125 -20 56 C-17.72846098 48.02171734 -15.00664674 40.23673236 -12.1875 32.4375 C-11.29654024 29.96105791 -10.40591462 27.48449558 -9.515625 25.0078125 C-9.08572266 23.81317383 -8.65582031 22.61853516 -8.21289062 21.38769531 C-7.14528294 18.40578625 -6.09056077 15.42003559 -5.046875 12.4296875 C-4.63078979 11.2377478 -4.63078979 11.2377478 -4.20629883 10.02172852 C-3.70649787 8.58549516 -3.20882075 7.14852035 -2.71362305 5.71069336 C-1.10924562 1.10924562 -1.10924562 1.10924562 0 0 Z " fill="#EC8B23" transform="translate(125,7)"/>
<path d="M0 0 C2.26443907 3.74061248 2.79732151 7.72808111 3.45703125 11.9765625 C3.64698418 13.15915146 3.64698418 13.15915146 3.84077454 14.3656311 C5.17423091 22.82235652 6.29192708 31.30734462 7.36254883 39.80078125 C7.69349365 42.42248085 8.0309989 45.04328234 8.36914062 47.6640625 C8.58371298 49.34630579 8.79792007 51.02859571 9.01171875 52.7109375 C9.11167648 53.48690277 9.21163422 54.26286804 9.31462097 55.06234741 C9.73439202 58.41607424 10 61.61307221 10 65 C5.71 65 1.42 65 -3 65 C-3.09534525 48.72676687 -3.18057904 32.45381627 -2.625 16.1875 C-2.5787146 14.59059326 -2.5787146 14.59059326 -2.53149414 12.96142578 C-2.4927417 11.97770996 -2.45398926 10.99399414 -2.4140625 9.98046875 C-2.3826416 9.13379639 -2.3512207 8.28712402 -2.31884766 7.41479492 C-1.96000124 4.69706911 -1.1110337 2.49634514 0 0 Z " fill="#1757A1" transform="translate(95,115)"/>
<path d="M0 0 C0.99 0 1.98 0 3 0 C6.49647314 11.62845903 6.49647314 11.62845903 8.21850586 17.38256836 C8.63395156 18.77067065 9.04939752 20.15877287 9.46484375 21.546875 C9.67455307 22.24768692 9.88426239 22.94849884 10.10032654 23.67054749 C11.3249192 27.7590402 12.55833709 31.84470708 13.80117798 35.9276886 C14.72639305 38.97118237 15.64349096 42.01712751 16.5625 45.0625 C16.90861328 46.19018799 17.25472656 47.31787598 17.61132812 48.47973633 C17.92650391 49.5292749 18.24167969 50.57881348 18.56640625 51.66015625 C18.98321655 53.03119507 18.98321655 53.03119507 19.40844727 54.42993164 C20.00992974 57.04314087 20.11049587 59.3285291 20 62 C15.84055256 63.30492469 12.34963091 64.12019705 8 64 C6.07374959 55.4522638 5.0306765 46.81529381 4 38.125 C3.66995545 35.35636457 3.3369313 32.58811848 3 29.8203125 C2.91885956 29.15157104 2.83771912 28.48282959 2.75411987 27.79382324 C2.12203379 22.70430704 1.30867815 17.66263747 0.37939453 12.61962891 C-0.2296374 8.41440843 -0.16874224 4.23730504 0 0 Z " fill="#EB8B23" transform="translate(97,115)"/>
<path d="M0 0 C1.32 0 2.64 0 4 0 C1.90027154 6.35477278 -0.26397413 12.6848742 -2.46875 19.00390625 C-2.79033081 19.92662827 -3.11191162 20.84935028 -3.4432373 21.80003357 C-4.11858113 23.73716035 -4.79424468 25.67417568 -5.47021484 27.61108398 C-6.49821443 30.55738246 -7.52455099 33.50425673 -8.55078125 36.45117188 C-9.21083664 38.34378518 -9.8709896 40.23636446 -10.53125 42.12890625 C-10.83446167 42.99995499 -11.13767334 43.87100372 -11.45007324 44.76844788 C-13.23322392 49.87249717 -15.08255471 54.94481747 -17 60 C-18.60597325 59.54803755 -20.20972508 59.08817673 -21.8125 58.625 C-23.15248047 58.24214844 -23.15248047 58.24214844 -24.51953125 57.8515625 C-27 57 -27 57 -30 55 C-29.58492187 54.30261719 -29.16984375 53.60523438 -28.7421875 52.88671875 C-23.88429821 44.56326409 -19.4072378 36.06995443 -15 27.5 C-10.21650335 18.19840335 -5.35051254 8.98952572 0 0 Z " fill="#EF8C21" transform="translate(82,117)"/>
<path d="M0 0 C1.7452445 2.98273344 2.21538079 4.76922919 1.72460938 8.18432617 C1.61463623 8.97350433 1.50466309 9.7626825 1.39135742 10.57577515 C0.77237533 14.40999854 0.1221654 18.23335405 -0.59375 22.05078125 C-0.74533569 22.87200974 -0.89692139 23.69323822 -1.05310059 24.53935242 C-1.37097275 26.25804057 -1.69036572 27.9764481 -2.01123047 29.69458008 C-2.50185686 32.32244559 -2.98764338 34.95117134 -3.47265625 37.58007812 C-3.78357416 39.25786441 -4.09476248 40.93560062 -4.40625 42.61328125 C-4.55106812 43.39560623 -4.69588623 44.17793121 -4.84509277 44.98396301 C-5.4757835 48.35508105 -6.16778008 51.6711203 -7 55 C-10.96 54.34 -14.92 53.68 -19 53 C-20.04159296 48.83362816 -19.94718356 47.99134523 -18.60058594 44.15551758 C-18.2698407 43.1980513 -17.93909546 42.24058502 -17.59832764 41.25410461 C-17.23072327 40.2279454 -16.8631189 39.20178619 -16.484375 38.14453125 C-16.11274231 37.08715256 -15.74110962 36.02977386 -15.35821533 34.94035339 C-14.5698152 32.70680389 -13.77594908 30.47517739 -12.97705078 28.24536133 C-11.7530254 24.82096403 -10.55322838 21.38873772 -9.35546875 17.95507812 C-8.58738341 15.78854935 -7.81789954 13.62251577 -7.046875 11.45703125 C-6.68736755 10.42479935 -6.32786011 9.39256744 -5.9574585 8.32905579 C-5.44242767 6.90704109 -5.44242767 6.90704109 -4.91699219 5.45629883 C-4.61863464 4.61786942 -4.3202771 3.77944 -4.01287842 2.91560364 C-3 1 -3 1 0 0 Z " fill="#1D599D" transform="translate(85,125)"/>
<path d="M0 0 C2.79078569 3.36779024 4.5324518 7.04482381 6.29296875 11.01171875 C6.6005159 11.69340622 6.90806305 12.37509369 7.22492981 13.07743835 C8.21709587 15.27873792 9.20250462 17.48298369 10.1875 19.6875 C11.53299917 22.68456617 12.88135443 25.68034093 14.23046875 28.67578125 C14.55852509 29.40526978 14.88658142 30.1347583 15.22457886 30.88635254 C18.02863735 37.10478903 20.93136262 43.27542823 24.00463867 49.3659668 C26.1084794 53.67456179 26.1084794 53.67456179 25 57 C23.2578125 57.94921875 23.2578125 57.94921875 21.125 58.6875 C20.42632812 58.93886719 19.72765625 59.19023437 19.0078125 59.44921875 C17 60 17 60 14 60 C12.52464338 55.042012 11.04964703 50.083917 9.57495117 45.12573242 C9.07569559 43.44731923 8.57635007 41.76893278 8.0769043 40.09057617 C7.83689697 39.28402588 7.59688965 38.47747559 7.34960938 37.64648438 C7.10918915 36.83883636 6.86876892 36.03118835 6.62106323 35.19906616 C6.13622555 33.56733392 5.65276848 31.93519084 5.17068481 30.30264282 C3.96869327 26.23462526 2.7481736 22.17424826 1.48583984 18.12451172 C1.24814377 17.35010239 1.01044769 16.57569305 0.76554871 15.77781677 C0.31659742 14.31635436 -0.14007552 12.85723355 -0.60575867 11.40101624 C-2.0226138 6.7461887 -2.13852004 4.27704009 0 0 Z " fill="#1C589E" transform="translate(103,116)"/>
<path d="M0 0 C0.495 0.639375 0.99 1.27875 1.5 1.9375 C3.50974521 4.39943788 5.56361607 6.76371587 7.6875 9.125 C11.80574609 13.73441306 15.71471549 18.49204485 19.60888672 23.29101562 C22.4554308 26.78799852 25.32240595 30.26821422 28.1875 33.75 C28.76967285 34.45898438 29.3518457 35.16796875 29.95166016 35.8984375 C30.51804199 36.58679687 31.08442383 37.27515625 31.66796875 37.984375 C32.21888184 38.65662109 32.76979492 39.32886719 33.33740234 40.02148438 C34.45180498 41.34763987 35.59350798 42.65129475 36.76025391 43.93164062 C37.30987793 44.53685547 37.85950195 45.14207031 38.42578125 45.765625 C38.92118408 46.29446289 39.41658691 46.82330078 39.92700195 47.36816406 C41 49 41 49 41 53 C36.61798636 51.59217719 34.17428773 49.51557885 30.98046875 46.23828125 C30.51820389 45.76939987 30.05593903 45.30051849 29.57966614 44.81742859 C28.10828217 43.32276878 26.64743505 41.81833736 25.1875 40.3125 C19.5484112 34.53566535 13.93594604 28.80250124 7.78930664 23.55786133 C4.93152457 21.06973097 2.28056094 18.38789508 -0.375 15.6875 C-0.89449219 15.16349609 -1.41398437 14.63949219 -1.94921875 14.09960938 C-3.30151278 12.7350853 -4.65094888 11.36773029 -6 10 C-6.66 9.34 -7.32 8.68 -8 8 C-5.36 5.36 -2.72 2.72 0 0 Z " fill="#EA8B24" transform="translate(32,20)"/>
<path d="M0 0 C2.42947415 0.3725022 3.67886049 0.63670432 5.33349609 2.50854492 C5.72617676 3.15927979 6.11885742 3.81001465 6.5234375 4.48046875 C6.98024902 5.22176025 7.43706055 5.96305176 7.90771484 6.72680664 C8.39191895 7.53883545 8.87612305 8.35086426 9.375 9.1875 C10.43664771 10.91979346 11.49918496 12.65154199 12.5625 14.3828125 C13.119375 15.29708008 13.67625 16.21134766 14.25 17.15332031 C17.22768893 21.9970498 20.30690464 26.77572967 23.375 31.5625 C27.69681415 38.31022085 31.91268098 45.10738626 36 52 C32.77588233 54.76352943 29.96479572 56.52069807 26 58 C19.2236218 44.10673154 12.63087587 30.14123125 6.25 16.0625 C5.93641541 15.37388885 5.62283081 14.68527771 5.29974365 13.97579956 C4.40923184 12.01825886 3.52402771 10.05841362 2.640625 8.09765625 C2.13047852 6.96851807 1.62033203 5.83937988 1.09472656 4.67602539 C0 2 0 2 0 0 Z " fill="#ED8B22" transform="translate(103,114)"/>
<path d="M0 0 C3 0 3 0 5 1 C3.36812282 6.87670058 0.45524943 11.89913465 -2.5 17.1875 C-5.70600765 22.96365711 -8.89614848 28.73543537 -11.875 34.6328125 C-12.31908203 35.50655518 -12.76316406 36.38029785 -13.22070312 37.28051758 C-14.05859459 38.93887109 -14.88585849 40.60264722 -15.70117188 42.2722168 C-16.26674805 43.38463745 -16.26674805 43.38463745 -16.84375 44.51953125 C-17.16537109 45.17026611 -17.48699219 45.82100098 -17.81835938 46.49145508 C-19 48 -19 48 -21.01464844 48.76611328 C-24.6427264 49.19352335 -27.01649048 46.89338104 -30 45 C-29.39096119 41.85843632 -28.37943189 39.83265236 -26.48046875 37.26953125 C-25.95831787 36.55700195 -25.43616699 35.84447266 -24.89819336 35.11035156 C-24.33366455 34.35206055 -23.76913574 33.59376953 -23.1875 32.8125 C-22.00437857 31.19982717 -20.82210781 29.58652996 -19.640625 27.97265625 C-19.03669922 27.15039551 -18.43277344 26.32813477 -17.81054688 25.48095703 C-14.97814249 21.5997686 -12.20462323 17.67788034 -9.4375 13.75 C-8.94983154 13.06010986 -8.46216309 12.37021973 -7.9597168 11.65942383 C-7.49734619 11.00353271 -7.03497559 10.3476416 -6.55859375 9.671875 C-6.12144043 9.05376953 -5.68428711 8.43566406 -5.23388672 7.79882812 C-4.42071949 6.61334808 -3.63478462 5.40865345 -2.87939453 4.18554688 C-1.98930547 2.7448916 -1.00245052 1.36485864 0 0 Z " fill="#1A589F" transform="translate(73,123)"/>
<path d="M0 0 C1.11375 0.1546875 1.11375 0.1546875 2.25 0.3125 C-1.10731488 7.02712976 -5.26061832 12.77943029 -9.80151367 18.71582031 C-15.64053456 26.3919466 -21.02733974 34.36598956 -26.40649414 42.36816406 C-27.80385554 44.39044032 -29.26307153 46.3553976 -30.75 48.3125 C-34.20925163 47.0633258 -36.89693203 45.63722205 -39.75 43.3125 C-38.35571103 38.975568 -36.34877071 36.6151632 -33.0625 33.5 C-30.09405587 30.62022916 -27.18560254 27.7707953 -24.5 24.625 C-20.40125701 19.8283895 -16.05591994 15.26374805 -11.72363281 10.67895508 C-11.1406543 10.05915771 -10.55767578 9.43936035 -9.95703125 8.80078125 C-9.39709473 8.2073291 -8.8371582 7.61387695 -8.26025391 7.00244141 C-6.56598409 5.16814974 -6.56598409 5.16814974 -4.63671875 2.35546875 C-2.75 0.3125 -2.75 0.3125 0 0 Z " fill="#ED8B22" transform="translate(73.75,118.6875)"/>
<path d="M0 0 C1.1549921 0.73581742 2.29874185 1.48930039 3.4375 2.25 C4.07558594 2.66765625 4.71367187 3.0853125 5.37109375 3.515625 C7 5 7 5 7.91015625 6.96875 C8 9 8 9 6.8125 10.640625 C6.214375 11.17171875 5.61625 11.7028125 5 12.25 C2.49995179 14.57881203 0.15057177 16.89638615 -2.0625 19.5 C-5.64872388 23.65805912 -9.37888375 27.67404661 -13.125 31.6875 C-13.72320557 32.32945313 -14.32141113 32.97140625 -14.93774414 33.6328125 C-16.61786532 35.42892482 -18.30766266 37.2154049 -20 39 C-20.48202881 39.51989502 -20.96405762 40.03979004 -21.46069336 40.57543945 C-22.59172672 41.76526569 -23.79013727 42.89042571 -25 44 C-27.3125 43.8125 -27.3125 43.8125 -29 43 C-28.39972294 40.01415322 -27.50849464 37.99024954 -25.734375 35.5234375 C-25.02655884 34.52993286 -25.02655884 34.52993286 -24.30444336 33.51635742 C-23.5349939 32.4563855 -23.5349939 32.4563855 -22.75 31.375 C-22.22220947 30.63805908 -21.69441895 29.90111816 -21.15063477 29.1418457 C-19.4398903 26.75675285 -17.72024291 24.37824892 -16 22 C-14.80562075 20.34010908 -13.6116103 18.67995273 -12.41796875 17.01953125 C-3.79066506 5.03450964 -3.79066506 5.03450964 0 0 Z " fill="#ED8B22" transform="translate(147,20)"/>
<path d="M0 0 C4.70876739 3.53157554 8.12235164 7.48894896 11.73046875 12.125 C14.248729 15.31508527 16.86125623 18.4096774 19.5 21.5 C24.11065696 26.91458268 28.58956961 32.42065821 33 38 C34.33247641 39.66735185 35.66559398 41.33419205 37 43 C35.549046 46.82524236 33.61818068 48.19090966 30 50 C29.34 50 28.68 50 28 50 C26.36786147 47.5517922 24.85998656 45.09909455 23.375 42.5625 C18.53961692 34.46800044 13.53274815 26.49475402 8.4375 18.5625 C7.7347998 17.46687744 7.03209961 16.37125488 6.30810547 15.24243164 C2.6861068 9.60027528 2.6861068 9.60027528 -1 4 C-0.625 1.8125 -0.625 1.8125 0 0 Z " fill="#1B589E" transform="translate(110,116)"/>
<path d="M0 0 C-2.79036049 4.65060081 -6.07136488 8.17842776 -9.94921875 11.95703125 C-11.76719517 13.76808204 -13.45635501 15.61504344 -15.125 17.5625 C-18.68759348 21.70236557 -22.3986837 25.69556917 -26.125 29.6875 C-26.72328613 30.32953369 -27.32157227 30.97156738 -27.93798828 31.63305664 C-31.23138576 35.1538532 -34.56838889 38.61371206 -38 42 C-39.98 40.35 -41.96 38.7 -44 37 C-43.57396047 32.64831052 -40.72773251 30.52787035 -37.625 27.8125 C-36.81579102 27.08740234 -36.81579102 27.08740234 -35.99023438 26.34765625 C-31.70797461 22.54120313 -27.27783789 18.92898888 -22.8125 15.33984375 C-19.07646256 12.23166816 -15.51564324 8.95200465 -11.97070312 5.62890625 C-5.61572871 -0.3035529 -5.61572871 -0.3035529 0 0 Z " fill="#1B589E" transform="translate(71,119)"/>
<path d="M0 0 C4.95890217 0.38714088 7.3972934 2.88460929 10.67578125 6.3203125 C11.20463425 6.85719696 11.73348724 7.39408142 12.27836609 7.94723511 C13.96614478 9.66393472 15.63975504 11.39365954 17.3125 13.125 C19.5126415 15.38181812 21.71829507 17.63318005 23.92578125 19.8828125 C24.45575714 20.42451584 24.98573303 20.96621918 25.5317688 21.52433777 C29.02068016 25.06970897 32.61727261 28.42360196 36.41088867 31.64453125 C38.37153143 33.31690621 40.19717904 35.09712027 42 36.9375 C42.5775 37.52402344 43.155 38.11054688 43.75 38.71484375 C44.1625 39.13894531 44.575 39.56304687 45 40 C43.54744301 43.82946843 41.57104439 45.12050295 38 47 C31.74971339 39.75558997 25.52615815 32.49940647 19.5 25.06640625 C17.49244986 22.60402053 15.47033662 20.15627201 13.4375 17.71484375 C12.8089209 16.95792236 12.1803418 16.20100098 11.53271484 15.42114258 C10.28562333 13.92013212 9.03604937 12.42117979 7.78369141 10.92456055 C4.87694218 7.41864513 2.18961026 4.01691091 0 0 Z " fill="#ED8B22" transform="translate(109,113)"/>
<path d="M0 0 C0.66 0.33 1.32 0.66 2 1 C-2.99374862 5.58211642 -8.02676318 10.06836426 -13.3125 14.3125 C-18.20410582 18.26608482 -22.82942901 22.44570349 -27.40942383 26.7512207 C-30.84038851 29.97001656 -34.37529756 33.00095946 -38 36 C-38.66 36.66 -39.32 37.32 -40 38 C-41.98 35.36 -43.96 32.72 -46 30 C-41.74965373 26.85709475 -37.4882878 23.72995812 -33.21582031 20.6171875 C-31.75715664 19.55260088 -30.30071067 18.48496786 -28.84667969 17.4140625 C-19.76590643 10.7373897 -10.61780654 4.03819662 0 0 Z " fill="#EB8B23" transform="translate(66,117)"/>
<path d="M0 0 C2 2 2 2 2 5 C-0.97 4.505 -0.97 4.505 -4 4 C-3.690625 5.258125 -3.38125 6.51625 -3.0625 7.8125 C-2.88847656 8.52019531 -2.71445313 9.22789063 -2.53515625 9.95703125 C-2.08989295 11.65683202 -1.55566015 13.33301954 -1 15 C-0.34 15 0.32 15 1 15 C1.33 13.35 1.66 11.7 2 10 C2.99 10 3.98 10 5 10 C4.90460938 10.61488281 4.80921875 11.22976562 4.7109375 11.86328125 C4.54464844 13.07564453 4.54464844 13.07564453 4.375 14.3125 C4.20097656 15.51326172 4.20097656 15.51326172 4.0234375 16.73828125 C3.78466593 19.28723215 3.78466593 19.28723215 6 22 C5.34773438 22.12117188 4.69546875 22.24234375 4.0234375 22.3671875 C0.07991361 23.1233204 -3.56733914 23.82856834 -7.3125 25.3125 C-10 26 -10 26 -12.8125 24.75 C-15.56032898 22.55173682 -15.9111124 21.66665701 -16.375 18.1875 C-15.87722031 13.95637264 -13.99628023 12.92494023 -11 10 C-10.28072705 7.68234271 -9.6090107 5.34904126 -9 3 C-6.65399976 -0.63630037 -4.11719626 -0.4379996 0 0 Z " fill="#F29129" transform="translate(78,82)"/>
<path d="M0 0 C3.89317744 1.41068038 7.12824865 3.24498799 10.578125 5.52734375 C11.64949707 6.2325415 12.72086914 6.93773926 13.82470703 7.66430664 C14.96650191 8.42199172 16.10826567 9.17972368 17.25 9.9375 C18.41617535 10.70679711 19.58268123 11.47559341 20.74951172 12.24389648 C22.50193945 13.39791532 24.25414001 14.55226291 26.00521851 15.70832825 C31.02600286 19.02289833 36.06978368 22.30076628 41.125 25.5625 C41.83430664 26.02068115 42.54361328 26.4788623 43.27441406 26.95092773 C44.84921174 27.96790117 46.42453237 28.98406475 48 30 C46.02 32.97 46.02 32.97 44 36 C38.72127623 34.43287888 35.10797365 31.0000507 31 27.5 C29.47925866 26.22489802 27.95711002 24.95147265 26.43359375 23.6796875 C25.68319824 23.05288086 24.93280273 22.42607422 24.15966797 21.78027344 C21.180165 19.32418756 18.13646308 16.96115594 15.0625 14.625 C9.63943598 10.49964651 4.2994985 6.2826647 -1 2 C-0.67 1.34 -0.34 0.68 0 0 Z " fill="#EB8B23" transform="translate(117,111)"/>
<path d="M0 0 C2 2 2 2 2.375 5.6875 C2.21617469 11.52168305 -0.25413847 15.20695302 -4.3125 19.375 C-7.61070117 21.36926117 -10.16495259 21.85528123 -14 22 C-16 20 -16 20 -16.25 16.875 C-15.58070618 6.50094578 -15.58070618 6.50094578 -12.296875 3.3828125 C-8.26569967 0.65946123 -4.96253758 -0.8270896 0 0 Z " fill="#165AA6" transform="translate(56,88)"/>
<path d="M0 0 C3.89093595 1.68512554 7.02976251 4.24540869 10.3125 6.875 C10.91626465 7.35461182 11.5200293 7.83422363 12.14208984 8.32836914 C13.42851839 9.35126654 14.71363917 10.37581044 15.99755859 11.40185547 C18.03149543 13.02513644 20.07177763 14.64015546 22.11328125 16.25390625 C23.45074869 17.31481698 24.78799427 18.37600747 26.125 19.4375 C26.75188721 19.9329834 27.37877441 20.4284668 28.0246582 20.93896484 C31.20357152 23.4743157 34.1921172 26.04543675 37 29 C35.35 30.98 33.7 32.96 32 35 C25.81355169 29.82358407 20.05934924 24.44864572 14.8125 18.3125 C9.86931403 12.56434567 4.39680835 7.31705256 -1 2 C-0.67 1.34 -0.34 0.68 0 0 Z " fill="#1B589F" transform="translate(123,119)"/>
<path d="M0 0 C9.47818306 4.61023405 18.8491209 9.42651169 28.15777588 14.36981201 C29.9272136 15.30705148 31.7016379 16.23485663 33.47607422 17.16259766 C34.56549316 17.74444824 35.65491211 18.32629883 36.77734375 18.92578125 C37.75952881 19.44567627 38.74171387 19.96557129 39.75366211 20.5012207 C42 22 42 22 43 25 C41.5625 27.1875 41.5625 27.1875 40 29 C35.70737578 27.49958742 32.15753314 25.2457467 28.4375 22.6875 C27.12066911 21.79427798 25.8029075 20.90242702 24.484375 20.01171875 C23.77345703 19.53138184 23.06253906 19.05104492 22.33007812 18.55615234 C17.10666828 15.06767641 11.8124025 11.68545864 6.52709961 8.29174805 C5.70733643 7.76234619 4.88757324 7.23294434 4.04296875 6.6875 C3.31102295 6.21699219 2.57907715 5.74648437 1.82495117 5.26171875 C0 4 0 4 -2 2 C-1.34 1.34 -0.68 0.68 0 0 Z " fill="#1E599D" transform="translate(125,112)"/>
<path d="M0 0 C4.36048917 -0.21633435 7.24031012 0.2377654 11.16796875 2.125 C12.13541016 2.58092529 13.10285156 3.03685059 14.09960938 3.5065918 C15.62811523 4.24582886 15.62811523 4.24582886 17.1875 5 C19.32567479 6.00894713 21.46501587 7.01542605 23.60546875 8.01953125 C24.6732959 8.52178223 25.74112305 9.0240332 26.84130859 9.54150391 C31.51563495 11.69983021 36.24695774 13.70977943 41 15.6875 C41.81235107 16.02587891 42.62470215 16.36425781 43.46166992 16.71289062 C45.30641764 17.47855097 47.15297675 18.23984538 49 19 C48.01 21.31 47.02 23.62 46 26 C45.1013623 25.51966309 44.20272461 25.03932617 43.27685547 24.54443359 C37.18579076 21.29110251 31.09212194 18.04326706 24.98101807 14.82769775 C22.35432888 13.44508865 19.73004786 12.05794311 17.10595703 10.67041016 C15.76127841 9.96078311 14.41553663 9.25316774 13.06884766 8.54736328 C11.0873301 7.50821147 9.10974577 6.4619033 7.1328125 5.4140625 C5.97668457 4.8051416 4.82055664 4.1962207 3.62939453 3.56884766 C1 2 1 2 0 0 Z " fill="#EA8B24" transform="translate(123,110)"/>
<path d="M0 0 C3.39914975 1.13304992 4.05254451 2.12518475 6 5 C3.87989475 9.94069754 0.26172463 12.18390552 -4 15.25 C-4.71800781 15.80429687 -5.43601563 16.35859375 -6.17578125 16.9296875 C-11.82054661 21.00033535 -16.11343224 21.7440081 -23 21 C-19.07280147 17.02063755 -15.03347071 13.17995264 -10.9375 9.375 C-10.32583984 8.80265625 -9.71417969 8.2303125 -9.08398438 7.640625 C-2.38665964 1.41392308 -2.38665964 1.41392308 0 0 Z " fill="#EB8B24" transform="translate(161,36)"/>
<path d="M0 0 C0.33 0.66 0.66 1.32 1 2 C2.32245912 2.68798554 3.65780971 3.35134951 5 4 C7.95148204 6.04336168 10.77773067 8.25188638 13.625 10.4375 C14.78902344 11.31631836 14.78902344 11.31631836 15.9765625 12.21289062 C16.7190625 12.78072266 17.4615625 13.34855469 18.2265625 13.93359375 C18.90283691 14.44978271 19.57911133 14.96597168 20.27587891 15.49780273 C22 17 22 17 24 20 C18.85834095 21.25169772 15.16614609 21.55018338 10.5078125 18.796875 C9.03020072 17.80566567 7.56919026 16.78930121 6.125 15.75 C5.37992188 15.24597656 4.63484375 14.74195313 3.8671875 14.22265625 C0.5883317 11.97581442 -2.17228364 9.82771636 -5 7 C-3.35 4.69 -1.7 2.38 0 0 Z " fill="#ED8B22" transform="translate(18,35)"/>
<path d="M0 0 C7.45220072 -0.4071821 13.32261991 0.98820762 20.375 3.3125 C22.31979903 3.93519969 24.26511121 4.55629902 26.2109375 5.17578125 C27.63164551 5.63138428 27.63164551 5.63138428 29.08105469 6.09619141 C33.68687921 7.5223174 38.33826563 8.77103874 43 10 C42.34 12.64 41.68 15.28 41 18 C40.505 16.515 40.505 16.515 40 15 C37.98805549 14.52763042 35.97107881 14.07280196 33.94140625 13.68359375 C28.32952324 12.37937127 22.95568444 10.25469883 17.55859375 8.25927734 C15.47996078 7.49260887 13.39656281 6.74004642 11.3125 5.98828125 C9.98927745 5.50343818 8.66634922 5.01779089 7.34375 4.53125 C5.55227539 3.87479492 5.55227539 3.87479492 3.72460938 3.20507812 C1 2 1 2 0 0 Z " fill="#E48928" transform="translate(133,108)"/>
<path d="M0 0 C-3.55340773 3.85070198 -7.99860691 6.09568749 -12.5 8.6875 C-13.36753906 9.19861328 -14.23507813 9.70972656 -15.12890625 10.23632812 C-15.96292969 10.71908203 -16.79695313 11.20183594 -17.65625 11.69921875 C-18.41744141 12.14096436 -19.17863281 12.58270996 -19.96289062 13.0378418 C-22 14 -22 14 -25 14 C-25.99 12.02 -26.98 10.04 -28 8 C-18.63996556 2.6785591 -11.12183451 -1.5166138 0 0 Z " fill="#EA8B24" transform="translate(39,126)"/>
<path d="M0 0 C4.092527 1.53854398 7.89455918 3.44143884 11.75 5.5 C12.89984375 6.1084375 14.0496875 6.716875 15.234375 7.34375 C18 9 18 9 19 11 C18.0625 13.125 18.0625 13.125 17 15 C10.06001352 12.83836487 3.56882431 10.1063786 -3 7 C-1.125 1.125 -1.125 1.125 0 0 Z " fill="#EA8B24" transform="translate(9,50)"/>
<path d="M0 0 C1.74627478 2.61941217 2.38722388 4.03824877 3 7 C0.40163864 8.36645701 -2.20265556 9.71830669 -4.8125 11.0625 C-5.55048828 11.45244141 -6.28847656 11.84238281 -7.04882812 12.24414062 C-7.76103516 12.60830078 -8.47324219 12.97246094 -9.20703125 13.34765625 C-9.8616333 13.68804932 -10.51623535 14.02844238 -11.19067383 14.37915039 C-13 15 -13 15 -16 14 C-16.6875 11.9375 -16.6875 11.9375 -17 10 C-14.54220129 8.51993873 -12.08378912 7.04091426 -9.625 5.5625 C-8.92632812 5.14162109 -8.22765625 4.72074219 -7.5078125 4.28710938 C-6.8375 3.88427734 -6.1671875 3.48144531 -5.4765625 3.06640625 C-4.85861816 2.69459229 -4.24067383 2.32277832 -3.60400391 1.93969727 C-2.42685882 1.250073 -1.22024659 0.6101233 0 0 Z " fill="#EC8B23" transform="translate(171,50)"/>
<path d="M0 0 C1.73540039 0.20786133 1.73540039 0.20786133 3.50585938 0.41992188 C4.70404297 0.57138672 5.90222656 0.72285156 7.13671875 0.87890625 C8.35423828 1.02650391 9.57175781 1.17410156 10.82617188 1.32617188 C13.82645189 1.6909118 16.82565001 2.06289683 19.82421875 2.44140625 C19.49421875 4.42140625 19.16421875 6.40140625 18.82421875 8.44140625 C8.59421875 6.46140625 -1.63578125 4.48140625 -12.17578125 2.44140625 C-11.84578125 1.78140625 -11.51578125 1.12140625 -11.17578125 0.44140625 C-7.30008522 -0.73369261 -3.98430662 -0.49067816 0 0 Z " fill="#EA8B24" transform="translate(159.17578125,104.55859375)"/>
<path d="M0 0 C7.1178153 2.03807293 14.06707281 4.40344742 21 7 C20.67 8.65 20.34 10.3 20 12 C12.88879511 10.68882339 5.95300057 8.98279484 -1 7 C-0.67 4.69 -0.34 2.38 0 0 Z " fill="#E68A26" transform="translate(3,63)"/>
<path d="M0 0 C0 2.31 0 4.62 0 7 C-3.43700628 7.50343372 -6.87468008 8.00215524 -10.3125 8.5 C-11.28896484 8.64308594 -12.26542969 8.78617188 -13.27148438 8.93359375 C-14.20927734 9.06894531 -15.14707031 9.20429687 -16.11328125 9.34375 C-16.97735596 9.46943359 -17.84143066 9.59511719 -18.73168945 9.72460938 C-21 10 -21 10 -24 10 C-23.67 8.35 -23.34 6.7 -23 5 C-19.35456227 4.16492958 -15.70858615 3.33223435 -12.0625 2.5 C-10.50112305 2.14228516 -10.50112305 2.14228516 -8.90820312 1.77734375 C-7.91884766 1.55175781 -6.92949219 1.32617188 -5.91015625 1.09375 C-4.99371338 0.88427734 -4.07727051 0.67480469 -3.13305664 0.45898438 C-1 0 -1 0 0 0 Z " fill="#E58927" transform="translate(180,75)"/>
<path d="M0 0 C8.58 0 17.16 0 26 0 C26 1.65 26 3.3 26 5 C17.26860536 5.11624638 8.68873018 4.89115181 0 4 C0 2.68 0 1.36 0 0 Z " fill="#D08433" transform="translate(154,97)"/>
<path d="M0 0 C0 1.65 0 3.3 0 5 C-5.52708611 5.94220126 -10.83758352 6.12116149 -16.4375 6.0625 C-17.26443359 6.05798828 -18.09136719 6.05347656 -18.94335938 6.04882812 C-20.96227146 6.03715811 -22.98114574 6.01922718 -25 6 C-25 4.68 -25 3.36 -25 2 C-22.33397504 1.66068773 -19.66736986 1.32842824 -17 1 C-15.88431641 0.85691406 -15.88431641 0.85691406 -14.74609375 0.7109375 C-9.79111949 0.10772324 -4.99157504 -0.09075591 0 0 Z " fill="#DA872D" transform="translate(180,87)"/>
<path d="M0 0 C0.33 1.98 0.66 3.96 1 6 C-1.39287704 6.8427743 -3.78871019 7.67437002 -6.1875 8.5 C-6.86103516 8.73847656 -7.53457031 8.97695312 -8.22851562 9.22265625 C-11.93204467 10.48727592 -15.07940536 11.30451221 -19 11 C-19 9.35 -19 7.7 -19 6 C-16.39802798 4.99394407 -13.79370638 3.99497475 -11.1875 3 C-10.08051758 2.57074219 -10.08051758 2.57074219 -8.95117188 2.1328125 C-8.23896484 1.86210938 -7.52675781 1.59140625 -6.79296875 1.3125 C-6.1383667 1.06113281 -5.48376465 0.80976562 -4.80932617 0.55078125 C-3 0 -3 0 0 0 Z " fill="#E98A24" transform="translate(177,64)"/>
<path d="M0 0 C4.72502701 0.63242669 8.90570197 1.91813563 13.375 3.5625 C14.01566406 3.79646484 14.65632813 4.03042969 15.31640625 4.27148438 C16.8793161 4.84299619 18.43990727 5.42084229 20 6 C20 7.65 20 9.3 20 11 C16.58957132 12.18960605 14.91628018 11.85398723 11.671875 10.34765625 C10.87265625 9.98349609 10.0734375 9.61933594 9.25 9.24414062 C8.425 8.85419922 7.6 8.46425781 6.75 8.0625 C5.90953125 7.67642578 5.0690625 7.29035156 4.203125 6.89257812 C2.13039258 5.93865013 0.06324373 4.97423909 -2 4 C-2 3.34 -2 2.68 -2 2 C-1.34 2 -0.68 2 0 2 C0 1.34 0 0.68 0 0 Z " fill="#1C589E" transform="translate(153,117)"/>
<path d="M0 0 C-0.66 1.65 -1.32 3.3 -2 5 C-10.26565816 3.74110216 -18.05964735 1.60049705 -26 -1 C-19.80641003 -7.19358997 -7.38802321 -2.40540291 0 0 Z " fill="#245A99" transform="translate(178,113)"/>
<path d="M0 0 C16.70050761 1.35025381 16.70050761 1.35025381 22 4 C21.67 5.32 21.34 6.64 21 8 C17.87434338 7.69385143 14.74962377 7.37900284 11.625 7.0625 C10.73554688 6.97548828 9.84609375 6.88847656 8.9296875 6.79882812 C7.65351562 6.66831055 7.65351562 6.66831055 6.3515625 6.53515625 C5.17327881 6.41732788 5.17327881 6.41732788 3.97119141 6.29711914 C2 6 2 6 0 5 C0 3.35 0 1.7 0 0 Z " fill="#EB8B23" transform="translate(0,76)"/>
<path d="M0 0 C2.75125089 0.28233361 5.50061337 0.57547333 8.25 0.875 C9.02730469 0.95363281 9.80460938 1.03226562 10.60546875 1.11328125 C17.72431144 1.90426377 17.72431144 1.90426377 21 4 C20.67 4.66 20.34 5.32 20 6 C13.5782085 7.60544787 6.41750499 7.65613032 0 6 C0 4.02 0 2.04 0 0 Z " fill="#225A9B" transform="translate(0,81)"/>
<path d="M0 0 C2.41700987 0.14129287 4.83350429 0.28786487 7.25 0.4375 C8.27287109 0.49647461 8.27287109 0.49647461 9.31640625 0.55664062 C12.64448041 0.76666472 15.80255402 1.01934002 19 2 C19 3.32 19 4.64 19 6 C12.73 6 6.46 6 0 6 C0 4.02 0 2.04 0 0 Z " fill="#E98A24" transform="translate(0,87)"/>
<path d="M0 0 C5.61 0 11.22 0 17 0 C16.67 1.65 16.34 3.3 16 5 C8.08 5.495 8.08 5.495 0 6 C0 4.02 0 2.04 0 0 Z " fill="#E68A26" transform="translate(0,98)"/>
<path d="M0 0 C1.703125 1.2734375 1.703125 1.2734375 2.703125 4.2734375 C1.12344693 4.94871973 -0.46079403 5.61333444 -2.046875 6.2734375 C-3.36945312 6.8303125 -3.36945312 6.8303125 -4.71875 7.3984375 C-7.296875 8.2734375 -7.296875 8.2734375 -11.296875 8.2734375 C-11.956875 6.2934375 -12.616875 4.3134375 -13.296875 2.2734375 C-11.55246702 1.71402391 -9.80102243 1.17651853 -8.046875 0.6484375 C-7.07234375 0.34679687 -6.0978125 0.04515625 -5.09375 -0.265625 C-2.296875 -0.7265625 -2.296875 -0.7265625 0 0 Z " fill="#EB8B23" transform="translate(18.296875,118.7265625)"/>
<path d="M0 0 C0 1.65 0 3.3 0 5 C-1.17369141 5.18175781 -1.17369141 5.18175781 -2.37109375 5.3671875 C-3.88896484 5.61855469 -3.88896484 5.61855469 -5.4375 5.875 C-6.44683594 6.03742188 -7.45617187 6.19984375 -8.49609375 6.3671875 C-9.32238281 6.57601562 -10.14867187 6.78484375 -11 7 C-11.33 7.66 -11.66 8.32 -12 9 C-12.33 6.36 -12.66 3.72 -13 1 C-8.60563789 0.14256349 -4.47427924 -0.08948558 0 0 Z " fill="#E68A26" transform="translate(15,108)"/>
<path d="M0 0 C2.31 0 4.62 0 7 0 C7 1.65 7 3.3 7 5 C-1.58 5 -10.16 5 -19 5 C-19 4.67 -19 4.34 -19 4 C-16.36 3.67 -13.72 3.34 -11 3 C-11 2.67 -11 2.34 -11 2 C-5.555 1.505 -5.555 1.505 0 1 C0 0.67 0 0.34 0 0 Z " fill="#225A9A" transform="translate(173,92)"/>
<path d="M0 0 C-0.33 1.65 -0.66 3.3 -1 5 C-7.06892629 5.25287193 -12.16200408 4.69832609 -18 3 C-18 2.67 -18 2.34 -18 2 C-11.88019467 0.59545452 -6.28260706 -0.23268915 0 0 Z " fill="#225A9B" transform="translate(180,102)"/>
<path d="M0 0 C0 1.65 0 3.3 0 5 C-6.93 4.505 -6.93 4.505 -14 4 C-14 3.34 -14 2.68 -14 2 C-14.66 1.67 -15.32 1.34 -16 1 C-10.59255982 0.22750855 -5.46137814 -0.09752461 0 0 Z " fill="#E88A25" transform="translate(180,87)"/>
<path d="M0 0 C1.77503906 0.03480469 1.77503906 0.03480469 3.5859375 0.0703125 C5.36871094 0.09738281 5.36871094 0.09738281 7.1875 0.125 C8.10273438 0.14820312 9.01796875 0.17140625 9.9609375 0.1953125 C9.9609375 1.5153125 9.9609375 2.8353125 9.9609375 4.1953125 C5.3409375 4.1953125 0.7209375 4.1953125 -4.0390625 4.1953125 C-4.3690625 3.5353125 -4.6990625 2.8753125 -5.0390625 2.1953125 C-3.0390625 0.1953125 -3.0390625 0.1953125 0 0 Z " fill="#EB8B24" transform="translate(170.0390625,97.8046875)"/>
<path d="M0 0 C1.60294922 0.15275391 1.60294922 0.15275391 3.23828125 0.30859375 C4.45064453 0.43427734 4.45064453 0.43427734 5.6875 0.5625 C5.3575 1.5525 5.0275 2.5425 4.6875 3.5625 C-1.40882423 4.88778788 -6.29017819 4.02869907 -12.3125 2.5625 C-11.9825 1.9025 -11.6525 1.2425 -11.3125 0.5625 C-7.43443845 -0.60441222 -3.99728594 -0.39533597 0 0 Z " fill="#DD872B" transform="translate(159.3125,104.4375)"/>
<path d="M0 0 C0.99 0 1.98 0 3 0 C3 9.9 3 19.8 3 30 C2.67 30 2.34 30 2 30 C1.67 21.42 1.34 12.84 1 4 C0.01 4.495 0.01 4.495 -1 5 C-0.67 3.35 -0.34 1.7 0 0 Z " fill="#BD803E" transform="translate(90,116)"/>
<path d="M0 0 C5.77807024 -0.2358396 10.51324804 0.13216954 16 2 C16 2.33 16 2.66 16 3 C14.35 3 12.7 3 11 3 C11 3.66 11 4.32 11 5 C9.35153231 4.55123384 7.70626545 4.09069512 6.0625 3.625 C5.14597656 3.36976562 4.22945312 3.11453125 3.28515625 2.8515625 C1 2 1 2 0 0 Z " fill="#D7862F" transform="translate(133,108)"/>
<path d="M0 0 C3 0.25 3 0.25 5 2.25 C5 3.24 5 4.23 5 5.25 C3.01432292 4.92447917 1.02864583 4.59895833 -0.95703125 4.2734375 C-3.31755824 4.05422152 -3.31755824 4.05422152 -6 6.25 C-5.17995097 2.14975484 -4.49516759 0.3745973 0 0 Z " fill="#F28B1C" transform="translate(75,81.75)"/>
<path d="M0 0 C1.23327026 0.02356567 1.23327026 0.02356567 2.49145508 0.04760742 C3.38413086 0.05727539 4.27680664 0.06694336 5.1965332 0.0769043 C6.5896875 0.11460938 6.5896875 0.11460938 8.01098633 0.15307617 C8.95135742 0.16661133 9.89172852 0.18014648 10.8605957 0.1940918 C13.18213671 0.22944521 15.50252286 0.27878943 17.82348633 0.34057617 C17.82348633 0.67057617 17.82348633 1.00057617 17.82348633 1.34057617 C11.88348633 1.83557617 11.88348633 1.83557617 5.82348633 2.34057617 C5.82348633 2.67057617 5.82348633 3.00057617 5.82348633 3.34057617 C2.19348633 3.34057617 -1.43651367 3.34057617 -5.17651367 3.34057617 C-2.17651367 0.34057617 -2.17651367 0.34057617 0 0 Z " fill="#0D55A7" transform="translate(160.176513671875,92.659423828125)"/>
<path d="M0 0 C1.65 0 3.3 0 5 0 C5.33 0.99 5.66 1.98 6 3 C7.65 3 9.3 3 11 3 C11 3.33 11 3.66 11 4 C5.06 4.495 5.06 4.495 -1 5 C-0.67 3.35 -0.34 1.7 0 0 Z " fill="#D38531" transform="translate(157,80)"/>
<path d="M0 0 C-0.33 0.99 -0.66 1.98 -1 3 C-0.01 3.66 0.98 4.32 2 5 C-3.26053037 5.31563182 -6.44573816 4.66590937 -11 2 C-11 1.67 -11 1.34 -11 1 C-9.54182203 0.83197949 -8.0834516 0.66562857 -6.625 0.5 C-5.81289062 0.4071875 -5.00078125 0.314375 -4.1640625 0.21875 C-2 0 -2 0 0 0 Z " fill="#255B99" transform="translate(170,83)"/>
<path d="M0 0 C1.32 0 2.64 0 4 0 C3.34 2.31 2.68 4.62 2 7 C0.35 6.67 -1.3 6.34 -3 6 C-2.01 4.02 -1.02 2.04 0 0 Z " fill="#D48531" transform="translate(82,117)"/>
<path d="M0 0 C1.70884005 1.62339805 3.37446717 3.29319053 5 5 C5 5.66 5 6.32 5 7 C3.33388095 7.042721 1.66617115 7.04063832 0 7 C-1 6 -1 6 -1.125 3.5 C-1 1 -1 1 0 0 Z " fill="#FEF6EE" transform="translate(69,95)"/>
<path d="M0 0 C0.66 0.33 1.32 0.66 2 1 C0.71372289 2.17260611 -0.57919783 3.3379283 -1.875 4.5 C-2.59429687 5.1496875 -3.31359375 5.799375 -4.0546875 6.46875 C-6 8 -6 8 -8 8 C-8 7.34 -8 6.68 -8 6 C-8.66 5.67 -9.32 5.34 -10 5 C-8.38007835 4.13624104 -6.75388139 3.28424146 -5.125 2.4375 C-4.22007813 1.96183594 -3.31515625 1.48617187 -2.3828125 0.99609375 C-1.20332031 0.50302734 -1.20332031 0.50302734 0 0 Z " fill="#D38531" transform="translate(66,117)"/>
<path d="M0 0 C3.24208567 0.35049575 4.61527704 0.56221181 6.8125 3.0625 C7.204375 3.701875 7.59625 4.34125 8 5 C6.68 5.33 5.36 5.66 4 6 C2.68 4.02 1.36 2.04 0 0 Z " fill="#E28929" transform="translate(109,113)"/>
<path d="M0 0 C5.41538462 -0.36923077 5.41538462 -0.36923077 8.375 1.5 C8.91125 1.995 9.4475 2.49 10 3 C9.34 3 8.68 3 8 3 C7.67 3.66 7.34 4.32 7 5 C3.535 3.02 3.535 3.02 0 1 C0 0.67 0 0.34 0 0 Z " fill="#DD872C" transform="translate(123,110)"/>
<path d="M0 0 C2.64 0 5.28 0 8 0 C7.67 0.99 7.34 1.98 7 3 C4.69 3 2.38 3 0 3 C0 2.01 0 1.02 0 0 Z " fill="#F28D1F" transform="translate(154,97)"/>
<path d="M0 0 C3.16115776 1.36983503 3.9927092 1.9890638 6 5 C4.02 5 2.04 5 0 5 C0 3.35 0 1.7 0 0 Z " fill="#DB872C" transform="translate(56,66)"/>
<path d="M0 0 C-0.99 0.495 -0.99 0.495 -2 1 C-2 1.66 -2 2.32 -2 3 C-1.01 3.33 -0.02 3.66 1 4 C-1.3431213 3.74438677 -3.67843403 3.40729228 -6 3 C-6.33 2.34 -6.66 1.68 -7 1 C-4.53721199 -0.231394 -2.7204945 -0.07159196 0 0 Z " fill="#EE8C21" transform="translate(160,114)"/>
<path d="M0 0 C-0.33 0.66 -0.66 1.32 -1 2 C-3.64 2 -6.28 2 -9 2 C-8.67 1.34 -8.34 0.68 -8 0 C-4.71585695 -0.95067299 -3.30306592 -1.10102197 0 0 Z " fill="#C78338" transform="translate(156,105)"/>
<path d="M0 0 C2.875 -0.125 2.875 -0.125 6 0 C8 2 8 2 8 5 C6.35 4.67 4.7 4.34 3 4 C3.66 3.67 4.32 3.34 5 3 C5 2.34 5 1.68 5 1 C3.35 1 1.7 1 0 1 C0 0.67 0 0.34 0 0 Z " fill="#F29D42" transform="translate(72,82)"/>
<path d="M0 0 C2.475 0.99 2.475 0.99 5 2 C4.01 3.485 4.01 3.485 3 5 C0.525 4.01 0.525 4.01 -2 3 C-1.34 2.67 -0.68 2.34 0 2 C0 1.34 0 0.68 0 0 Z " fill="#285B97" transform="translate(132,108)"/>
</svg>
