<?xml version="1.0" encoding="UTF-8"?>
<svg version="1.1" xmlns="http://www.w3.org/2000/svg" width="579" height="121">
<path d="M0 0 C191.07 0 382.14 0 579 0 C579 39.93 579 79.86 579 121 C387.93 121 196.86 121 0 121 C0 81.07 0 41.14 0 0 Z " fill="#0F60AF" transform="translate(0,0)"/>
<path d="M0 0 C6.27 0 12.54 0 19 0 C18.35251969 9.1865275 17.4428833 18.29870643 16.3125 27.4375 C16.14287286 28.8241336 15.97327753 30.2107711 15.80371094 31.59741211 C13.32585965 51.74709689 10.64953738 71.87234769 8 92 C1.73 92 -4.54 92 -11 92 C-11.495 88.535 -11.495 88.535 -12 85 C-12.680625 85.7425 -13.36125 86.485 -14.0625 87.25 C-18.09304889 91.22394006 -22.1947586 94.19046845 -28 94.4375 C-34.16090368 94.0919174 -39.77353754 91.45491989 -44 87 C-50.01400625 77.88072255 -49.09492046 65.25724142 -47.52734375 54.8671875 C-44.85207346 44.6466938 -37.98095568 36.46960546 -29.17578125 30.83203125 C-23.4278981 28.63400771 -15.88111828 29.1129087 -10.08203125 30.8984375 C-7.9811487 31.84032761 -5.9797624 32.82680747 -4 34 C-3.95101562 33.18660156 -3.90203125 32.37320313 -3.8515625 31.53515625 C-3.39931338 24.60326892 -2.80020969 17.71226723 -2 10.8125 C-1.9170166 10.08232666 -1.8340332 9.35215332 -1.74853516 8.59985352 C-1.3889652 5.5901329 -0.96155338 2.88466013 0 0 Z " fill="#F7DC27" transform="translate(206,2)"/>
<path d="M0 0 C5.94 0 11.88 0 18 0 C18 10.10576923 18 10.10576923 17.34375 14.77734375 C17.20839844 15.78603516 17.07304688 16.79472656 16.93359375 17.83398438 C16.64506654 19.8991634 16.35600601 21.96426798 16.06640625 24.02929688 C15.22146422 30.33417386 14.48543297 36.63223298 15 43 C16.09354906 44.29524348 16.09354906 44.29524348 18.75 44.375 C22.11267309 44.26740637 22.11267309 44.26740637 24.625 42 C32.11876212 32.53419522 33.02324798 21.51221875 34.625 9.875 C34.7590625 8.91851562 34.893125 7.96203125 35.03125 6.9765625 C35.35677206 4.65140493 35.67876333 2.3257535 36 0 C42.27 0 48.54 0 55 0 C54.32725755 11.39657751 53.07585789 22.67304105 51.63574219 33.99536133 C51.37846895 36.04100921 51.12847221 38.08758531 50.88574219 40.13500977 C47.146099 71.66241942 47.146099 71.66241942 35 82 C25.20903027 88.27671095 14.24835635 87.91334703 3 87 C-0.67735166 86.10704485 -3.75205638 84.92099278 -7 83 C-7.66 82.67 -8.32 82.34 -9 82 C-7.36041242 76.76727367 -5.61047965 71.84803364 -3 67 C-2.40574219 67.28875 -1.81148437 67.5775 -1.19921875 67.875 C5.25050276 70.76383327 10.93752963 72.0993468 18 71 C22.47663127 68.84162421 24.98940477 66.55029447 27 62 C27.71923208 58.30476048 27.71923208 58.30476048 28 55 C27.154375 55.763125 26.30875 56.52625 25.4375 57.3125 C20.48069941 61.39866817 15.43363718 63.57262336 8.984375 63.28515625 C4.1942511 62.59681167 0.89242015 60.96287437 -2.375 57.4375 C-9.05867595 47.41198608 -4.47018527 30.07179732 -3.0625 18.625 C-2.97118805 17.87846161 -2.8798761 17.13192322 -2.78579712 16.36276245 C-1.21428581 3.64285743 -1.21428581 3.64285743 0 0 Z " fill="#F6DC27" transform="translate(524,33)"/>
<path d="M0 0 C0.86625 0.495 1.7325 0.99 2.625 1.5 C2.955 0.84 3.285 0.18 3.625 -0.5 C10.225 -0.5 16.825 -0.5 23.625 -0.5 C22.99397263 8.79626921 21.97496188 17.96118542 20.6875 27.1875 C19.39326637 36.62474163 18.14442682 46.05434604 17.22094727 55.53588867 C16.72728489 60.39771511 16.72728489 60.39771511 15.625 61.5 C14.20929877 61.58651611 12.789405 61.60704904 11.37109375 61.59765625 C10.51708984 61.59443359 9.66308594 61.59121094 8.78320312 61.58789062 C7.88537109 61.57951172 6.98753906 61.57113281 6.0625 61.5625 C5.16080078 61.55798828 4.25910156 61.55347656 3.33007812 61.54882812 C1.09498686 61.53700225 -1.13997437 61.5205222 -3.375 61.5 C-3.375 58.86 -3.375 56.22 -3.375 53.5 C-3.90609375 53.98210937 -4.4371875 54.46421875 -4.984375 54.9609375 C-5.69078125 55.59257813 -6.3971875 56.22421875 -7.125 56.875 C-7.82109375 57.50148437 -8.5171875 58.12796875 -9.234375 58.7734375 C-13.19782947 61.97023837 -16.11278098 62.89822637 -21.2890625 62.75390625 C-26.78854957 62.08449303 -31.51278086 59.36221914 -35.375 55.5 C-41.37330557 45.88655404 -41.65275035 35.20417103 -39.1875 24.3125 C-37.67340329 18.85603825 -35.46310331 14.22987975 -32.375 9.5 C-31.5396875 8.1696875 -31.5396875 8.1696875 -30.6875 6.8125 C-22.30164004 -1.57335996 -11.35054013 -4.76584545 0 0 Z " fill="#F5DB28" transform="translate(94.375,33.5)"/>
<path d="M0 0 C2.10626043 0.93797017 4.10735565 1.92284849 6.08984375 3.09765625 C6.08984375 2.10765625 6.08984375 1.11765625 6.08984375 0.09765625 C12.35984375 0.09765625 18.62984375 0.09765625 25.08984375 0.09765625 C24.41872314 11.86743401 23.01428313 23.49184013 21.50585938 35.17944336 C21.08501516 38.4476543 20.67304635 41.71690727 20.26171875 44.98632812 C19.99661928 47.06126513 19.73101347 49.13613752 19.46484375 51.2109375 C19.34189941 52.18992508 19.21895508 53.16891266 19.09228516 54.17756653 C18.97546387 55.07327866 18.85864258 55.96899078 18.73828125 56.8918457 C18.63692871 57.68234818 18.53557617 58.47285065 18.43115234 59.28730774 C18.08984375 61.09765625 18.08984375 61.09765625 17.08984375 62.09765625 C15.67414252 62.18417236 14.25424875 62.20470529 12.8359375 62.1953125 C11.98193359 62.19208984 11.12792969 62.18886719 10.24804688 62.18554688 C9.35021484 62.17716797 8.45238281 62.16878906 7.52734375 62.16015625 C6.62564453 62.15564453 5.72394531 62.15113281 4.79492188 62.14648438 C2.55983061 62.1346585 0.32486938 62.11817845 -1.91015625 62.09765625 C-1.91015625 59.45765625 -1.91015625 56.81765625 -1.91015625 54.09765625 C-2.44125 54.57976562 -2.97234375 55.061875 -3.51953125 55.55859375 C-4.2259375 56.19023438 -4.93234375 56.821875 -5.66015625 57.47265625 C-6.35625 58.09914062 -7.05234375 58.725625 -7.76953125 59.37109375 C-11.73298572 62.56789462 -14.64793723 63.49588262 -19.82421875 63.3515625 C-25.26971828 62.6887208 -30.1788681 60.03063565 -33.91015625 56.09765625 C-40.06194608 43.6905111 -40.21102461 32.25896018 -35.91015625 19.09765625 C-29.06952545 4.21410196 -16.93055613 -5.24960868 0 0 Z " fill="#F5DB28" transform="translate(295.91015625,32.90234375)"/>
<path d="M0 0 C5.54108562 3.12315735 9.70844316 7.75940141 11.96484375 13.8125 C14.07448897 23.29718594 12.54191132 33.22114262 8.4375 41.9375 C3.9564825 48.58732997 -1.49933243 54.30401347 -9.5625 55.9375 C-17.77933339 56.64728744 -26.22147294 57.15179331 -33.5625 52.9375 C-39.41536738 47.97265388 -42.04887429 41.80981056 -42.84375 34.26953125 C-43.24655627 22.36996283 -39.3366519 13.86666875 -31.5625 4.9375 C-23.524683 -2.45118214 -10.06618617 -3.15420147 0 0 Z " fill="#F5DB28" transform="translate(463.5625,36.0625)"/>
<path d="M0 0 C-0.20496094 0.67546875 -0.40992188 1.3509375 -0.62109375 2.046875 C-0.89050781 2.93890625 -1.15992188 3.8309375 -1.4375 4.75 C-1.70433594 5.63171875 -1.97117187 6.5134375 -2.24609375 7.421875 C-2.88302113 9.59996864 -3.44961145 11.79844581 -4 14 C-7.3 13.67 -10.6 13.34 -14 13 C-15.77586005 16.5517201 -16.48627846 18.91767077 -17.125 22.75 C-17.29257813 23.73484375 -17.46015625 24.7196875 -17.6328125 25.734375 C-17.75398438 26.48203125 -17.87515625 27.2296875 -18 28 C-15.03 28 -12.06 28 -9 28 C-8.97296619 29.93742341 -8.95358875 31.87495479 -8.9375 33.8125 C-8.92589844 34.89144531 -8.91429687 35.97039063 -8.90234375 37.08203125 C-9 40 -9 40 -10 43 C-13.3 43 -16.6 43 -20 43 C-20.12375 44.61519531 -20.2475 46.23039062 -20.375 47.89453125 C-21.00209441 55.40751971 -21.84954393 62.88994925 -22.72949219 70.37670898 C-23.0039605 72.72133228 -23.2715694 75.06668123 -23.5390625 77.41210938 C-23.71312686 78.9036943 -23.8875906 80.39523268 -24.0625 81.88671875 C-24.14169678 82.58762131 -24.22089355 83.28852386 -24.30249023 84.01066589 C-24.88559921 88.88559921 -24.88559921 88.88559921 -26 90 C-27.41570123 90.08651611 -28.835595 90.10704904 -30.25390625 90.09765625 C-31.10791016 90.09443359 -31.96191406 90.09121094 -32.84179688 90.08789062 C-33.73962891 90.07951172 -34.63746094 90.07113281 -35.5625 90.0625 C-36.46419922 90.05798828 -37.36589844 90.05347656 -38.29492188 90.04882812 C-40.53001314 90.03700225 -42.76497437 90.0205222 -45 90 C-43.86402336 79.53565048 -42.67364803 69.07800127 -41.4375 58.625 C-41.31076904 57.53775635 -41.18403809 56.4505127 -41.0534668 55.33032227 C-40.93140869 54.30608154 -40.80935059 53.28184082 -40.68359375 52.2265625 C-40.57587646 51.31471191 -40.46815918 50.40286133 -40.35717773 49.46337891 C-40.03651416 47.25183042 -39.5885434 45.15369807 -39 43 C-40.65 43 -42.3 43 -44 43 C-43.67 38.05 -43.34 33.1 -43 28 C-41.02 28 -39.04 28 -37 28 C-36.97421875 27.02160156 -36.9484375 26.04320313 -36.921875 25.03515625 C-36.49502416 15.16908106 -35.43576698 6.2233165 -28 -1 C-19.19527685 -6.43270152 -8.51951468 -5.34557784 0 0 Z " fill="#F6DC28" transform="translate(268,5)"/>
<path d="M0 0 C0.30203807 7.58451152 -0.6119861 14.53942531 -2 22 C1.96 22 5.92 22 10 22 C10.09038099 27.15171623 9.84681133 31.91913204 9 37 C4.71 37 0.42 37 -4 37 C-4.85585188 46.65889979 -5.46091996 56.31949893 -6 66 C-3.36 66 -0.72 66 2 66 C3.57077907 71.02649303 4.44854729 75.76119922 5 81 C-3.32365949 84.15482187 -10.64227364 86.92069436 -19.3125 83.8125 C-23.2448173 81.16047205 -25.49898186 78.50305441 -27 74 C-27.52852494 66.64244529 -26.57542189 59.39919253 -25.5625 52.125 C-25.42779297 51.10664062 -25.29308594 50.08828125 -25.15429688 49.0390625 C-24.06383351 40.95367558 -24.06383351 40.95367558 -23 37 C-24.98 37 -26.96 37 -29 37 C-29.09038099 31.84828377 -28.84681133 27.08086796 -28 22 C-25.69 22 -23.38 22 -21 22 C-21.061875 20.0509375 -21.061875 20.0509375 -21.125 18.0625 C-21.14055052 13.16408698 -20.2492718 8.71823189 -19 4 C-16.39688008 3.32900016 -13.79264602 2.66304662 -11.1875 2 C-10.44951172 1.80921875 -9.71152344 1.6184375 -8.95117188 1.421875 C-5.89464659 0.64737086 -3.16626522 0 0 0 Z " fill="#F6DB28" transform="translate(412,11)"/>
<path d="M0 0 C0.79027588 0.00354492 1.58055176 0.00708984 2.39477539 0.01074219 C8.77081741 0.1913629 14.10644259 1.41796656 19.1875 5.5 C20.94140625 7.671875 20.94140625 7.671875 22.1875 9.5 C20.66025034 13.53630268 18.14993269 15.28985046 14.6875 17.75 C13.7078125 18.45640625 12.728125 19.1628125 11.71875 19.890625 C9.1875 21.5 9.1875 21.5 7.1875 21.5 C7.1875 20.84 7.1875 20.18 7.1875 19.5 C3.1180591 18.1435197 -0.558137 17.98318478 -4.8125 18.5 C-9.06994497 20.72127564 -10.80743648 23.60057145 -12.31640625 28.14453125 C-13.51883475 33.85369965 -13.4377404 39.89029928 -11.8125 45.5 C-4.92668456 45.98989991 -1.58519963 45.52746486 4.1875 41.5 C7.95853559 42.60987001 11.16392971 44.57887689 14.5 46.625 C15.38300781 47.16382813 16.26601563 47.70265625 17.17578125 48.2578125 C17.83964844 48.66773438 18.50351562 49.07765625 19.1875 49.5 C16.59023404 55.4684647 11.29543101 59.90643294 5.3125 62.375 C-4.1597305 65.3477663 -14.26271423 65.3776667 -23.1875 60.75 C-30.09733705 54.82728252 -33.25193907 49.2833481 -34.1328125 40.1953125 C-34.5166778 28.50021649 -31.44059566 18.49589213 -23.8125 9.5 C-16.74682032 2.92359345 -9.5744759 -0.07713985 0 0 Z " fill="#F5DB28" transform="translate(33.8125,31.5)"/>
<path d="M0 0 C3.57983191 1.91335844 6.17311371 4.24740625 8.8125 7.3125 C7.28486536 11.39846252 4.70165809 13.11076179 1.1875 15.5625 C0.18460937 16.26890625 -0.81828125 16.9753125 -1.8515625 17.703125 C-3.00785156 18.49976563 -3.00785156 18.49976563 -4.1875 19.3125 C-6.1875 18.3125 -8.1875 17.3125 -10.1875 16.3125 C-15.81664181 15.82964134 -15.81664181 15.82964134 -20.9375 17.8125 C-25.92536208 23.35456897 -27.88471296 28.54253788 -27.4921875 36.03515625 C-27.05218885 39.32386408 -26.68405484 41.04290469 -24.1875 43.3125 C-21.07181915 43.97885949 -18.30802793 43.93990773 -15.1875 43.3125 C-12.4174003 41.34740091 -12.4174003 41.34740091 -10.1875 39.3125 C-6.39096992 39.64626089 -3.55856457 41.83144582 -0.4375 43.875 C0.54734375 44.51566406 1.5321875 45.15632813 2.546875 45.81640625 C3.29453125 46.31011719 4.0421875 46.80382812 4.8125 47.3125 C4.09028258 51.94079474 1.53700829 53.79594637 -1.92578125 56.69921875 C-9.32980807 61.98050213 -18.32924745 63.13488419 -27.1875 62.3125 C-34.31495142 60.5977798 -39.87514287 57.28990613 -44.1875 51.3125 C-49.0521202 43.0600193 -48.56412571 30.94009493 -46.34375 21.86328125 C-42.47882915 11.66563535 -36.3160688 4.67675089 -26.38671875 0.1875 C-18.6102353 -2.90651828 -7.8471292 -3.29287317 0 0 Z " fill="#F6DB28" transform="translate(368.1875,33.6875)"/>
<path d="M0 0 C-0.14203337 2.37528151 -0.28851612 4.75015251 -0.4375 7.125 C-0.47681641 7.79015625 -0.51613281 8.4553125 -0.55664062 9.140625 C-0.812152 13.15018817 -1.26782413 17.04994196 -2 21 C-2.59167969 20.95359375 -3.18335938 20.9071875 -3.79296875 20.859375 C-7.81356967 20.67572602 -10.30782987 20.60877341 -13.875 22.625 C-18.09405237 27.34041147 -19.44431462 32.20335507 -20.38671875 38.3671875 C-20.54682182 39.38656906 -20.54682182 39.38656906 -20.7101593 40.42654419 C-21.04535729 42.57469908 -21.36663682 44.72466226 -21.6875 46.875 C-21.91379304 48.34128819 -22.14099782 49.80743598 -22.36914062 51.2734375 C-22.92502662 54.84727909 -23.46199748 58.4232402 -24 62 C-30.27 62 -36.54 62 -43 62 C-42.33830785 52.55894911 -41.41176868 43.1798172 -40.32543945 33.77978516 C-40.06288449 31.50333372 -39.80562087 29.22632657 -39.54882812 26.94921875 C-38.55842536 18.26105428 -37.39129349 9.63475424 -36 1 C-29.73 1 -23.46 1 -17 1 C-16.67 2.98 -16.34 4.96 -16 7 C-15.54109375 6.57847656 -15.0821875 6.15695313 -14.609375 5.72265625 C-13.99578125 5.17480469 -13.3821875 4.62695312 -12.75 4.0625 C-12.14671875 3.51722656 -11.5434375 2.97195312 -10.921875 2.41015625 C-7.44204797 -0.14313147 -4.2210681 -0.11725189 0 0 Z " fill="#F6DC27" transform="translate(519,32)"/>
<path d="M0 0 C-0.6258645 7.00435592 -1.28674095 14.00399099 -2 21 C-2.59167969 20.95359375 -3.18335938 20.9071875 -3.79296875 20.859375 C-7.63751626 20.68376761 -10.31144738 20.66337428 -13.8125 22.375 C-20.07303131 29.88763758 -21.02442544 39.74232263 -22.25 49.125 C-22.42273438 50.36765625 -22.59546875 51.6103125 -22.7734375 52.890625 C-23.19365533 55.92553157 -23.598427 58.96257016 -24 62 C-30.27 62 -36.54 62 -43 62 C-42.409863 48.50154979 -40.83729087 35.30830483 -38.9375 21.9375 C-38.65238262 19.89526766 -38.36787371 17.85295028 -38.08398438 15.81054688 C-37.39742151 10.87249851 -36.69849136 5.93643283 -36 1 C-29.73 1 -23.46 1 -17 1 C-17 3.31 -17 5.62 -17 8 C-16.46890625 7.50628906 -15.9378125 7.01257812 -15.390625 6.50390625 C-14.33101562 5.54291016 -14.33101562 5.54291016 -13.25 4.5625 C-12.55390625 3.92441406 -11.8578125 3.28632812 -11.140625 2.62890625 C-7.5334387 -0.11597822 -4.44022299 -0.12333953 0 0 Z " fill="#F6DC27" transform="translate(159,32)"/>
<path d="M0 0 C0.49607081 6.25049219 0.08091723 10.58617921 -3.25390625 15.98046875 C-6.91819017 20.21857789 -11.74699706 22.34706751 -17.1796875 23.4375 C-21.50236723 23.70661625 -24.96178499 22.64173237 -28.5234375 20.32421875 C-31.21368632 17.91153528 -32.03053093 15.42165554 -33 12 C-33.13121244 9.32388373 -33.04729265 6.68177134 -33 4 C-28.81386921 3.32454235 -24.62590304 2.66120923 -20.4375 2 C-18.66536133 1.71382812 -18.66536133 1.71382812 -16.85742188 1.421875 C-11.18156175 0.531544 -5.74817031 -0.27010492 0 0 Z " fill="#1161AE" transform="translate(470,54)"/>
<path d="M0 0 C3.0625 2 3.0625 2 5 4 C4.09901114 13.04095714 2.16439997 20.97869423 -4.55078125 27.5078125 C-6.80062837 29.17049022 -8.9021007 29.97902158 -11.625 30.5625 C-15.12485641 29.73358664 -16.05265846 27.95737346 -18 25 C-19.16673988 18.29982466 -18.77043532 11.47431738 -15.1875 5.58984375 C-11.01908897 0.00910924 -6.73150369 -1.26596091 0 0 Z " fill="#1362AD" transform="translate(195,49)"/>
<path d="M0 0 C2.9375 1.1875 2.9375 1.1875 5 3 C6.97719782 9.07961897 4.36851927 14.35888943 2 20 C-0.42579234 24.48261303 -3.21551455 27.96659368 -8 30 C-10.5625 30.5 -10.5625 30.5 -13 30 C-15.77505635 27.82495583 -16.83118688 26.06062386 -17.38671875 22.5703125 C-17.71464597 14.58698086 -16.0101993 7.51189919 -10.75 1.375 C-7.03674722 -0.48162639 -4.07237355 -0.67461542 0 0 Z " fill="#1261AE" transform="translate(294,49)"/>
<path d="M0 0 C2.29695658 1.12662564 3.98297258 2.38637806 6 4 C4.82559639 13.37770044 2.56444798 20.9751716 -4.5 27.5625 C-6.69784812 29.26928878 -7.9518841 29.98769128 -10.6875 30.6875 C-14.06866188 29.68228971 -15.0766978 27.90685426 -17 25 C-18.16719674 18.29720107 -17.76554864 11.4803293 -14.19140625 5.58984375 C-10.34549425 0.4577579 -6.37272734 -1.29193693 0 0 Z " fill="#1161AE" transform="translate(91,49)"/>
</svg>
