<?xml version="1.0" encoding="UTF-8"?>
<svg version="1.1" xmlns="http://www.w3.org/2000/svg" width="2873" height="1019">
<path d="M0 0 C880.44 0 1760.88 0 2668 0 C2668 305 2668 305 2667 312 C2666.95767361 313.64398853 2666.95674681 315.28985347 2667.0078125 316.93359375 C2667.02666504 317.82159668 2667.04551758 318.70959961 2667.06494141 319.62451172 C2667.09467041 321.01694092 2667.09467041 321.01694092 2667.125 322.4375 C2667.21668959 330.69366887 2666.5422553 338.17269082 2664.78515625 346.22265625 C2663.98230295 350.08513954 2663.4937676 353.89223871 2663.0625 357.8125 C2662.10338314 366.25878152 2660.3087074 374.48081591 2658.48046875 382.77490234 C2657.79152693 385.9654591 2657.17902637 389.16976348 2656.5625 392.375 C2647.15963843 439.54178666 2629.43197758 484.01081838 2608.125 527 C2607.69703125 527.86544434 2607.2690625 528.73088867 2606.828125 529.62255859 C2604.21745683 534.81653157 2601.37326669 539.80929611 2598.34765625 544.77246094 C2596.79050395 547.34627572 2595.34808011 549.96833891 2593.9375 552.625 C2592.09958042 556.01622694 2590.23814057 559.38170615 2588.25 562.6875 C2587.86328125 563.33074219 2587.4765625 563.97398437 2587.078125 564.63671875 C2586.72234375 565.08660156 2586.3665625 565.53648437 2586 566 C2585.34 566 2584.68 566 2584 566 C2583.855625 566.61875 2583.71125 567.2375 2583.5625 567.875 C2583 570 2583 570 2582 572 C2581.34 572 2580.68 572 2580 572 C2579.855625 572.61875 2579.71125 573.2375 2579.5625 573.875 C2579 576 2579 576 2578 578 C2577.34 578 2576.68 578 2576 578 C2575.855625 578.61875 2575.71125 579.2375 2575.5625 579.875 C2575 582 2575 582 2574 584 C2573.34 584 2572.68 584 2572 584 C2571.855625 584.61875 2571.71125 585.2375 2571.5625 585.875 C2571 588 2571 588 2570 590 C2569.34 590 2568.68 590 2568 590 C2567.855625 590.61875 2567.71125 591.2375 2567.5625 591.875 C2567 594 2567 594 2566 596 C2565.34 596 2564.68 596 2564 596 C2563.87625 596.598125 2563.7525 597.19625 2563.625 597.8125 C2563 600 2563 600 2561 603 C2560.34 603 2559.68 603 2559 603 C2558.64035156 604.04994141 2558.64035156 604.04994141 2558.2734375 605.12109375 C2556.77948694 608.49852186 2554.86065795 611.12494943 2552.625 614.0625 C2551.85414063 615.08472656 2551.08328125 616.10695313 2550.2890625 617.16015625 C2548.30083919 619.62677459 2546.36886771 621.89825993 2544 624 C2543.34 624 2542.68 624 2542 624 C2541.84917969 624.87591797 2541.84917969 624.87591797 2541.6953125 625.76953125 C2540.87278033 628.40810356 2539.75629516 629.67544218 2537.875 631.6875 C2535.42669198 634.32196969 2533.23518725 637.03205278 2531.09765625 639.91796875 C2526.36633509 646.04414882 2520.86787407 651.39523155 2515.37573242 656.83007812 C2513.564345 658.62317363 2511.76112419 660.42417766 2509.95898438 662.2265625 C2504.65803515 667.51090491 2499.36220777 672.75212257 2493.6394043 677.58496094 C2489.77528425 680.92024609 2486.1418492 684.48981235 2483.0625 688.5625 C2480.70587856 691.34759807 2478.14329626 693.21205391 2475.19921875 695.33984375 C2472.89380685 697.08016357 2470.76700068 698.93772151 2468.625 700.875 C2460.69194082 708.02153365 2452.20233194 714.44067545 2443.62597656 720.79052734 C2441.9808016 722.01428061 2440.34559736 723.25052794 2438.7109375 724.48828125 C2423.18510435 736.15895622 2406.85746998 746.76431872 2389.78369141 756.0234375 C2386.87223737 757.61744464 2384.0011344 759.28084659 2381.125 760.9375 C2379.38014195 761.93258344 2377.63526428 762.92763324 2375.88964844 763.92138672 C2374.56844646 764.67553017 2373.24891714 765.43260813 2371.93066406 766.19189453 C2361.6497664 772.10398827 2351.28080897 777.35190345 2340.36572266 781.98925781 C2337.91694198 783.03548609 2335.47951996 784.10531018 2333.04296875 785.1796875 C2293.74386369 802.42060939 2252.23824865 815.36413191 2210 823 C2209.16452637 823.15307617 2208.32905273 823.30615234 2207.46826172 823.46386719 C2203.85216361 824.12457902 2200.23425362 824.76816158 2196.609375 825.37890625 C2194.44744421 825.75092681 2192.28909469 826.1466485 2190.140625 826.58984375 C2181.91069026 828.21918054 2173.64016137 828.40917851 2165.27514648 828.65869141 C2164.26653564 828.6901123 2163.2579248 828.7215332 2162.21875 828.75390625 C2161.31060547 828.77783447 2160.40246094 828.8017627 2159.46679688 828.82641602 C2157.09196403 828.91497239 2157.09196403 828.91497239 2155.22107593 829.47618239 C2146.4943381 831.53429255 2136.98627875 831.1460872 2128.06418705 831.12534916 C2126.92977009 831.12675148 2125.79535312 831.1281538 2124.62655989 831.12959861 C2120.83818931 831.1330689 2117.04985982 831.12944659 2113.26148987 831.12584114 C2110.50112186 831.1263289 2107.74075538 831.12832511 2104.98038805 831.13024551 C2098.96664407 831.13363024 2092.95290916 831.13331329 2086.939165 831.13056196 C2077.93635769 831.12646175 2068.9335577 831.12814804 2059.93075022 831.1309446 C2044.58587314 831.13554184 2029.24099936 831.13539594 2013.89612198 831.13266373 C1998.34684304 831.12991199 1982.79756628 831.12933252 1967.2482872 831.13140106 C1966.26599581 831.13153023 1965.28370443 831.13165941 1964.27164664 831.13179249 C1960.27089451 831.13232577 1956.27014239 831.13287448 1952.26939027 831.13344277 C1915.0086031 831.13873182 1877.7478174 831.13909093 1840.48703003 831.13629532 C1839.38298158 831.13621252 1838.27893314 831.13612973 1837.14142868 831.13604442 C1836.03561514 831.13596149 1834.9298016 831.13587856 1833.79047856 831.13579312 C1800.1121194 831.13327075 1766.43376084 831.13261817 1732.75540161 831.13381577 C1730.50084528 831.13389324 1728.24628894 831.1339704 1725.9917326 831.13404724 C1716.93178676 831.1343577 1707.87184092 831.13467636 1698.81189508 831.135007 C1673.48501441 831.13592404 1648.15813374 831.13649462 1622.83125305 831.13679314 C1621.67789141 831.13680678 1620.52452977 831.13682043 1619.33621778 831.13683449 C1582.58072774 831.13724381 1545.8252379 831.13611663 1509.06974792 831.13394356 C1507.87747702 831.13387331 1506.68520612 831.13380306 1505.4568058 831.13373068 C1486.09464648 831.13258571 1466.73248715 831.13136626 1447.37032783 831.13014051 C1370.5759862 831.12528411 1293.78164631 831.12550951 1216.98730469 831.13037109 C1197.63495382 831.13159227 1178.28260295 831.13280331 1158.93025208 831.13394356 C1157.73868513 831.13401401 1156.54711818 831.13408445 1155.31944314 831.13415704 C1118.60254438 831.13631296 1081.88564577 831.13722755 1045.16874695 831.13679314 C1043.43997214 831.13677276 1043.43997214 831.13677276 1041.67627259 831.13675197 C1016.37761141 831.1364395 991.07895024 831.13580589 965.78028908 831.13488263 C956.72840399 831.13455349 947.67651889 831.13424041 938.6246338 831.13393192 C936.37272507 831.13385453 934.12081635 831.1337758 931.86890762 831.13369573 C898.19879527 831.13250173 864.52868359 831.13351936 830.85857132 831.13604442 C829.20249865 831.13616862 829.20249865 831.13616862 827.51296997 831.13629532 C826.41095488 831.136378 825.30893979 831.13646068 824.17353031 831.13654587 C787.02106717 831.13930287 749.86860578 831.13829196 712.71614289 831.13301457 C708.72799953 831.13246221 704.73985617 831.13192551 700.7517128 831.13140106 C699.77294329 831.13127086 698.79417377 831.13114065 697.78574458 831.1310065 C682.27720356 831.12903282 666.76866473 831.13040871 651.26012391 831.13317007 C636.01690927 831.13581303 620.77369832 831.13489103 605.53048415 831.13015598 C596.59025257 831.12748489 587.65003109 831.12754736 578.70979999 831.13163758 C572.77311765 831.13408044 566.83644318 831.13290088 560.89976179 831.12877072 C557.53394706 831.12653033 554.16816886 831.12638394 550.80235247 831.12958724 C547.18015367 831.13279065 543.55800925 831.12982677 539.93581295 831.12534916 C538.90724782 831.12773991 537.8786827 831.13013065 536.81894893 831.13259384 C518.79655599 831.0872902 518.79655599 831.0872902 511 829 C509.30946816 828.88906099 507.61570776 828.822766 505.921875 828.7890625 C504.93356689 828.76271729 503.94525879 828.73637207 502.92700195 828.70922852 C501.35438599 828.6675354 501.35438599 828.6675354 499.75 828.625 C490.59915927 828.31775948 482.05642177 827.39324444 473.12841797 825.41894531 C470.41841977 824.88552516 467.69695598 824.48712751 464.96484375 824.08203125 C414.05530074 816.38652946 363.16092036 799.69760895 317 777 C316.40638672 776.7127002 315.81277344 776.42540039 315.20117188 776.12939453 C297.92414436 767.76561974 281.05931179 758.60050826 264.91210938 748.21777344 C262.93791677 746.96046079 260.94867142 745.73092014 258.953125 744.5078125 C241.12767399 733.56782033 224.39286954 720.97255278 208 708 C207.16984375 707.34386719 206.3396875 706.68773437 205.484375 706.01171875 C201.08773005 702.51678093 196.74541038 698.97997315 192.51171875 695.2890625 C191.21579081 694.18400766 189.86248606 693.14686455 188.5 692.125 C185.65728291 689.70869047 183.37238175 687.03883705 180.94921875 684.2109375 C176.45883613 679.11763777 171.62829169 674.38319614 166.47265625 669.96875 C161.25029909 665.42621911 156.36342561 660.54948108 151.47216797 655.6574707 C149.87615448 654.06365289 148.27228416 652.47803365 146.66796875 650.89257812 C141.81413555 646.06479319 137.16456101 641.26400949 133.19482422 635.66040039 C130.93294587 632.51715669 128.1940641 629.78959965 125.5390625 626.98046875 C124 625 124 625 124 622 C123.401875 621.773125 122.80375 621.54625 122.1875 621.3125 C119.40651597 619.64390958 118.4358084 617.8716168 117 615 C117 614.34 117 613.68 117 613 C116.4225 612.79375 115.845 612.5875 115.25 612.375 C112.15522364 610.48374778 110.8081237 608.09964063 109 605 C109 604.34 109 603.68 109 603 C108.01 602.67 107.02 602.34 106 602 C104 599 104 599 104 596 C103.34 596 102.68 596 102 596 C100 593 100 593 100 590 C99.34 590 98.68 590 98 590 C96 587 96 587 96 584 C95.34 584 94.68 584 94 584 C92 581 92 581 92 578 C91.34 578 90.68 578 90 578 C88 575 88 575 88 572 C87.34 572 86.68 572 86 572 C84 569 84 569 84 566 C83.34 566 82.68 566 82 566 C80.5044674 563.79782063 79.14439771 561.61165884 77.8125 559.3125 C77.4095874 558.62768555 77.0066748 557.94287109 76.59155273 557.23730469 C73.2476659 551.51552804 70.0576717 545.71789374 66.97607422 539.85058594 C65.88020246 537.77287009 64.77037592 535.70289561 63.66015625 533.6328125 C57.7546499 522.5794179 52.1999606 511.40229659 47 500 C46.60844727 499.14519043 46.21689453 498.29038086 45.81347656 497.40966797 C35.59832541 474.95856018 26.92423084 451.67863412 20 428 C19.77618652 427.23800293 19.55237305 426.47600586 19.32177734 425.69091797 C16.80562884 417.05566849 14.54008359 408.41947866 12.74609375 399.6015625 C12.20741644 397.00124584 11.64080551 394.42043494 11.03515625 391.8359375 C8.76015584 382.07451055 7.06095117 372.33262414 5.65234375 362.41015625 C5.19504794 359.21970496 4.64338569 356.08388972 3.9375 352.9375 C-19.97876739 237.74081207 0 117.65315447 0 0 Z " fill="#262E9C" transform="translate(107,100)"/>
<path d="M0 0 C3.81922554 1.27307518 6.98044093 2.36530644 10.48901367 4.12304688 C11.31974899 4.53687622 12.15048431 4.95070557 13.00639343 5.3770752 C13.88471329 5.81982788 14.76303314 6.26258057 15.66796875 6.71875 C16.58459793 7.1772937 17.50122711 7.6358374 18.44563293 8.10827637 C20.37543232 9.07468183 22.30426302 10.04302379 24.23217773 11.01318359 C27.18569329 12.49909105 30.14237671 13.97853768 33.09960938 15.45703125 C34.97675199 16.39805961 36.85371151 17.3394533 38.73046875 18.28125 C39.6148613 18.72400269 40.49925385 19.16675537 41.41044617 19.6229248 C42.23172501 20.03675415 43.05300385 20.4505835 43.89916992 20.87695312 C44.62053635 21.23954224 45.34190277 21.60213135 46.08512878 21.97570801 C48 23 48 23 51 25 C56.48941939 24.81391799 61.34471547 23.65071138 66.625 22.1875 C96.2285878 14.43125898 132.04381199 11.92465851 162 19 C162.78729492 19.18272461 163.57458984 19.36544922 164.38574219 19.55371094 C201.82213478 28.64050372 231.25950758 51.01395924 252 83 C252.97453125 84.47919922 252.97453125 84.47919922 253.96875 85.98828125 C262.00247277 98.89701307 267.6230512 114.21973132 271 129 C271.29777344 130.27101563 271.59554687 131.54203125 271.90234375 132.8515625 C276.68244428 155.94378389 275.77780102 182.22129656 270 205 C269.82871582 205.73202637 269.65743164 206.46405273 269.48095703 207.21826172 C260.5279868 245.13722977 233.83027542 277.51989938 201.12304688 297.74755859 C191.25640421 303.56815161 180.8189038 308.0260692 169.875 311.375 C168.76862183 311.7148291 168.76862183 311.7148291 167.63989258 312.06152344 C153.19540351 316.18896365 139.07709677 317.51784547 124.125 317.375 C123.29604218 317.37167664 122.46708435 317.36835327 121.61300659 317.3649292 C106.84823166 317.29550487 93.25298478 316.07228137 79 312 C79 352.92 79 393.84 79 436 C52.93 436 26.86 436 0 436 C0 292.12 0 148.24 0 0 Z " fill="#FEFEFE" transform="translate(2246,320)"/>
<path d="M0 0 C1.81918285 1.57289348 3.60770348 3.18152387 5.375 4.8125 C6.28330566 5.6492627 6.28330566 5.6492627 7.20996094 6.50292969 C17.12223272 15.73793546 25.21330391 25.32876723 32.375 36.8125 C33.33792969 38.28203125 33.33792969 38.28203125 34.3203125 39.78125 C48.67006107 62.6893688 55.04298966 90.47045148 54.75 117.25 C54.74534729 118.0141925 54.74069458 118.77838501 54.73590088 119.56573486 C54.65526889 130.88463501 54.19784695 141.81024478 51.375 152.8125 C51.07698486 154.03501465 51.07698486 154.03501465 50.77294922 155.28222656 C45.01857581 178.51523981 35.17009454 199.66869252 19.375 217.8125 C18.18003906 219.22402344 18.18003906 219.22402344 16.9609375 220.6640625 C-7.39586254 248.81672748 -46.02058244 266.26492736 -83.00646973 268.98782349 C-87.76621609 269.2137951 -92.5201472 269.24142115 -97.28442383 269.20361328 C-99.69084075 269.1874776 -102.09558509 269.20361041 -104.50195312 269.22265625 C-144.60797639 269.2775034 -182.20169763 251.56469662 -210.625 223.8125 C-228.96832306 205.26340248 -241.61480973 181.10488018 -247.625 155.8125 C-247.80836914 155.06242676 -247.99173828 154.31235352 -248.18066406 153.53955078 C-257.22803587 115.26044213 -251.15394699 73.26432836 -230.95605469 39.42773438 C-226.41044447 32.07217419 -221.34342942 25.30714235 -215.625 18.8125 C-214.43777344 17.42611328 -214.43777344 17.42611328 -213.2265625 16.01171875 C-204.0272404 5.52100916 -193.2281758 -2.55974642 -181.625 -10.1875 C-180.70460938 -10.79464844 -179.78421875 -11.40179688 -178.8359375 -12.02734375 C-125.35862165 -45.24353571 -48.88934983 -38.29300345 0 0 Z " fill="#FEFEFE" transform="translate(2144.625,368.1875)"/>
<path d="M0 0 C0.99 1.485 0.99 1.485 2 3 C-22.61009934 47.43162252 -22.61009934 47.43162252 -33 65 C-33.67804688 64.56429687 -34.35609375 64.12859375 -35.0546875 63.6796875 C-37.01564343 62.42489298 -38.9808115 61.17666669 -40.94921875 59.93359375 C-42.77528316 58.77622898 -44.59342767 57.60599501 -46.39453125 56.41015625 C-67.8133001 42.65397932 -97.42331857 38.2873607 -122.38671875 41.42578125 C-125.07112414 42.0798292 -127.45864762 42.91522968 -130 44 C-131.79244141 44.74830078 -131.79244141 44.74830078 -133.62109375 45.51171875 C-141.25263256 48.76768013 -141.25263256 48.76768013 -146.9375 54.5625 C-148.12179088 58.39402933 -148.31395933 60.22236693 -147 64 C-141.41901706 72.06558161 -131.77050314 73.92630829 -122.71484375 76.29296875 C-121.90240204 76.50604172 -121.08996033 76.71911469 -120.25289917 76.93864441 C-113.29909147 78.72869381 -106.30391303 80.30125127 -99.2890625 81.83203125 C-97.62349052 82.19692154 -97.62349052 82.19692154 -95.92427063 82.56918335 C-91.34630361 83.57011475 -86.76818003 84.56937549 -82.18457031 85.54418945 C-50.26767471 92.35461282 -17.44998854 102.98720031 1.3125 131.75 C12.44746631 151.65414658 13.75474161 176.22738136 8 198 C0.64157147 222.16191739 -16.96426821 241.6397187 -38.875 253.6875 C-81.05927035 275.61708837 -132.35572193 275.72041822 -177 262 C-177.7528125 261.77538086 -178.505625 261.55076172 -179.28125 261.31933594 C-190.70156185 257.85176659 -201.45005966 253.10019361 -212.1875 247.9375 C-212.80896912 247.64022003 -213.43043823 247.34294006 -214.07073975 247.03665161 C-221.41630147 243.50497716 -228.38071079 239.76915702 -235 235 C-233.41447329 229.71878928 -231.14040132 224.93653938 -228.7109375 220.0078125 C-228.07776108 218.71241043 -228.07776108 218.71241043 -227.43179321 217.39083862 C-226.08303323 214.63382686 -224.72902703 211.87942815 -223.375 209.125 C-222.48795213 207.31266105 -221.60123044 205.50016241 -220.71484375 203.6875 C-215.53105008 193.0975959 -210.29303897 182.53570358 -205 172 C-204.40799805 172.26103516 -203.81599609 172.52207031 -203.20605469 172.79101562 C-149.56945579 197.46120064 -149.56945579 197.46120064 -92 196 C-83.9001946 192.70427724 -77.19273322 188.90433312 -73 181 C-72.09369145 178.28107436 -71.77798422 176.38656013 -71.6875 173.5625 C-71.65011719 172.80066406 -71.61273437 172.03882813 -71.57421875 171.25390625 C-72.17135296 168.09292973 -73.53448045 167.01034671 -76 165 C-83.00298016 161.02269768 -91.03841944 159.00963368 -98.75 156.875 C-99.61737793 156.63346191 -100.48475586 156.39192383 -101.37841797 156.14306641 C-106.73837252 154.710149 -112.11593189 153.5749107 -117.57421875 152.58984375 C-125.71540755 151.11528378 -133.73746161 149.26018404 -141.76391602 147.25805664 C-144.06204757 146.6876123 -146.36378163 146.13369953 -148.66601562 145.58007812 C-162.10948254 142.2826189 -174.64113525 137.62023274 -186.875 131.0625 C-188.082771 130.42127197 -188.082771 130.42127197 -189.31494141 129.76708984 C-195.00890786 126.68242429 -200.12574498 123.27827624 -205 119 C-205.80824219 118.37867188 -206.61648438 117.75734375 -207.44921875 117.1171875 C-222.00230402 105.03790386 -228.2632771 87.24513294 -230 69 C-231.43809938 48.82368039 -225.24051979 29.58240709 -211.9765625 14.21875 C-211.32429688 13.4865625 -210.67203125 12.754375 -210 12 C-209.40960937 11.2678125 -208.81921875 10.535625 -208.2109375 9.78125 C-187.76889706 -14.92317334 -153.44643476 -27.75345788 -122.34838867 -30.82788086 C-80.35001423 -33.90604428 -34.77719876 -24.73898524 0 0 Z " fill="#FDFDFE" transform="translate(1634,366)"/>
<path d="M0 0 C0 33.33 0 66.66 0 101 C22.77 101 45.54 101 69 101 C69 123.11 69 145.22 69 168 C46.23 168 23.46 168 0 168 C0.1198354 192.41216873 0.1198354 192.41216873 0.2578125 216.82421875 C0.31813834 226.78529772 0.37650352 236.74635972 0.421875 246.70751953 C0.45493412 253.96351783 0.49484097 261.21944156 0.54279006 268.47535729 C0.56791747 272.31323655 0.58973841 276.15106721 0.60334396 279.98900604 C0.61629043 283.61039348 0.63847655 287.2316131 0.66738319 290.85290718 C0.68060331 292.7971839 0.68435596 294.741518 0.68769836 296.68583679 C0.2323368 309.39400912 0.2323368 309.39400912 4.45090294 320.8044548 C7.77797548 323.37218648 12.03863832 322.42534673 16 322 C29.6078721 319.89991434 41.57344993 313.19408495 53.71606445 307.03808594 C56 306 56 306 58 306 C64.89850241 319.68955152 71.73981543 333.39527579 78.29907227 347.2512207 C81.12223831 353.20830682 84.04598927 359.08540865 87.171875 364.890625 C88 367 88 367 87 370 C85.44726562 371.02392578 85.44726562 371.02392578 83.40625 371.9453125 C82.63651855 372.29553467 81.86678711 372.64575684 81.07373047 373.0065918 C79.79973389 373.56020386 79.79973389 373.56020386 78.5 374.125 C77.61070801 374.51534424 76.72141602 374.90568848 75.80517578 375.30786133 C40.16020779 390.67525431 3.8624238 401.6169402 -34 388 C-42.39105815 384.59143438 -49.25637975 380.01037653 -56 374 C-56.77214844 373.33355469 -57.54429688 372.66710937 -58.33984375 371.98046875 C-69.91995385 361.31093141 -78.34864117 344.35271678 -79.1814003 328.5598278 C-79.24578431 324.34641086 -79.24773701 320.13724742 -79.22705078 315.92358398 C-79.22648587 314.30651354 -79.22680479 312.68944258 -79.22793579 311.07237244 C-79.22850717 306.70523055 -79.21678775 302.33819961 -79.20278788 297.9710834 C-79.19024461 293.3987019 -79.18910719 288.82631756 -79.18673706 284.25392151 C-79.18053283 275.60561762 -79.16413637 266.95736459 -79.14403808 258.30908304 C-79.12164611 248.45900843 -79.11067737 238.60893133 -79.10064721 228.75883758 C-79.07976917 208.50585707 -79.04310619 188.25294624 -79 168 C-94.51 168 -110.02 168 -126 168 C-126 145.89 -126 123.78 -126 101 C-110.49 101 -94.98 101 -79 101 C-79 82.19 -79 63.38 -79 44 C-53.05361174 29.33465011 -53.05361174 29.33465011 -43.5 24 C-33.2628695 18.27519276 -23.0442387 12.51822992 -12.8359375 6.7421875 C-12.00803711 6.27393555 -11.18013672 5.80568359 -10.32714844 5.32324219 C-8.18293605 4.10401945 -6.04821629 2.86951614 -3.9140625 1.6328125 C-1 0 -1 0 0 0 Z " fill="#FEFEFE" transform="translate(1794,241)"/>
<path d="M0 0 C1.216875 0.32871094 2.43375 0.65742188 3.6875 0.99609375 C30.28146787 9.00198616 50.64487012 27.74856363 63.98876953 51.78076172 C76.98318925 76.03123952 80.81392112 108.55693115 73.26171875 135.13671875 C72.85245641 136.4281183 72.43191758 137.71600013 72 139 C71.78037598 139.65307129 71.56075195 140.30614258 71.33447266 140.97900391 C62.04663937 167.60675526 44.51968987 190.38172166 19.01171875 203.0390625 C10.29190313 207.13363999 1.38631857 209.87350152 -8 212 C-8.77158447 212.1750708 -9.54316895 212.3501416 -10.33813477 212.53051758 C-25.40533349 215.18797178 -42.5404657 214.00673428 -57 209 C-57.7027002 208.75862305 -58.40540039 208.51724609 -59.12939453 208.26855469 C-86.17415803 198.66793536 -106.64895369 179.49840068 -119.1875 153.6875 C-131.58562878 125.74948228 -133.51736287 93.05899132 -122.62182617 64.28662109 C-117.3579934 51.23538185 -110.43030958 39.50231635 -101 29 C-100.08154297 27.95779297 -100.08154297 27.95779297 -99.14453125 26.89453125 C-74.53439537 0.60523898 -34.39287585 -9.4810718 0 0 Z " fill="#262E9C" transform="translate(524,385)"/>
<path d="M0 0 C0.91604004 0.52400391 0.91604004 0.52400391 1.85058594 1.05859375 C26.73249069 15.56528888 43.74234977 38.98199507 52.078125 66.49609375 C56.38172637 82.85342609 57 96.51493659 57 114 C-10.98 114 -78.96 114 -149 114 C-149 147.97764134 -141.7503724 175.39924521 -118.125 200.25 C-98.07425809 219.22872205 -73.27373937 229.43670785 -45.75 229.3125 C-44.46528809 229.30758545 -43.18057617 229.3026709 -41.85693359 229.29760742 C-32.85368556 229.18625176 -24.66854891 228.5796766 -16 226 C-14.24042969 225.50693359 -14.24042969 225.50693359 -12.4453125 225.00390625 C5.33719641 219.57140617 20.90476522 210.71371534 36 200 C41.49865685 202.2144149 43.72253492 207.06988527 46.8125 211.875 C47.42287109 212.78636719 48.03324219 213.69773437 48.66210938 214.63671875 C49.23380859 215.51714844 49.80550781 216.39757812 50.39453125 217.3046875 C50.91893799 218.10890137 51.44334473 218.91311523 51.98364258 219.74169922 C53 222 53 222 52.82348633 224.15869141 C51.43789789 227.25685565 48.64147232 228.72546546 45.875 230.5 C45.21902832 230.92579346 44.56305664 231.35158691 43.88720703 231.7902832 C8.46017825 254.2387329 -33.37999938 265.86716794 -75.4140625 258.8125 C-101.10908364 252.99053443 -122.46324635 241.56416304 -142 224 C-142.65355469 223.43023438 -143.30710937 222.86046875 -143.98046875 222.2734375 C-167.56867213 200.42213271 -180.87663055 163.60084709 -182.16113281 132.04101562 C-182.1809398 130.66283166 -182.19470857 129.28455059 -182.203125 127.90625 C-182.21167511 126.78156311 -182.21167511 126.78156311 -182.22039795 125.63415527 C-182.22978285 124.05429464 -182.23635577 122.474415 -182.24023438 120.89453125 C-182.24986344 118.533485 -182.28091686 116.17334001 -182.3125 113.8125 C-182.38387356 103.51024281 -181.29164255 94.05443534 -179 84 C-178.7100415 82.71939697 -178.42008301 81.43879395 -178.12133789 80.11938477 C-173.25974276 59.49172321 -163.40012729 38.63957487 -149 23 C-148.52578613 22.4834082 -148.05157227 21.96681641 -147.56298828 21.43457031 C-109.64474768 -19.40418674 -48.24304207 -27.68334311 0 0 Z " fill="#FDFDFE" transform="translate(1145,368)"/>
<path d="M0 0 C0.94770264 0.29898193 0.94770264 0.29898193 1.91455078 0.60400391 C17.14431934 5.52159509 30.98004397 13.41495221 43 24 C43.82757812 24.70769531 44.65515625 25.41539062 45.5078125 26.14453125 C71.24963542 48.61942557 87.3057041 81.07189727 90.18301392 115.16876221 C90.46743698 120.17469426 90.48067736 125.17510776 90.4375 130.1875 C90.43293793 131.32262527 90.43293793 131.32262527 90.42828369 132.48068237 C90.19970974 171.15793531 76.50343838 205.18419484 49.2421875 232.79296875 C42.65988936 238.98186423 35.5465312 244.0828891 28 249 C27.19175781 249.54398438 26.38351562 250.08796875 25.55078125 250.6484375 C15.09994022 257.35542886 3.253065 261.61710335 -8.6875 264.8125 C-9.40993896 265.007229 -10.13237793 265.20195801 -10.87670898 265.40258789 C-22.8294419 268.41832575 -34.8273897 269.39122172 -47.125 269.375 C-47.7967627 269.37478851 -48.46852539 269.37457703 -49.16064453 269.37435913 C-60.82915364 269.33792094 -71.76911255 268.19616249 -83 265 C-83.66837891 264.81276367 -84.33675781 264.62552734 -85.02539062 264.43261719 C-108.0632443 257.78310708 -126.49951794 246.23997833 -144 230 C-144.59425781 229.47148438 -145.18851562 228.94296875 -145.80078125 228.3984375 C-165.63475706 209.93721897 -177.73903909 181.3524044 -182 155 C-182.18304688 153.87980469 -182.36609375 152.75960937 -182.5546875 151.60546875 C-184.61430538 134.32687802 -184.81794826 113.76376876 -180 97 C-179.74718262 96.10587402 -179.49436523 95.21174805 -179.23388672 94.29052734 C-168.85601196 58.61107678 -148.15531789 28.27680651 -115.42382812 9.69970703 C-80.21565392 -9.44681582 -37.98689348 -12.08486405 0 0 Z M-116 50 C-116.70769531 50.62390625 -117.41539062 51.2478125 -118.14453125 51.890625 C-128.07630376 61.21512937 -134.51668339 73.03664816 -140.18798828 85.25341797 C-140.85558806 86.68937973 -141.54755372 88.1139886 -142.24609375 89.53515625 C-152.2718057 111.65413942 -152.37029056 141.18162498 -145 164 C-144.67056396 165.03253906 -144.67056396 165.03253906 -144.33447266 166.0859375 C-135.6989632 192.38971153 -118.80258665 215.09383188 -93.99316406 228.04785156 C-69.01004858 240.32768799 -40.58194502 243.32427107 -14.03466797 234.33447266 C12.64938016 225.01780352 33.52650975 206.1051512 45.8125 180.75 C58.4059544 153.81740985 60.37733773 121.14866335 50.64453125 92.9765625 C40.42854765 65.12588683 21.15131285 43.31419979 -5.76171875 30.7578125 C-43.45911797 14.35682288 -85.7579264 23.22365854 -116 50 Z " fill="#FCFCFD" transform="translate(544,359)"/>
<path d="M0 0 C0 202.62 0 405.24 0 614 C-6.71431488 617.35715744 -13.39660674 620.36802873 -20.3125 623.25 C-21.39595703 623.70890625 -22.47941406 624.1678125 -23.59570312 624.640625 C-24.63275391 625.07375 -25.66980469 625.506875 -26.73828125 625.953125 C-27.67712158 626.34661133 -28.61596191 626.74009766 -29.58325195 627.14550781 C-32 628 -32 628 -35 628 C-35 425.38 -35 222.76 -35 14 C-1 0 -1 0 0 0 Z " fill="#CF2128" transform="translate(1317,201)"/>
<path d="M0 0 C1.18080643 0.00373123 1.18080643 0.00373123 2.38546753 0.00753784 C31.48329566 0.14955764 57.22613248 6.84298907 79.0625 27.3125 C88.8145032 37.55606759 95.27671062 49.18389654 99.875 62.4375 C100.29193115 63.60611572 100.29193115 63.60611572 100.71728516 64.79833984 C105.66149932 79.95598242 106.51357819 96.01473278 106.40307617 111.83105469 C106.40222665 113.57782476 106.40271136 115.3245959 106.40440369 117.07136536 C106.4052524 121.74161742 106.38781244 126.41163077 106.36668181 131.08182812 C106.34772402 135.9891299 106.34614972 140.89643922 106.34260559 145.80377197 C106.33334054 155.06443323 106.30880309 164.32498621 106.27855712 173.58560014 C106.24483894 184.14207508 106.22848364 194.69855564 106.21347082 205.25507116 C106.18224754 226.94095434 106.12730618 248.62668939 106.0625 270.3125 C95.5025 270.3125 84.9425 270.3125 74.0625 270.3125 C74.0531543 265.29772461 74.04380859 260.28294922 74.03417969 255.11621094 C74.00031547 238.49211744 73.94491213 221.86814626 73.87859726 205.24415207 C73.83893577 195.17139195 73.80647823 185.09870849 73.79150391 175.02587891 C73.77842012 166.23744398 73.7512859 157.44917866 73.70788693 148.66083932 C73.68542208 144.01558062 73.66958021 139.37052993 73.67061615 134.7252121 C73.66998203 104.07066982 73.37486008 73.36496444 50.9375 49.625 C31.86841411 31.43802149 10.02761808 29.67838267 -15.13916016 30.18066406 C-38.63038577 30.99601705 -59.32177377 36.81617399 -80.17016602 47.46801758 C-81.9375 48.3125 -81.9375 48.3125 -84.9375 49.3125 C-84.9375 122.2425 -84.9375 195.1725 -84.9375 270.3125 C-95.1675 270.3125 -105.3975 270.3125 -115.9375 270.3125 C-115.9375 182.5325 -115.9375 94.7525 -115.9375 4.3125 C-111.66924069 5.7352531 -108.78782835 6.81572199 -105.07421875 9.01953125 C-104.18669922 9.52291016 -103.29917969 10.02628906 -102.38476562 10.54492188 C-100.54521963 11.59813682 -98.71688118 12.67117325 -96.90039062 13.76367188 C-92.0393085 16.57762943 -92.0393085 16.57762943 -86.6003418 17.08496094 C-84.27713886 16.31792553 -82.14401722 15.36707294 -79.9375 14.3125 C-78.40112629 13.74484187 -76.85782508 13.19562829 -75.30859375 12.6640625 C-74.51356445 12.38328857 -73.71853516 12.10251465 -72.89941406 11.81323242 C-64.26370462 8.81745972 -55.63632482 6.37329404 -46.6875 4.5 C-45.76767334 4.3055127 -44.84784668 4.11102539 -43.90014648 3.91064453 C-29.30726685 1.00764319 -14.848149 -0.07552747 0 0 Z " fill="#FDFDFE" transform="translate(801.9375,352.6875)"/>
<path d="M0 0 C16.46365258 13.91032359 26.2478267 32.80533241 28.6875 54.125 C29.98352696 78.61110158 25.90677101 101.50599824 9.1875 120.5 C-4.56201808 134.98898796 -21.86537297 143.67094237 -42.0625 144.4375 C-62.64328092 143.9148135 -80.67038484 134.86815455 -94.7734375 120.17578125 C-110.99707893 100.68245208 -114.85266403 76.7184703 -113.3125 52.125 C-110.88946128 33.14453001 -101.53195273 16.622757 -88.3125 3.125 C-87.72210937 2.49851562 -87.13171875 1.87203125 -86.5234375 1.2265625 C-62.68684801 -21.97998497 -24.92882703 -19.04759691 0 0 Z " fill="#262E9C" transform="translate(2088.3125,421.875)"/>
<path d="M0 0 C16.38329002 14.10978626 25.94056938 34.63653903 28 56 C29.19557019 79.17566837 24.10396675 100.02316956 8.875 118.125 C-5.5612744 133.54166655 -24.82792918 139.84504525 -45.53735352 140.92529297 C-59.07010574 141.36768933 -72.79436973 139.10281513 -85 133 C-85 85.81 -85 38.62 -85 -10 C-55.0273227 -18.56362208 -25.762333 -19.87081165 0 0 Z " fill="#272F9C" transform="translate(2410,424)"/>
<path d="M0 0 C21.79987811 -0.73469202 41.09157218 5.05109704 57.7109375 19.47265625 C72.23062856 33.12781609 79.59177729 52.12352304 84.08203125 71.19140625 C84.08203125 72.18140625 84.08203125 73.17140625 84.08203125 74.19140625 C29.63203125 74.19140625 -24.81796875 74.19140625 -80.91796875 74.19140625 C-77.38642322 60.06522411 -77.38642322 60.06522411 -74.66796875 53.62890625 C-74.3642334 52.90493652 -74.06049805 52.1809668 -73.74755859 51.43505859 C-64.44381162 29.8862563 -48.26005356 14.50978131 -26.91796875 5.19140625 C-18.0614804 1.78774476 -9.38877178 0.4586738 0 0 Z " fill="#262E9C" transform="translate(1080.91796875,381.80859375)"/>
<path d="M0 0 C0.33 0 0.66 0 1 0 C2.2952014 6.59375258 1.60065326 12.14720233 0.25634766 18.6472168 C-0.71349588 23.35904902 -1.40877271 28.02511473 -1.9375 32.8125 C-2.89711333 41.25876982 -4.69127722 49.48074614 -6.51953125 57.77490234 C-7.20847307 60.9654591 -7.82097363 64.16976348 -8.4375 67.375 C-17.84036157 114.54178666 -35.56802242 159.01081838 -56.875 202 C-57.30296875 202.86544434 -57.7309375 203.73088867 -58.171875 204.62255859 C-60.78254317 209.81653157 -63.62673331 214.80929611 -66.65234375 219.77246094 C-68.20949605 222.34627572 -69.65191989 224.96833891 -71.0625 227.625 C-72.90041958 231.01622694 -74.76185943 234.38170615 -76.75 237.6875 C-77.33007812 238.65236328 -77.33007812 238.65236328 -77.921875 239.63671875 C-78.45554687 240.31154297 -78.45554687 240.31154297 -79 241 C-79.66 241 -80.32 241 -81 241 C-81.144375 241.61875 -81.28875 242.2375 -81.4375 242.875 C-82 245 -82 245 -83 247 C-83.66 247 -84.32 247 -85 247 C-85.144375 247.61875 -85.28875 248.2375 -85.4375 248.875 C-86 251 -86 251 -87 253 C-87.66 253 -88.32 253 -89 253 C-89.144375 253.61875 -89.28875 254.2375 -89.4375 254.875 C-90 257 -90 257 -91 259 C-91.66 259 -92.32 259 -93 259 C-93.144375 259.61875 -93.28875 260.2375 -93.4375 260.875 C-94 263 -94 263 -95 265 C-95.66 265 -96.32 265 -97 265 C-97.144375 265.61875 -97.28875 266.2375 -97.4375 266.875 C-98 269 -98 269 -99 271 C-99.66 271 -100.32 271 -101 271 C-101.12375 271.598125 -101.2475 272.19625 -101.375 272.8125 C-102 275 -102 275 -104 278 C-104.66 278 -105.32 278 -106 278 C-106.23976563 278.69996094 -106.47953125 279.39992188 -106.7265625 280.12109375 C-108.22051306 283.49852186 -110.13934205 286.12494943 -112.375 289.0625 C-113.14585937 290.08472656 -113.91671875 291.10695313 -114.7109375 292.16015625 C-116.69916081 294.62677459 -118.63113229 296.89825993 -121 299 C-121.66 299 -122.32 299 -123 299 C-123.10054687 299.58394531 -123.20109375 300.16789062 -123.3046875 300.76953125 C-124.12721967 303.40810356 -125.24370484 304.67544218 -127.125 306.6875 C-129.57330802 309.32196969 -131.76481275 312.03205278 -133.90234375 314.91796875 C-138.63366491 321.04414882 -144.13212593 326.39523155 -149.62426758 331.83007812 C-151.435655 333.62317363 -153.23887581 335.42417766 -155.04101562 337.2265625 C-160.34196485 342.51090491 -165.63779223 347.75212257 -171.3605957 352.58496094 C-175.22471575 355.92024609 -178.8581508 359.48981235 -181.9375 363.5625 C-184.29412144 366.34759807 -186.85670374 368.21205391 -189.80078125 370.33984375 C-192.10619315 372.08016357 -194.23299932 373.93772151 -196.375 375.875 C-204.30805918 383.02153365 -212.79766806 389.44067545 -221.37402344 395.79052734 C-223.0191984 397.01428061 -224.65440264 398.25052794 -226.2890625 399.48828125 C-241.81489565 411.15895622 -258.14253002 421.76431872 -275.21630859 431.0234375 C-278.12776263 432.61744464 -280.9988656 434.28084659 -283.875 435.9375 C-285.61985805 436.93258344 -287.36473572 437.92763324 -289.11035156 438.92138672 C-290.43155354 439.67553017 -291.75108286 440.43260813 -293.06933594 441.19189453 C-303.3502336 447.10398827 -313.71919103 452.35190345 -324.63427734 456.98925781 C-327.08305802 458.03548609 -329.52048004 459.10531018 -331.95703125 460.1796875 C-359.4669346 472.24856526 -387.76830931 481.40079494 -416.6875 489.4375 C-417.87432373 489.76758057 -419.06114746 490.09766113 -420.28393555 490.43774414 C-438.43493609 495.39816126 -438.43493609 495.39816126 -446 495 C-442.41226067 492.94515215 -438.6357085 492.05606105 -434.6484375 491.1171875 C-433.15543357 490.75563645 -431.6625172 490.39372366 -430.16967773 490.03149414 C-429.38777069 489.84330109 -428.60586365 489.65510803 -427.80026245 489.46121216 C-345.49065931 469.56609109 -268.96289185 431.46568942 -203.71923828 377.41503906 C-202.18828888 376.15497335 -200.64019353 374.91580531 -199.08984375 373.6796875 C-192.26035725 368.22816808 -185.91186951 362.33794963 -179.5625 356.34375 C-176.73304741 353.67512945 -173.85524773 351.07222497 -170.9375 348.5 C-162.4187378 340.87869937 -154.15043811 332.77170775 -146.76171875 324.04296875 C-144.90928625 321.89480423 -142.99163446 319.81394303 -141.06152344 317.7355957 C-135.44820951 311.68630549 -130.1578676 305.44520316 -125 299 C-124.07759625 297.86916043 -123.15437804 296.73898485 -122.23046875 295.609375 C-98.15810625 266.04766625 -77.75788391 233.68954078 -60 200 C-59.51031738 199.07268066 -59.02063477 198.14536133 -58.51611328 197.18994141 C-40.65844152 163.10551615 -27.35678975 127.01720811 -17 90 C-16.72704102 89.03852051 -16.45408203 88.07704102 -16.17285156 87.08642578 C-8.11869363 58.52851227 -3.79788261 29.36604402 0 0 Z " fill="#8F93CB" transform="translate(2772,425)"/>
<path d="M0 0 C0.33 0 0.66 0 1 0 C1.09498779 0.92820557 1.18997559 1.85641113 1.2878418 2.81274414 C4.40644509 32.92716201 8.20440882 62.67565182 16 92 C16.17615845 92.66749268 16.35231689 93.33498535 16.53381348 94.02270508 C27.38084077 135.10872201 41.93934235 174.01979113 61 212 C61.49387207 212.98500488 61.98774414 213.97000977 62.49658203 214.98486328 C80.56097529 250.77045752 103.36284434 284.22716975 129 315 C129.4753418 315.57443848 129.95068359 316.14887695 130.44042969 316.74072266 C136.46851221 324.01955849 142.72274165 331.04535411 149.171875 337.953125 C151.61818001 340.57579913 154.00202382 343.24812699 156.375 345.9375 C164.04775208 354.49073183 172.18200819 362.81038327 180.95703125 370.23828125 C183.10519577 372.09071375 185.18605697 374.00836554 187.2644043 375.93847656 C193.31369451 381.55179049 199.55479684 386.8421324 206 392 C207.13083957 392.92240375 208.26101515 393.84562196 209.390625 394.76953125 C241.26928448 420.73051778 276.28592806 442.59106488 313 461 C313.99080566 461.49741699 314.98161133 461.99483398 316.00244141 462.50732422 C342.38071534 475.66054651 369.44764654 485.79488007 397.44262695 494.84594727 C400.63399892 495.88126504 403.81874682 496.93405766 407 498 C403.26533467 499.3666953 400.84312158 498.61073603 397.109375 497.4453125 C395.93697266 497.08244141 394.76457031 496.71957031 393.55664062 496.34570312 C392.30044922 495.94287109 391.04425781 495.54003906 389.75 495.125 C389.10506592 494.92092529 388.46013184 494.71685059 387.7956543 494.5065918 C368.57754979 488.42485308 349.87152817 481.19686363 331.43017578 473.06445312 C329.11573006 472.05069149 326.79250673 471.06108563 324.46484375 470.078125 C313.13294521 465.24233082 302.39679431 459.48634535 291.65014648 453.47265625 C288.88514798 451.93617804 286.10387937 450.43222578 283.3203125 448.9296875 C278.88361209 446.51365864 274.57195991 443.96415175 270.3125 441.25 C268.93635895 440.37995358 267.56005198 439.51016954 266.18359375 438.640625 C265.1469458 437.98416992 265.1469458 437.98416992 264.08935547 437.31445312 C262.03787969 436.02383083 259.97640573 434.75118567 257.91015625 433.484375 C240.1034321 422.54457706 223.3804879 409.96275452 207 397 C206.16984375 396.34386719 205.3396875 395.68773437 204.484375 395.01171875 C200.08773005 391.51678093 195.74541038 387.97997315 191.51171875 384.2890625 C190.21579081 383.18400766 188.86248606 382.14686455 187.5 381.125 C184.65728291 378.70869047 182.37238175 376.03883705 179.94921875 373.2109375 C175.45883613 368.11763777 170.62829169 363.38319614 165.47265625 358.96875 C160.25029909 354.42621911 155.36342561 349.54948108 150.47216797 344.6574707 C148.87615448 343.06365289 147.27228416 341.47803365 145.66796875 339.89257812 C140.81413555 335.06479319 136.16456101 330.26400949 132.19482422 324.66040039 C129.93294587 321.51715669 127.1940641 318.78959965 124.5390625 315.98046875 C123 314 123 314 123 311 C122.401875 310.773125 121.80375 310.54625 121.1875 310.3125 C118.40651597 308.64390958 117.4358084 306.8716168 116 304 C116 303.34 116 302.68 116 302 C115.13375 301.690625 115.13375 301.690625 114.25 301.375 C111.15522364 299.48374778 109.8081237 297.09964063 108 294 C108 293.34 108 292.68 108 292 C107.01 291.67 106.02 291.34 105 291 C103 288 103 288 103 285 C102.34 285 101.68 285 101 285 C99 282 99 282 99 279 C98.34 279 97.68 279 97 279 C95 276 95 276 95 273 C94.34 273 93.68 273 93 273 C91 270 91 270 91 267 C90.34 267 89.68 267 89 267 C87 264 87 264 87 261 C86.34 261 85.68 261 85 261 C83 258 83 258 83 255 C82.34 255 81.68 255 81 255 C79.5044674 252.79782063 78.14439771 250.61165884 76.8125 248.3125 C76.4095874 247.62768555 76.0066748 246.94287109 75.59155273 246.23730469 C72.2476659 240.51552804 69.0576717 234.71789374 65.97607422 228.85058594 C64.88020246 226.77287009 63.77037592 224.70289561 62.66015625 222.6328125 C56.7546499 211.5794179 51.1999606 200.40229659 46 189 C45.60844727 188.14519043 45.21689453 187.29038086 44.81347656 186.40966797 C34.59832541 163.95856018 25.92423084 140.67863412 19 117 C18.77618652 116.23800293 18.55237305 115.47600586 18.32177734 114.69091797 C15.80562884 106.05566849 13.54008359 97.41947866 11.74609375 88.6015625 C11.20741644 86.00124584 10.64080551 83.42043494 10.03515625 80.8359375 C7.76015584 71.07451055 6.06095117 61.33262414 4.65234375 51.41015625 C4.19504794 48.21970496 3.64338569 45.08388972 2.9375 41.9375 C0.0500702 28.13121803 -0.30210683 14.04796778 0 0 Z " fill="#8F93CB" transform="translate(108,411)"/>
<path d="M0 0 C0.66 0.33 1.32 0.66 2 1 C-4.93 7.93 -11.86 14.86 -19 22 C-19.66 21.67 -20.32 21.34 -21 21 C-20.56429688 20.57589844 -20.12859375 20.15179688 -19.6796875 19.71484375 C-16.66354138 16.74439682 -13.75398096 13.76981572 -11.0625 10.5 C-7.76179776 6.5552583 -3.93964217 3.2897012 0 0 Z " fill="#D6D8EA" transform="translate(1947,369)"/>
<path d="M0 0 C0 0.99 0 1.98 0 3 C-0.99 3.66 -1.98 4.32 -3 5 C-1.125 1.125 -1.125 1.125 0 0 Z M-20 21 C-20 24 -20 24 -21.53125 25.82421875 C-22.1809375 26.43910156 -22.830625 27.05398438 -23.5 27.6875 C-24.1496875 28.31011719 -24.799375 28.93273437 -25.46875 29.57421875 C-25.9740625 30.04472656 -26.479375 30.51523437 -27 31 C-27.99 30.67 -28.98 30.34 -30 30 C-26.7 27.03 -23.4 24.06 -20 21 Z " fill="#888CC7" transform="translate(2624,750)"/>
<path d="M0 0 C0.66 0.33 1.32 0.66 2 1 C-4.27 7.27 -10.54 13.54 -17 20 C-17 15.82063392 -15.24808305 14.71589277 -12.4375 11.6875 C-11.98584473 11.19983154 -11.53418945 10.71216309 -11.06884766 10.2097168 C-7.59122576 6.5046503 -3.95528271 3.18142305 0 0 Z " fill="#D5D6E9" transform="translate(1439,363)"/>
<path d="M0 0 C0.33 0 0.66 0 1 0 C2.0006709 5.96345767 2.0662997 10.28728907 0 16 C-0.33 16 -0.66 16 -1 16 C-1.11138159 10.54230189 -0.91657981 5.38490641 0 0 Z " fill="#9599CE" transform="translate(2772,425)"/>
</svg>
