<?xml version="1.0" encoding="UTF-8"?>
<svg version="1.1" xmlns="http://www.w3.org/2000/svg" width="2529" height="346">
<path d="M0 0 C15.51 0 31.02 0 47 0 C50.01553668 6.03107335 52.7763513 11.60482779 55 17.875 C57.20169572 24.00646656 59.64447503 30.01103318 62.16882324 36.0166626 C71.27864048 57.75432681 80.34593884 79.51666682 88.85791016 101.49609375 C93.26279549 112.80607126 97.95389503 123.99502569 102.62457275 135.19717407 C107.46917789 146.82208428 112.19876831 158.47510408 116.74682617 170.21972656 C121.61424605 182.71420728 126.80429957 195.07562154 131.98828125 207.44140625 C135.45811993 215.7370987 138.82111787 224.04800501 141.93771362 232.48312378 C144.12741606 238.39613278 146.54397497 244.19394015 149 250 C150.3598741 253.26119384 151.71305327 256.52515801 153.06640625 259.7890625 C153.80661907 261.57292561 154.54685375 263.35677965 155.28710938 265.140625 C155.6611792 266.04232422 156.03524902 266.94402344 156.4206543 267.87304688 C157.18341524 269.71137088 157.94643713 271.54958663 158.7097168 273.38769531 C159.82922805 276.0837297 160.94790131 278.78011049 162.06640625 281.4765625 C162.40193008 282.28412994 162.73745392 283.09169739 163.08314514 283.92373657 C165.43520254 289.5975307 167.73052959 295.29269158 170 301 C170.91828568 298.87569913 171.83453222 296.75051677 172.75 294.625 C173.26046875 293.44164062 173.7709375 292.25828125 174.296875 291.0390625 C177.69250725 283.05543859 180.80375706 274.95526358 183.95874023 266.87451172 C191.67338719 247.13107979 191.67338719 247.13107979 195.68359375 238.0546875 C198.41954278 231.70598678 200.90525694 225.25508321 203.41015625 218.8125 C208.44816808 205.86059937 213.59849609 192.9863722 219.11938477 180.23046875 C221.51604622 174.65798996 223.75511142 169.04981494 225.85546875 163.359375 C229.43093772 153.68502956 233.45387696 144.20746814 237.46826172 134.70898438 C241.41506845 125.35802699 245.20790049 115.98144005 248.70703125 106.453125 C250.26303052 102.29752574 251.98006452 98.22377096 253.71484375 94.140625 C255.2555533 90.37548676 256.65887903 86.56784904 258.0625 82.75 C259.77990171 78.08971395 261.60429826 73.61766468 263.94140625 69.234375 C265.76904779 65.37676999 267.17800296 61.34663972 268.63085938 57.3359375 C270.88907855 51.13983201 273.44618473 45.07909773 276 39 C277.76522039 34.7528532 279.52504459 30.50347527 281.28442383 26.25390625 C281.80466913 24.99761261 282.3251785 23.7414283 282.84594727 22.48535156 C283.61794411 20.62329228 284.38913108 18.7608993 285.16015625 16.8984375 C285.61011963 15.81224121 286.06008301 14.72604492 286.52368164 13.60693359 C288.37570519 9.08207898 290.1841958 4.5395105 292 0 C307.51 0 323.02 0 339 0 C339 113.52 339 227.04 339 344 C325.14 344 311.28 344 297 344 C296.67 260.84 296.34 177.68 296 92 C293.36 99.59 290.72 107.18 288 115 C285.84496704 120.31470147 283.68954083 125.6002308 281.41583252 130.86080933 C279.67331579 134.89357942 277.9570264 138.9375237 276.23828125 142.98046875 C275.88638733 143.80678299 275.53449341 144.63309723 275.17193604 145.48445129 C271.3756956 154.42286304 267.74756886 163.4276554 264.125 172.4375 C259.28138509 184.47259373 254.30701626 196.43060735 249.05078125 208.29296875 C247.35852391 212.13388839 245.78409267 216.00964157 244.23950195 219.91186523 C242.6173591 223.95332375 240.94826025 227.97459766 239.27734375 231.99609375 C238.9329274 232.82518753 238.58851105 233.65428131 238.23365784 234.50849915 C237.50932767 236.25148141 236.78483115 237.99439454 236.06018066 239.73724365 C230.1420041 253.97156188 224.23920418 268.21061236 218.48803711 282.51342773 C216.55459582 287.29769432 214.55353235 292.02754403 212.39453125 296.71484375 C210.06672932 301.77575475 208.10677291 306.90239992 206.24023438 312.14648438 C204.75236205 316.23507599 203.00565472 320.06201468 201.01928711 323.93139648 C199.2524894 327.51704368 197.7968847 331.22815522 196.3125 334.9375 C193.13026685 342.86973315 193.13026685 342.86973315 192 344 C190.58774954 344.0928726 189.17091066 344.11746772 187.75561523 344.11352539 C186.85475693 344.11344986 185.95389862 344.11337433 185.02574158 344.11329651 C184.04658279 344.10813522 183.06742401 344.10297394 182.05859375 344.09765625 C181.06118668 344.0962413 180.0637796 344.09482635 179.03614807 344.09336853 C175.83656876 344.08775114 172.63705831 344.07519571 169.4375 344.0625 C167.27408955 344.05748724 165.11067801 344.05292395 162.94726562 344.04882812 C157.63148675 344.03777607 152.31574829 344.02102104 147 344 C141.04772869 330.45550934 135.27573659 316.87199254 129.83886719 303.11230469 C127.20361273 296.47661739 124.4397766 289.91513922 121.4375 283.4375 C119.79793878 279.87832828 118.35761857 276.32304517 117.0625 272.625 C115.69199005 268.73211463 114.1208196 265.03249117 112.34375 261.30859375 C108.3880527 252.81433018 104.92491948 244.13205468 101.4375 235.4375 C100.14568175 232.22740075 98.85226159 229.01794801 97.55859375 225.80859375 C97.24715424 225.03558929 96.93571472 224.26258484 96.61483765 223.46615601 C93.22051766 215.05051744 89.72707025 206.68104711 86.14453125 198.34375 C82.5977283 190.08788928 79.13957254 181.7958309 75.6875 173.5 C75.36017883 172.71407471 75.03285767 171.92814941 74.69561768 171.1184082 C70.01471119 159.87830059 65.36821135 148.62488612 60.77734375 137.34765625 C59.35852231 133.86549908 57.90590564 130.39908575 56.4375 126.9375 C54.10998198 121.37912655 51.96081953 115.75443286 49.8125 110.125 C49.29417603 108.76749634 49.29417603 108.76749634 48.76538086 107.38256836 C47.08035153 102.94134495 45.50371855 98.51115565 44 94 C43.67 176.5 43.34 259 43 344 C28.81 344 14.62 344 0 344 C0 230.48 0 116.96 0 0 Z " fill="#00A0D5" transform="translate(1008,2)"/>
<path d="M0 0 C191.58249158 0 191.58249158 0 223 31 C223 31.66 223 32.32 223 33 C223.66 33 224.32 33 225 33 C243.3673277 52.3395114 249.85638407 78.58314629 249.58789062 104.59521484 C248.81708728 128.38886887 241.19852795 149.6580014 226 168 C225.46117187 168.76441406 224.92234375 169.52882812 224.3671875 170.31640625 C223.91601562 170.87199219 223.46484375 171.42757812 223 172 C222.34 172 221.68 172 221 172 C221 172.66 221 173.32 221 174 C207.18638813 187.11892346 190.09418675 195.57511347 172 201 C172.43570313 201.73863281 172.87140625 202.47726563 173.3203125 203.23828125 C176.78285029 209.13658697 180.15109288 215.06895589 183.40234375 221.0859375 C185.22724353 224.41448331 187.10866131 227.70897271 189 231 C191.88185183 236.01597994 194.68421312 241.06865468 197.4375 246.15625 C199.25278744 249.46007313 201.12219887 252.73149653 203 256 C205.88177615 261.0160239 208.68421224 266.06865305 211.4375 271.15625 C213.25278744 274.46007313 215.12219887 277.73149653 217 281 C219.88177615 286.0160239 222.68421224 291.06865305 225.4375 296.15625 C227.25278851 299.46007508 229.12229722 302.73143893 231 306 C233.82404424 310.9186208 236.58736907 315.86430604 239.28125 320.85546875 C240.70074605 323.4525013 242.14089877 326.03488661 243.59375 328.61328125 C244.05152832 329.42829102 244.50930664 330.24330078 244.98095703 331.08300781 C245.90041371 332.7183847 246.82319546 334.35189719 247.74951172 335.98339844 C248.16990723 336.73266602 248.59030273 337.48193359 249.0234375 338.25390625 C249.40419434 338.92752197 249.78495117 339.6011377 250.17724609 340.29516602 C251 342 251 342 251 344 C244.29342754 344.30507217 237.5886479 344.51470228 230.87670898 344.65917969 C228.59575568 344.71941356 226.31526367 344.80122675 224.03588867 344.90527344 C205.05839683 345.74963731 205.05839683 345.74963731 200.01171875 341.45996094 C198.17807685 338.32524225 197.06048877 335.4626874 196 332 C195.07984376 330.22962849 194.12691737 328.47541715 193.125 326.75 C192.40183594 325.41388672 192.40183594 325.41388672 191.6640625 324.05078125 C186.74894689 315.03973597 181.70881114 306.10683228 176.3828125 297.33203125 C174.39428549 293.97849841 172.5526338 290.55064128 170.69921875 287.12109375 C165.77877778 278.08331828 160.72227193 269.1290095 155.3828125 260.33203125 C153.39428549 256.97849841 151.5526338 253.55064128 149.69921875 250.12109375 C144.78679519 241.0980445 139.74440833 232.15330481 134.40625 223.375 C132.30077876 219.81909301 130.34710005 216.18453646 128.39453125 212.54296875 C127.93433594 211.70378906 127.47414063 210.86460937 127 210 C126.63662033 209.13615189 126.27324066 208.27230377 125.89884949 207.38227844 C124.13612634 204.63739248 124.13612634 204.63739248 120.56416321 204.36076355 C119.11774626 204.32845517 117.67055859 204.32390126 116.22387695 204.34057617 C115.42062831 204.33006131 114.61737967 204.31954645 113.78979015 204.30871296 C111.18887979 204.28030828 108.58931249 204.28600572 105.98828125 204.29296875 C104.38291546 204.28044624 102.77756548 204.2656903 101.17224121 204.24865723 C95.21914852 204.2011844 89.26577443 204.19697519 83.3125 204.1875 C63.3578125 204.0946875 63.3578125 204.0946875 43 204 C43 250.2 43 296.4 43 344 C28.81 344 14.62 344 0 344 C0 230.48 0 116.96 0 0 Z M43 37 C43 79.9 43 122.8 43 167 C59.21125 167.04125 75.4225 167.0825 92.125 167.125 C97.21824707 167.14320801 102.31149414 167.16141602 107.55908203 167.18017578 C112.17857227 167.18687019 112.17857227 167.18687019 116.79806519 167.19088745 C118.83412555 167.19393152 120.87018261 167.20090848 122.90621948 167.21115112 C146.75823646 167.32500378 171.38990905 165.96349797 189.8125 148.8125 C203.35942125 134.45276348 206.869555 116.02386587 206.359375 96.95703125 C205.96884175 89.67415206 204.18957139 82.92421654 202 76 C201.78472656 75.21496094 201.56945312 74.42992187 201.34765625 73.62109375 C199.41018822 67.35281482 195.25323398 61.91244009 191 57 C190.34 57 189.68 57 189 57 C189 56.34 189 55.68 189 55 C188.34 55 187.68 55 187 55 C187 54.34 187 53.68 187 53 C165.87203848 36.48858125 139.81794228 36.83356451 114.38671875 36.90234375 C112.55326366 36.90381747 110.71980814 36.90483552 108.88635254 36.90539551 C102.1533952 36.91059861 95.42044692 36.92455973 88.6875 36.9375 C66.0721875 36.9684375 66.0721875 36.9684375 43 37 Z " fill="#00A0D5" transform="translate(459,2)"/>
<path d="M0 0 C158.45537929 0 158.45537929 0 174.1875 4.1875 C175.00863281 4.40108154 175.82976562 4.61466309 176.67578125 4.8347168 C200.66099662 11.38099123 221.88455722 26.22593586 235.45703125 47.2578125 C240.67272118 56.52721586 244.83308699 66.57745362 247 77 C247.30550781 78.39798828 247.30550781 78.39798828 247.6171875 79.82421875 C252.71720386 107.10581309 247.51167987 136.87452855 232 160 C229.17861841 163.84551298 226.18796797 167.4541427 223 171 C222.32582031 171.76828125 221.65164062 172.5365625 220.95703125 173.328125 C209.06850963 186.08653844 191.10858273 196.40719763 174 200 C173.01 200 172.02 200 171 200 C171.50789063 200.88300781 172.01578125 201.76601562 172.5390625 202.67578125 C173.23443576 203.88798598 173.92974471 205.1002276 174.625 206.3125 C174.95628906 206.88806641 175.28757812 207.46363281 175.62890625 208.05664062 C178.26450773 212.65651113 180.81162067 217.30148901 183.34423828 221.95874023 C192.08711207 238.01742186 200.94144049 254.01166061 210.0546875 269.86328125 C213.33921791 275.57836417 216.57546761 281.32042282 219.8125 287.0625 C223.66552032 293.8949038 227.55592694 300.69899092 231.53125 307.4609375 C233.55662506 310.96225077 235.47542265 314.51774123 237.39453125 318.078125 C238.57715654 320.23044548 239.77896504 322.36113802 241.01171875 324.484375 C241.36177979 325.08846191 241.71184082 325.69254883 242.07250977 326.31494141 C243.068128 328.02719229 244.06906122 329.73634947 245.0703125 331.4453125 C246.59094841 334.13898399 247.87652666 336.8904261 249.12060547 339.72216797 C249.47444305 340.52540497 249.82828064 341.32864197 250.19284058 342.15621948 C250.45920319 342.76466705 250.7255658 343.37311462 251 344 C244.34959951 344.43349551 237.70285575 344.72960513 231.04150391 344.93383789 C228.78035493 345.01899049 226.52013329 345.13477275 224.26220703 345.2824707 C205.97992418 346.44779486 205.97992418 346.44779486 201.00732422 342.36315918 C197.70536968 338.3258486 195.64889802 333.858536 193.8033905 329.01101685 C192.74194128 326.35403712 191.30486077 324.01982832 189.75 321.625 C187.32741878 317.59854922 185.05815773 313.50476037 182.82421875 309.37109375 C176.39814591 297.49593131 169.87611864 285.67642124 163.13671875 273.97607422 C160.77096862 269.86344931 158.41738991 265.74384963 156.0625 261.625 C155.29292969 260.27994385 155.29292969 260.27994385 154.5078125 258.90771484 C151.33126672 253.34976752 148.18625891 247.77524692 145.0625 242.1875 C142.54437959 237.68478732 139.95850753 233.2523405 137.171875 228.91015625 C135.15811391 225.62772567 133.37986947 222.21604912 131.55859375 218.82421875 C129.52517904 215.13961015 127.32912538 211.56590605 125.1015625 207.99609375 C124 206 124 206 124 204 C97.27 204 70.54 204 43 204 C43 250.2 43 296.4 43 344 C28.81 344 14.62 344 0 344 C0 230.48 0 116.96 0 0 Z M43 37 C43 79.9 43 122.8 43 167 C67.193125 167.0928125 67.193125 167.0928125 91.875 167.1875 C99.46024658 167.22846802 99.46024658 167.22846802 107.19873047 167.27026367 C111.80750734 167.28030869 111.80750734 167.28030869 116.41629028 167.28633118 C118.43885286 167.29088061 120.4614083 167.30130968 122.48391724 167.31672668 C145.2101297 167.48101335 168.70046148 166.18258415 187 151 C187 150.34 187 149.68 187 149 C187.57878906 148.76796875 188.15757812 148.5359375 188.75390625 148.296875 C196.45188665 143.85212806 200.42943459 133.79082256 203.03125 125.73046875 C208.26273679 105.58502566 206.83011853 83.88420755 196.62109375 65.51953125 C187.02762849 50.33205628 173.20315893 43.19638167 156 39.25 C142.36491983 36.31845776 128.24992694 36.86485043 114.38671875 36.90234375 C112.55326366 36.90381747 110.71980814 36.90483552 108.88635254 36.90539551 C102.1533952 36.91059861 95.42044692 36.92455973 88.6875 36.9375 C66.0721875 36.9684375 66.0721875 36.9684375 43 37 Z " fill="#009FD4" transform="translate(1866,2)"/>
<path d="M0 0 C14.52 0 29.04 0 44 0 C44.33 52.47 44.66 104.94 45 159 C57.55804639 153.60963149 57.55804639 153.60963149 69.75 147.5625 C70.80175415 147.00018677 70.80175415 147.00018677 71.87475586 146.42651367 C80.58247456 141.69611239 88.71155357 136.19083514 96.4765625 130.03125 C98 129 98 129 100 129 C100 128.34 100 127.68 100 127 C101.65 126.34 103.3 125.68 105 125 C105 124.34 105 123.68 105 123 C109.47058824 119 109.47058824 119 112 119 C112 118.34 112 117.68 112 117 C112.66 117 113.32 117 114 117 C114 116.34 114 115.68 114 115 C115.3984375 113.625 115.3984375 113.625 117.375 112 C126.26802215 104.89229225 126.26802215 104.89229225 133 96 C133.66 96 134.32 96 135 96 C135.23589844 95.45601563 135.47179688 94.91203125 135.71484375 94.3515625 C137.34139371 91.37532215 139.38258473 88.97130358 141.5625 86.375 C144.58732256 82.88933319 144.58732256 82.88933319 147 79 C147.66 79 148.32 79 149 79 C149.2671582 78.43555176 149.53431641 77.87110352 149.80957031 77.28955078 C151.07583794 74.85414106 152.50907173 72.64072229 154.046875 70.3671875 C154.645 69.47773437 155.243125 68.58828125 155.859375 67.671875 C157.10401689 65.83062791 158.34880472 63.98947946 159.59375 62.1484375 C163.59035268 56.20477198 167.3870632 50.18429472 171 44 C171.62334229 42.93676514 171.62334229 42.93676514 172.25927734 41.85205078 C178.58516103 30.95647044 184.01379787 19.8017602 188.99194336 8.23144531 C190.24834063 5.45027044 191.63519468 2.72961064 193 0 C209.5 0 226 0 243 0 C235.68627873 21.9411638 224.63912318 42.1738215 212.15625 61.58984375 C210.71230885 63.8376054 209.39302765 66.08167171 208.08203125 68.41796875 C205.72279814 72.59589886 202.97168539 76.47213734 200.1875 80.375 C199.65705078 81.12305908 199.12660156 81.87111816 198.58007812 82.6418457 C195.29575541 87.2510257 191.929635 91.77428251 188.39453125 96.1953125 C187.0522198 97.93242144 185.86189207 99.70909579 184.6875 101.5625 C184.130625 102.366875 183.57375 103.17125 183 104 C182.34 104 181.68 104 181 104 C180.690625 104.61875 180.38125 105.2375 180.0625 105.875 C179.375 107.25 178.6875 108.625 178 110 C177.34 110 176.68 110 176 110 C175.731875 110.5775 175.46375 111.155 175.1875 111.75 C173.97070811 114.05550043 172.69666121 116.02056192 171 118 C170.34 118 169.68 118 169 118 C168.76442383 118.56082275 168.52884766 119.12164551 168.28613281 119.69946289 C166.69269018 122.54969257 164.73703171 124.50488266 162.421875 126.80859375 C161.05095703 128.17661133 161.05095703 128.17661133 159.65234375 129.57226562 C158.93667236 130.27863159 158.93667236 130.27863159 158.20654297 130.99926758 C156.76346656 132.42420273 155.32843939 133.85686103 153.89453125 135.29101562 C149.41587584 139.74140463 144.95575023 144.08362691 140 148 C141.25994695 152.91379311 143.52940974 156.42147689 146.3671875 160.52734375 C148.02606168 163.03946661 149.45986178 165.59371597 150.875 168.25 C153.65847076 173.46718604 156.71797354 178.47012478 159.875 183.46875 C161.6121032 186.28669869 163.19405354 189.17266465 164.765625 192.0859375 C168.25640936 198.53534774 171.99275117 204.82815842 175.75 211.125 C176.4610954 212.32025156 177.17194892 213.51564704 177.88256836 214.71118164 C178.94170406 216.49304733 180.00093911 218.27485238 181.06089783 220.05622864 C183.90839875 224.8420034 186.74117391 229.63625662 189.5625 234.4375 C189.95703369 235.10885986 190.35156738 235.78021973 190.75805664 236.47192383 C194.7587104 243.285283 198.74796744 250.10542992 202.703125 256.9453125 C206.33021224 263.20285489 210.06281059 269.37906211 213.91015625 275.50390625 C215.62501817 278.30665489 217.19359594 281.17499564 218.75390625 284.06640625 C221.97533576 290.01486498 225.38910283 295.839064 228.84912109 301.65136719 C229.86915247 303.36517526 230.88575868 305.08102042 231.90234375 306.796875 C235.93430664 313.58673158 240.03175257 320.33042393 244.19995117 327.03710938 C251.16988881 338.50966643 251.16988881 338.50966643 253 344 C245.98973385 344.22852429 238.98042959 344.38593408 231.96728516 344.49438477 C229.5828055 344.53959816 227.19857472 344.60098271 224.81494141 344.67895508 C221.38381619 344.78836778 217.95599088 344.83921548 214.5234375 344.87890625 C212.92935562 344.9485836 212.92935562 344.9485836 211.30307007 345.01966858 C204.03835674 345.02460409 204.03835674 345.02460409 201.02764893 342.05377197 C199.48515023 339.76138842 198.2196524 337.47631201 197 335 C196.29875 333.89914062 195.5975 332.79828125 194.875 331.6640625 C191.88209287 326.81305886 188.93445717 321.96690946 186.25 316.9375 C182.39880675 309.74157179 178.11252882 302.80311617 173.8984375 295.81640625 C170.5389676 290.24505098 167.25998172 284.63014213 164 279 C162.25008413 275.997887 160.49820508 272.99692585 158.74609375 269.99609375 C157.58920227 268.01100256 156.43551282 266.02404153 155.28515625 264.03515625 C151.66250577 257.78382516 147.93314161 251.61449393 144.08984375 245.49609375 C142.37498183 242.69334511 140.80640406 239.82500436 139.24609375 236.93359375 C136.02466424 230.98513502 132.61089717 225.160936 129.15087891 219.34863281 C128.13084753 217.63482474 127.11424132 215.91897958 126.09765625 214.203125 C122.06484616 207.41184173 117.96697458 200.66622574 113.80004883 193.95678711 C106.05017364 181.2267263 106.05017364 181.2267263 105 176 C99.03340201 179.16316525 93.22314806 182.47643497 87.5 186.0625 C80.26865684 190.50475021 72.69203013 194.23860996 65.0625 197.9375 C63.90105469 198.5054126 62.73960937 199.0733252 61.54296875 199.65844727 C60.42664062 200.19268311 59.3103125 200.72691895 58.16015625 201.27734375 C57.16636963 201.75421631 56.17258301 202.23108887 55.14868164 202.72241211 C52 204 52 204 44 206 C44 251.54 44 297.08 44 344 C29.48 344 14.96 344 0 344 C0 230.48 0 116.96 0 0 Z " fill="#00A0D5" transform="translate(2233,2)"/>
<path d="M0 0 C14.52 0 29.04 0 44 0 C46.65548153 5.31096306 49.14757936 10.51940693 51.375 16 C51.67825195 16.74072754 51.98150391 17.48145508 52.29394531 18.24462891 C54.45045916 23.55010459 56.47033808 28.89862984 58.44873047 34.27319336 C62.29955322 44.6230584 66.59555624 54.80301529 70.78125 65.02050781 C74.13521822 73.21999261 77.396107 81.45524067 80.62890625 89.703125 C81.11037109 90.9310376 81.59183594 92.1589502 82.08789062 93.42407227 C83.04539535 95.86658422 84.00079 98.30988815 84.95507812 100.75366211 C87.8748932 108.21081534 90.88954098 115.62045296 94 123 C98.98403262 134.84534799 103.94438189 146.66252773 108.3671875 158.73046875 C110.84453414 165.33726477 113.6434146 171.81986694 116.3984375 178.31445312 C118.79374048 183.98813756 121.03126534 189.68456605 123.08276367 195.49194336 C124.04174275 198.11413981 125.09672131 200.68010125 126.1875 203.25 C128.7406378 209.28900087 131.12232706 215.39001843 133.5 221.5 C136.9145118 230.28443041 136.9145118 230.28443041 140.5 239 C143.35220449 245.73437171 145.97365941 252.55984935 148.61523438 259.37890625 C151.30413052 266.2986496 154.11914765 273.15811487 157 280 C167.03091248 303.84273785 167.03091248 303.84273785 171.41796875 315.828125 C173.80099517 322.22761378 176.47064903 328.51804123 179.10571289 334.81689453 C179.48074951 335.72036621 179.85578613 336.62383789 180.2421875 337.5546875 C180.5810498 338.36405762 180.91991211 339.17342773 181.26904297 340.00732422 C182 342 182 342 182 344 C166.82 344 151.64 344 136 344 C134.30875 339.689375 132.6175 335.37875 130.875 330.9375 C127.83759591 323.19805043 124.79685849 315.46087561 121.6875 307.75 C119.50061735 302.31083033 117.43129824 296.83623405 115.39379883 291.34008789 C113.31024792 285.75265949 111.10347542 280.21850798 108.875 274.6875 C101 255.11499058 101 255.11499058 101 252 C100.29319092 252.19110352 99.58638184 252.38220703 98.8581543 252.57910156 C75.89614973 258.72102666 52.84507609 263.41531263 29 264 C27.93523437 264.03996094 26.87046875 264.07992188 25.7734375 264.12109375 C0.17076267 264.65058946 -25.82383167 260.88839188 -50.375 253.69921875 C-53.03039835 252.87130293 -53.03039835 252.87130293 -56 253 C-57.88527046 257.83347142 -59.7691466 262.66748335 -61.65185547 267.50195312 C-62.28951414 269.13881301 -62.92752217 270.77553684 -63.56591797 272.41210938 C-67.08754021 281.44077239 -70.57042006 290.48075355 -73.95620728 299.5612793 C-75.89165827 304.74093129 -77.9176106 309.8780202 -80 315 C-82.82034862 321.9789031 -85.54179779 328.98403443 -88.09765625 336.06445312 C-89.17551065 339.00830401 -90.24766743 341.37150114 -92 344 C-93.94888306 344.36076355 -93.94888306 344.36076355 -96.35791016 344.34057617 C-97.25869293 344.34034958 -98.15947571 344.34012299 -99.08755493 344.33988953 C-100.06155243 344.32440567 -101.03554993 344.30892181 -102.0390625 344.29296875 C-103.03505463 344.28872391 -104.03104675 344.28447906 -105.05722046 344.28010559 C-108.24675225 344.2632768 -111.43565833 344.22561676 -114.625 344.1875 C-116.78384506 344.1724586 -118.9427 344.15876925 -121.1015625 344.14648438 C-126.40125612 344.11335967 -131.70058337 344.06311896 -137 344 C-136.38959504 340.47417534 -135.45752633 337.38283665 -134.07421875 334.0859375 C-133.68943359 333.15910156 -133.30464844 332.23226563 -132.90820312 331.27734375 C-132.50537109 330.31957031 -132.10253906 329.36179687 -131.6875 328.375 C-129.35330309 322.79907659 -127.05275231 317.23289925 -125.01953125 311.5390625 C-122.89237678 305.60018274 -120.46410725 299.80563583 -118 294 C-117.17767254 292.04717503 -116.35605286 290.09405187 -115.53515625 288.140625 C-115.13103516 287.17898438 -114.72691406 286.21734375 -114.31054688 285.2265625 C-110.56398109 276.29109105 -106.96049903 267.34681553 -103.625 258.25 C-101.17136567 251.70697512 -98.38646734 245.29433027 -95.67626953 238.85473633 C-93.03374395 232.55167937 -90.53140674 226.22379573 -88.1875 219.8046875 C-85.97684369 213.80610887 -83.47023261 207.94354858 -80.96044922 202.06518555 C-78.845763 197.08532661 -76.86040137 192.07998257 -75 187 C-72.50223031 180.18335004 -69.742047 173.49626082 -66.890625 166.8203125 C-64.50969403 161.24544975 -62.23701836 155.63401009 -60 150 C-59.18801789 147.96854292 -58.37549296 145.93730275 -57.5625 143.90625 C-57.14226562 142.85566406 -56.72203125 141.80507812 -56.2890625 140.72265625 C-55.00520833 137.51302083 -53.72135417 134.30338542 -52.4375 131.09375 C-52.02314697 130.05758545 -51.60879395 129.0214209 -51.18188477 127.95385742 C-50.45140217 126.12817907 -49.72025599 124.30276588 -48.98803711 122.4777832 C-46.14731523 115.39366533 -43.35272562 108.29163703 -40.5625 101.1875 C-39.86543945 99.41536133 -39.86543945 99.41536133 -39.15429688 97.60742188 C-36.89962433 91.86854128 -34.66227159 86.12433767 -32.46484375 80.36328125 C-30.09585945 74.19024584 -27.57295719 68.09036693 -25 62 C-23.73240765 58.98427411 -22.46616294 55.96798983 -21.20117188 52.95117188 C-20.35674644 50.93734121 -19.51038249 48.92432233 -18.66210938 46.91210938 C-16.23789308 41.12029959 -13.97939122 35.29859455 -11.86450195 29.38696289 C-10.86827673 26.63630094 -9.77438729 23.94005536 -8.625 21.25 C-5.6647796 14.20185618 -2.83911682 7.09779204 0 0 Z M22 50 C21.79133301 50.5770166 21.58266602 51.1540332 21.36767578 51.74853516 C15.41887125 68.13372837 9.16498325 84.39261437 2.8125 100.625 C2.23813202 102.09468231 2.23813202 102.09468231 1.65216064 103.59405518 C-2.37868111 113.90179809 -6.43644329 124.19476515 -10.70158386 134.40823364 C-13.08955511 140.14063745 -15.2493452 145.94582008 -17.40234375 151.76953125 C-19.18776154 156.54538213 -21.09342451 161.27149526 -23 166 C-25.65993764 172.59952095 -28.2397824 179.21821922 -30.69775391 185.89550781 C-32.11674119 189.72396839 -33.60474834 193.5167983 -35.1484375 197.296875 C-35.51710938 198.20179688 -35.88578125 199.10671875 -36.265625 200.0390625 C-36.99131251 201.81239746 -37.72285503 203.58335054 -38.4609375 205.3515625 C-38.7909375 206.15851563 -39.1209375 206.96546875 -39.4609375 207.796875 C-39.75790527 208.51198242 -40.05487305 209.22708984 -40.36083984 209.96386719 C-41.19966624 212.28038179 -41.19966624 212.28038179 -41 216 C-27.77278316 220.27346247 -14.80357337 224.15003656 -1 226 C-0.34394775 226.0928125 0.31210449 226.185625 0.98803711 226.28125 C29.74320907 229.98093898 58.78897073 225.51020922 86 216 C85.28038155 213.06772296 84.51515304 210.15372128 83.6875 207.25 C83.46449219 206.45078125 83.24148438 205.6515625 83.01171875 204.828125 C82.16628482 202.46482707 81.22412941 200.40817284 80.078125 198.1875 C78.00996419 194.14896151 76.50023582 190.04634545 75.0625 185.75 C73.4006159 180.91519164 71.70679247 176.1375773 69.6875 171.4375 C67.08589898 165.36709761 64.80049865 159.18895628 62.5 153 C59.14625183 143.94237458 59.14625183 143.94237458 55.5 135 C52.53940187 128.0919377 49.98509723 121.026148 47.38476562 113.9765625 C45.14173289 107.92632908 42.76675123 101.95194382 40.26318359 96.00488281 C33.90205432 80.87291932 27.92119086 65.66379041 23 50 C22.67 50 22.34 50 22 50 Z " fill="#009FD4" transform="translate(1584,2)"/>
<path d="M0 0 C204.48892753 0 204.48892753 0 240.5625 34.125 C253.55457062 47.44691163 261.7670512 64.74627372 265 83 C265.17128418 83.92159912 265.34256836 84.84319824 265.51904297 85.79272461 C267.72816922 100.52434468 267.38563111 117.71347443 263 132 C262.80664062 132.63228516 262.61328125 133.26457031 262.4140625 133.91601562 C254.33342206 159.52965059 237.67009085 177.56594074 214.08056641 190.08081055 C193.83413186 200.34417619 170.63488814 204.1899271 148.12451172 204.11352539 C146.38311511 204.11370619 146.38311511 204.11370619 144.60653877 204.11389065 C140.8809016 204.11314943 137.15531562 204.10555746 133.4296875 204.09765625 C131.11661808 204.09618438 128.80354833 204.09516518 126.49047852 204.09460449 C117.95198057 204.08938001 109.41348977 204.07541874 100.875 204.0625 C72.226875 204.0315625 72.226875 204.0315625 43 204 C43 250.2 43 296.4 43 344 C28.81 344 14.62 344 0 344 C0 230.48 0 116.96 0 0 Z M43 38 C43 80.24 43 122.48 43 166 C61.8925 166.0825 80.785 166.165 100.25 166.25 C106.17614258 166.28641602 112.10228516 166.32283203 118.20800781 166.36035156 C123.60311429 166.37374389 123.60311429 166.37374389 128.99822998 166.3817749 C131.36821513 166.38784588 133.73818934 166.40176252 136.10809326 166.42230225 C160.43687452 166.62228909 185.33867468 165.04789256 205 149 C205 148.34 205 147.68 205 147 C205.66 147 206.32 147 207 147 C207 146.34 207 145.68 207 145 C207.99 144.67 208.98 144.34 210 144 C215.14086533 138.51641031 219.11070398 131.26652315 221 124 C221.18433594 123.30390625 221.36867188 122.6078125 221.55859375 121.890625 C224.60579739 108.35683782 224.24383448 93.1888132 220 80 C219.58234375 78.68322266 219.58234375 78.68322266 219.15625 77.33984375 C216.86202019 70.94171148 213.4507842 65.15238565 209 60 C208.34 60 207.68 60 207 60 C207 59.34 207 58.68 207 58 C206.34 58 205.68 58 205 58 C205 57.34 205 56.68 205 56 C182.62932937 38.52291357 156.74718674 37.52328118 129.42578125 37.70703125 C127.20129625 37.7114553 124.9768081 37.71450768 122.75231934 37.71618652 C114.60566452 37.73176223 106.45907705 37.7736451 98.3125 37.8125 C80.059375 37.874375 61.80625 37.93625 43 38 Z " fill="#00A0D5" transform="translate(84,2)"/>
<path d="M0 0 C13.86 0 27.72 0 42 0 C43 1 43 1 43.1241985 3.32352453 C43.12381878 4.3650974 43.12343906 5.40667027 43.12304783 6.47980595 C43.12503888 7.67660168 43.12702993 8.87339741 43.12908131 10.10645968 C43.12622772 11.45159363 43.12328211 12.79672739 43.12025452 14.14186096 C43.12069009 15.55753074 43.12156475 16.97320044 43.12284368 18.3888697 C43.1250913 22.29736037 43.12106374 26.20582389 43.11606562 30.1143111 C43.11176511 34.32224014 43.11320726 38.53016753 43.1139679 42.73809814 C43.11449339 50.03471301 43.11134398 57.33131897 43.10573006 64.62793159 C43.09761843 75.17773393 43.09500018 85.72753195 43.09374207 96.27733707 C43.09155101 113.39184369 43.08488949 130.50634557 43.07543945 147.62084961 C43.06626671 164.25040666 43.0591852 180.87996242 43.05493164 197.50952148 C43.05466892 198.53379824 43.05440619 199.558075 43.05413551 200.61339045 C43.05283051 205.75165625 43.0515668 210.88992206 43.05032361 216.02818787 C43.03994934 258.68546204 43.02205523 301.3427304 43 344 C28.81 344 14.62 344 0 344 C0 230.48 0 116.96 0 0 Z " fill="#009FD4" transform="translate(828,2)"/>
</svg>
